G04 Layer_Color=32896*
%FSLAX44Y44*%
%MOMM*%
G71*
G01*
G75*
G36*
X600206Y406009D02*
X600735Y405806D01*
X601223Y405602D01*
X601691Y405419D01*
X602118Y405256D01*
X602525Y405114D01*
X602912Y404992D01*
X603258Y404870D01*
X603563Y404768D01*
X603848Y404687D01*
X604071Y404605D01*
X604275Y404565D01*
X604438Y404524D01*
X604539Y404483D01*
X604621Y404463D01*
X604641D01*
X605414Y404300D01*
X606167Y404178D01*
X606899Y404076D01*
X607245Y404036D01*
X607571Y404015D01*
X607876Y403995D01*
X608140Y403975D01*
X608385D01*
X608588Y403954D01*
X609382D01*
X609789Y403975D01*
X610155Y403995D01*
X610501Y404015D01*
X610765Y404056D01*
X610989Y404076D01*
X611070D01*
X611131Y404097D01*
X611172D01*
X611965Y404219D01*
X612352Y404300D01*
X612698Y404361D01*
X613003Y404422D01*
X613227Y404483D01*
X613308Y404504D01*
X613369D01*
X613410Y404524D01*
X613430D01*
X613858Y404626D01*
X614244Y404727D01*
X614610Y404829D01*
X614916Y404911D01*
X615160Y404992D01*
X615343Y405053D01*
X615465Y405094D01*
X615485Y405114D01*
X615506D01*
X615872Y405256D01*
X616299Y405419D01*
X616747Y405602D01*
X617174Y405785D01*
X617560Y405969D01*
X617723Y406030D01*
X617866Y406111D01*
X617988Y406152D01*
X618069Y406192D01*
X618130Y406233D01*
X618150D01*
Y404361D01*
X617682Y404056D01*
X617215Y403792D01*
X616747Y403547D01*
X616299Y403303D01*
X615851Y403100D01*
X615444Y402896D01*
X615038Y402734D01*
X614671Y402571D01*
X614325Y402428D01*
X614020Y402327D01*
X613756Y402225D01*
X613512Y402144D01*
X613329Y402082D01*
X613206Y402042D01*
X613105Y402001D01*
X613084D01*
X612230Y401798D01*
X611437Y401635D01*
X611070Y401574D01*
X610704Y401533D01*
X610378Y401472D01*
X610073Y401452D01*
X609789Y401432D01*
X609524Y401411D01*
X609300Y401391D01*
X609117Y401370D01*
X608771D01*
X607876Y401411D01*
X607042Y401493D01*
X606635Y401554D01*
X606228Y401635D01*
X605862Y401696D01*
X605536Y401777D01*
X605211Y401859D01*
X604926Y401920D01*
X604682Y402001D01*
X604478Y402062D01*
X604295Y402103D01*
X604173Y402144D01*
X604092Y402184D01*
X604071D01*
X603217Y402510D01*
X602403Y402876D01*
X602017Y403059D01*
X601671Y403242D01*
X601325Y403425D01*
X600999Y403608D01*
X600714Y403771D01*
X600450Y403914D01*
X600226Y404056D01*
X600043Y404178D01*
X599880Y404280D01*
X599779Y404361D01*
X599697Y404402D01*
X599677Y404422D01*
Y406253D01*
X600206Y406009D01*
D02*
G37*
G36*
X589000Y484539D02*
X586497D01*
Y489911D01*
X586233Y489748D01*
X586009Y489565D01*
X585908Y489483D01*
X585826Y489422D01*
X585785Y489382D01*
X585765Y489361D01*
X585684Y489280D01*
X585582Y489198D01*
X585358Y488954D01*
X585094Y488690D01*
X584829Y488425D01*
X584585Y488161D01*
X584382Y487937D01*
X584300Y487856D01*
X584239Y487795D01*
X584219Y487754D01*
X584198Y487734D01*
X583771Y487286D01*
X583425Y486920D01*
X583100Y486615D01*
X582856Y486371D01*
X582652Y486187D01*
X582510Y486065D01*
X582408Y485984D01*
X582388Y485964D01*
X582042Y485699D01*
X581716Y485475D01*
X581411Y485292D01*
X581147Y485150D01*
X580923Y485028D01*
X580740Y484946D01*
X580638Y484906D01*
X580597Y484885D01*
X580272Y484763D01*
X579946Y484682D01*
X579641Y484621D01*
X579356Y484580D01*
X579132Y484560D01*
X578949Y484539D01*
X578787D01*
X578481Y484560D01*
X578176Y484600D01*
X577891Y484641D01*
X577627Y484723D01*
X577159Y484926D01*
X576752Y485129D01*
X576569Y485252D01*
X576427Y485353D01*
X576284Y485455D01*
X576182Y485557D01*
X576101Y485638D01*
X576020Y485679D01*
X575999Y485719D01*
X575979Y485740D01*
X575775Y485964D01*
X575592Y486228D01*
X575450Y486472D01*
X575328Y486757D01*
X575124Y487286D01*
X574982Y487815D01*
X574941Y488059D01*
X574901Y488283D01*
X574880Y488486D01*
X574860Y488670D01*
X574840Y488812D01*
Y488914D01*
Y488995D01*
Y489015D01*
X574860Y489361D01*
X574880Y489687D01*
X574982Y490317D01*
X575145Y490846D01*
X575226Y491091D01*
X575328Y491314D01*
X575409Y491518D01*
X575511Y491681D01*
X575592Y491843D01*
X575653Y491965D01*
X575735Y492067D01*
X575775Y492128D01*
X575796Y492169D01*
X575816Y492189D01*
X576020Y492413D01*
X576223Y492617D01*
X576467Y492800D01*
X576732Y492962D01*
X577261Y493206D01*
X577769Y493410D01*
X578034Y493471D01*
X578258Y493532D01*
X578461Y493593D01*
X578644Y493613D01*
X578807Y493654D01*
X578909D01*
X578990Y493675D01*
X579010D01*
X579275Y490989D01*
X578868Y490948D01*
X578522Y490867D01*
X578217Y490785D01*
X577993Y490684D01*
X577810Y490602D01*
X577688Y490521D01*
X577607Y490460D01*
X577586Y490439D01*
X577424Y490236D01*
X577301Y490012D01*
X577200Y489789D01*
X577139Y489565D01*
X577098Y489382D01*
X577078Y489219D01*
Y489117D01*
Y489076D01*
X577098Y488771D01*
X577159Y488507D01*
X577240Y488283D01*
X577322Y488079D01*
X577403Y487937D01*
X577485Y487815D01*
X577546Y487754D01*
X577566Y487734D01*
X577769Y487571D01*
X577993Y487449D01*
X578217Y487367D01*
X578441Y487306D01*
X578644Y487266D01*
X578827Y487245D01*
X578970D01*
X579275Y487266D01*
X579560Y487327D01*
X579845Y487428D01*
X580089Y487530D01*
X580312Y487632D01*
X580475Y487734D01*
X580577Y487795D01*
X580618Y487815D01*
X580740Y487896D01*
X580882Y488018D01*
X581065Y488181D01*
X581228Y488344D01*
X581615Y488710D01*
X582001Y489076D01*
X582367Y489443D01*
X582530Y489605D01*
X582652Y489768D01*
X582774Y489890D01*
X582856Y489972D01*
X582917Y490033D01*
X582937Y490053D01*
X583324Y490460D01*
X583690Y490826D01*
X584036Y491172D01*
X584341Y491477D01*
X584646Y491762D01*
X584931Y492006D01*
X585175Y492230D01*
X585419Y492413D01*
X585623Y492576D01*
X585806Y492718D01*
X585948Y492840D01*
X586091Y492922D01*
X586172Y493003D01*
X586253Y493044D01*
X586294Y493084D01*
X586314D01*
X586782Y493349D01*
X587271Y493552D01*
X587718Y493715D01*
X588125Y493837D01*
X588491Y493919D01*
X588634Y493939D01*
X588756Y493959D01*
X588858Y493980D01*
X588939Y494000D01*
X589000D01*
Y484539D01*
D02*
G37*
G36*
X561623Y493959D02*
X561928Y493878D01*
X562497Y493695D01*
X562986Y493471D01*
X563189Y493329D01*
X563393Y493206D01*
X563576Y493084D01*
X563718Y492962D01*
X563861Y492861D01*
X563962Y492759D01*
X564044Y492677D01*
X564105Y492617D01*
X564146Y492576D01*
X564166Y492556D01*
X564349Y492311D01*
X564532Y492047D01*
X564674Y491803D01*
X564796Y491518D01*
X565000Y490989D01*
X565122Y490501D01*
X565163Y490256D01*
X565203Y490053D01*
X565224Y489870D01*
X565244Y489707D01*
X565265Y489565D01*
Y489463D01*
Y489402D01*
Y489382D01*
X565244Y489015D01*
X565203Y488649D01*
X565142Y488324D01*
X565061Y487998D01*
X564959Y487713D01*
X564858Y487428D01*
X564735Y487164D01*
X564613Y486940D01*
X564491Y486737D01*
X564369Y486533D01*
X564268Y486391D01*
X564166Y486248D01*
X564084Y486147D01*
X564023Y486065D01*
X563983Y486025D01*
X563962Y486004D01*
X563718Y485760D01*
X563454Y485557D01*
X563189Y485373D01*
X562925Y485211D01*
X562640Y485089D01*
X562375Y484967D01*
X561887Y484804D01*
X561663Y484763D01*
X561440Y484723D01*
X561256Y484682D01*
X561094Y484661D01*
X560972Y484641D01*
X560788D01*
X560321Y484682D01*
X559914Y484763D01*
X559527Y484865D01*
X559222Y485007D01*
X558957Y485150D01*
X558774Y485252D01*
X558652Y485333D01*
X558611Y485373D01*
X558306Y485658D01*
X558042Y485984D01*
X557838Y486309D01*
X557676Y486615D01*
X557554Y486879D01*
X557492Y487103D01*
X557452Y487184D01*
Y487245D01*
X557431Y487286D01*
Y487306D01*
X557208Y486940D01*
X556984Y486635D01*
X556740Y486371D01*
X556496Y486126D01*
X556251Y485923D01*
X556007Y485760D01*
X555763Y485638D01*
X555539Y485516D01*
X555316Y485435D01*
X555112Y485373D01*
X554929Y485333D01*
X554766Y485312D01*
X554644Y485292D01*
X554543Y485272D01*
X554461D01*
X554217Y485292D01*
X553993Y485312D01*
X553545Y485435D01*
X553139Y485577D01*
X552793Y485760D01*
X552508Y485943D01*
X552304Y486106D01*
X552223Y486167D01*
X552162Y486228D01*
X552142Y486248D01*
X552121Y486269D01*
X551898Y486493D01*
X551694Y486757D01*
X551531Y487001D01*
X551389Y487266D01*
X551246Y487551D01*
X551145Y487815D01*
X551002Y488324D01*
X550941Y488547D01*
X550901Y488771D01*
X550880Y488954D01*
X550860Y489137D01*
X550840Y489280D01*
Y489382D01*
Y489443D01*
Y489463D01*
X550860Y489890D01*
X550901Y490277D01*
X550982Y490643D01*
X551063Y490948D01*
X551145Y491192D01*
X551226Y491396D01*
X551267Y491518D01*
X551287Y491538D01*
Y491558D01*
X551470Y491884D01*
X551674Y492189D01*
X551877Y492433D01*
X552060Y492637D01*
X552243Y492800D01*
X552386Y492922D01*
X552467Y493003D01*
X552508Y493023D01*
X552813Y493206D01*
X553139Y493369D01*
X553484Y493491D01*
X553810Y493613D01*
X554115Y493695D01*
X554339Y493756D01*
X554441Y493776D01*
X554502D01*
X554543Y493797D01*
X554563D01*
X554970Y491314D01*
X554644Y491253D01*
X554359Y491172D01*
X554115Y491091D01*
X553932Y490989D01*
X553769Y490887D01*
X553647Y490806D01*
X553586Y490745D01*
X553566Y490724D01*
X553403Y490541D01*
X553281Y490338D01*
X553200Y490134D01*
X553139Y489951D01*
X553098Y489789D01*
X553078Y489666D01*
Y489565D01*
Y489544D01*
X553098Y489300D01*
X553139Y489056D01*
X553220Y488873D01*
X553281Y488710D01*
X553362Y488568D01*
X553444Y488486D01*
X553484Y488425D01*
X553505Y488405D01*
X553668Y488263D01*
X553871Y488161D01*
X554054Y488079D01*
X554237Y488039D01*
X554400Y487998D01*
X554522Y487978D01*
X554644D01*
X554949Y487998D01*
X555214Y488059D01*
X555438Y488161D01*
X555621Y488263D01*
X555784Y488385D01*
X555885Y488466D01*
X555967Y488547D01*
X555987Y488568D01*
X556150Y488812D01*
X556272Y489076D01*
X556353Y489361D01*
X556414Y489626D01*
X556435Y489870D01*
X556455Y490073D01*
Y490155D01*
Y490216D01*
Y490236D01*
Y490256D01*
X558632Y490541D01*
X558571Y490277D01*
X558510Y490053D01*
X558469Y489829D01*
X558449Y489646D01*
X558428Y489504D01*
Y489402D01*
Y489320D01*
Y489300D01*
X558449Y489015D01*
X558530Y488771D01*
X558611Y488547D01*
X558734Y488344D01*
X558835Y488201D01*
X558937Y488079D01*
X559018Y487998D01*
X559039Y487978D01*
X559283Y487795D01*
X559547Y487652D01*
X559812Y487551D01*
X560076Y487469D01*
X560321Y487428D01*
X560504Y487408D01*
X560666D01*
X561053Y487428D01*
X561399Y487489D01*
X561704Y487591D01*
X561948Y487693D01*
X562131Y487815D01*
X562274Y487896D01*
X562375Y487978D01*
X562396Y487998D01*
X562599Y488222D01*
X562762Y488466D01*
X562864Y488690D01*
X562945Y488914D01*
X562986Y489117D01*
X563006Y489259D01*
X563027Y489361D01*
Y489402D01*
X563006Y489687D01*
X562945Y489931D01*
X562864Y490155D01*
X562762Y490358D01*
X562681Y490501D01*
X562599Y490623D01*
X562538Y490704D01*
X562518Y490724D01*
X562294Y490908D01*
X562050Y491070D01*
X561785Y491172D01*
X561541Y491274D01*
X561317Y491335D01*
X561134Y491375D01*
X561012Y491396D01*
X560972D01*
X561297Y494000D01*
X561623Y493959D01*
D02*
G37*
G36*
X607673Y447555D02*
X608263Y447494D01*
X608812Y447412D01*
X609320Y447290D01*
X609789Y447148D01*
X610216Y446985D01*
X610623Y446822D01*
X610969Y446639D01*
X611294Y446476D01*
X611558Y446313D01*
X611803Y446151D01*
X612006Y446008D01*
X612149Y445886D01*
X612271Y445805D01*
X612332Y445744D01*
X612352Y445723D01*
X612698Y445357D01*
X612983Y444971D01*
X613247Y444584D01*
X613451Y444157D01*
X613634Y443750D01*
X613797Y443323D01*
X613919Y442936D01*
X614020Y442529D01*
X614102Y442163D01*
X614163Y441817D01*
X614203Y441512D01*
X614224Y441247D01*
X614244Y441044D01*
X614264Y440881D01*
Y440779D01*
Y440739D01*
X614244Y440169D01*
X614183Y439640D01*
X614081Y439132D01*
X613959Y438664D01*
X613817Y438216D01*
X613654Y437809D01*
X613491Y437443D01*
X613308Y437097D01*
X613125Y436812D01*
X612962Y436548D01*
X612800Y436324D01*
X612657Y436141D01*
X612535Y435978D01*
X612433Y435876D01*
X612372Y435815D01*
X612352Y435795D01*
X611965Y435469D01*
X611558Y435185D01*
X611131Y434920D01*
X610704Y434717D01*
X610256Y434533D01*
X609809Y434371D01*
X609361Y434249D01*
X608934Y434147D01*
X608547Y434086D01*
X608161Y434025D01*
X607835Y433984D01*
X607551Y433943D01*
X607306D01*
X607123Y433923D01*
X606981D01*
X606350Y433943D01*
X605760Y434005D01*
X605211Y434086D01*
X604682Y434208D01*
X604214Y434350D01*
X603766Y434513D01*
X603359Y434676D01*
X603013Y434859D01*
X602688Y435042D01*
X602403Y435205D01*
X602159Y435368D01*
X601955Y435510D01*
X601813Y435612D01*
X601691Y435714D01*
X601630Y435774D01*
X601610Y435795D01*
X601264Y436161D01*
X600959Y436548D01*
X600694Y436954D01*
X600470Y437361D01*
X600287Y437789D01*
X600124Y438196D01*
X600002Y438602D01*
X599901Y438989D01*
X599819Y439355D01*
X599758Y439701D01*
X599717Y440006D01*
X599677Y440271D01*
Y440474D01*
X599656Y440637D01*
Y440739D01*
Y440779D01*
X599677Y441390D01*
X599738Y441980D01*
X599840Y442489D01*
X599941Y442936D01*
X600002Y443119D01*
X600043Y443302D01*
X600084Y443445D01*
X600145Y443567D01*
X600165Y443669D01*
X600206Y443750D01*
X600226Y443791D01*
Y443811D01*
X600389Y444177D01*
X600592Y444523D01*
X600816Y444828D01*
X601020Y445093D01*
X601203Y445317D01*
X601366Y445500D01*
X601467Y445601D01*
X601488Y445622D01*
X601508Y445642D01*
X601833Y445927D01*
X602179Y446191D01*
X602485Y446415D01*
X602790Y446598D01*
X603054Y446741D01*
X603258Y446863D01*
X603339Y446883D01*
X603400Y446924D01*
X603420Y446944D01*
X603441D01*
X604010Y447148D01*
X604621Y447310D01*
X605231Y447412D01*
X605801Y447494D01*
X606065Y447514D01*
X606309Y447534D01*
X606513Y447555D01*
X606696D01*
X606859Y447575D01*
X607062D01*
X607673Y447555D01*
D02*
G37*
G36*
X608283Y431705D02*
X608670D01*
X609015Y431685D01*
X609341Y431665D01*
X609626Y431644D01*
X609890Y431624D01*
X610134Y431583D01*
X610338Y431563D01*
X610521Y431543D01*
X610684Y431522D01*
X610806Y431502D01*
X610908Y431482D01*
X610969D01*
X611009Y431461D01*
X611030D01*
X611335Y431360D01*
X611620Y431258D01*
X611884Y431115D01*
X612108Y430993D01*
X612311Y430871D01*
X612474Y430770D01*
X612556Y430688D01*
X612596Y430668D01*
X612861Y430424D01*
X613105Y430159D01*
X613308Y429874D01*
X613491Y429610D01*
X613634Y429386D01*
X613736Y429183D01*
X613797Y429061D01*
X613817Y429040D01*
Y429020D01*
X613898Y428816D01*
X613959Y428593D01*
X614081Y428084D01*
X614163Y427575D01*
X614203Y427087D01*
X614224Y426863D01*
X614244Y426639D01*
Y426456D01*
X614264Y426273D01*
Y426131D01*
Y426029D01*
Y425968D01*
Y425948D01*
X614244Y425358D01*
X614203Y424829D01*
X614122Y424361D01*
X614041Y423974D01*
X614020Y423811D01*
X613980Y423649D01*
X613939Y423527D01*
X613898Y423425D01*
X613878Y423344D01*
X613858Y423282D01*
X613837Y423262D01*
Y423242D01*
X613675Y422876D01*
X613471Y422550D01*
X613288Y422265D01*
X613105Y422021D01*
X612942Y421838D01*
X612820Y421696D01*
X612739Y421614D01*
X612698Y421594D01*
X612413Y421370D01*
X612108Y421187D01*
X611823Y421044D01*
X611538Y420922D01*
X611294Y420841D01*
X611091Y420780D01*
X611030Y420760D01*
X610969D01*
X610948Y420739D01*
X610928D01*
X610704Y420699D01*
X610460Y420658D01*
X610195Y420617D01*
X609931Y420597D01*
X609320Y420556D01*
X608731Y420516D01*
X608202D01*
X607957Y420495D01*
X599921D01*
Y423344D01*
X608324D01*
X608588Y423364D01*
X608832D01*
X609036Y423384D01*
X609239D01*
X609422Y423405D01*
X609585D01*
X609829Y423445D01*
X610012Y423465D01*
X610114Y423486D01*
X610155D01*
X610419Y423547D01*
X610643Y423649D01*
X610846Y423771D01*
X611030Y423893D01*
X611172Y424015D01*
X611274Y424117D01*
X611335Y424198D01*
X611355Y424218D01*
X611518Y424463D01*
X611640Y424768D01*
X611721Y425052D01*
X611782Y425358D01*
X611823Y425622D01*
X611843Y425826D01*
Y425907D01*
Y425968D01*
Y426009D01*
Y426029D01*
X611823Y426456D01*
X611762Y426823D01*
X611681Y427148D01*
X611579Y427433D01*
X611497Y427636D01*
X611416Y427799D01*
X611355Y427881D01*
X611335Y427921D01*
X611131Y428145D01*
X610887Y428328D01*
X610663Y428491D01*
X610439Y428593D01*
X610236Y428674D01*
X610073Y428735D01*
X609972Y428776D01*
X609931D01*
X609809Y428796D01*
X609687Y428816D01*
X609524D01*
X609341Y428837D01*
X608954Y428857D01*
X608547D01*
X608181Y428877D01*
X599921D01*
Y431726D01*
X607876D01*
X608283Y431705D01*
D02*
G37*
G36*
X602301Y414310D02*
X614000D01*
Y411462D01*
X602301D01*
Y407311D01*
X599921D01*
Y418481D01*
X602301D01*
Y414310D01*
D02*
G37*
G36*
X559792Y482891D02*
X559588Y482668D01*
X559405Y482423D01*
X559263Y482200D01*
X559141Y481976D01*
X559039Y481752D01*
X558876Y481366D01*
X558774Y481020D01*
X558754Y480877D01*
X558734Y480755D01*
X558713Y480653D01*
Y480592D01*
Y480552D01*
Y480531D01*
X558734Y480186D01*
X558815Y479799D01*
X558917Y479412D01*
X559039Y479046D01*
X559161Y478721D01*
X559222Y478578D01*
X559263Y478456D01*
X559303Y478354D01*
X559344Y478273D01*
X559364Y478232D01*
Y478212D01*
X559507Y477866D01*
X559608Y477561D01*
X559710Y477317D01*
X559771Y477113D01*
X559832Y476971D01*
X559873Y476849D01*
X559893Y476788D01*
Y476767D01*
X559954Y476422D01*
X559975Y476259D01*
Y476116D01*
X559995Y475994D01*
Y475913D01*
Y475852D01*
Y475831D01*
X559975Y475506D01*
X559934Y475221D01*
X559873Y474936D01*
X559792Y474692D01*
X559730Y474489D01*
X559669Y474326D01*
X559629Y474224D01*
X559608Y474184D01*
X559446Y473899D01*
X559303Y473655D01*
X559161Y473451D01*
X559018Y473268D01*
X558896Y473126D01*
X558815Y473024D01*
X558754Y472963D01*
X558734Y472943D01*
X556150D01*
X556394Y473207D01*
X556618Y473451D01*
X556780Y473695D01*
X556943Y473899D01*
X557045Y474082D01*
X557126Y474224D01*
X557167Y474306D01*
X557187Y474346D01*
X557289Y474590D01*
X557370Y474835D01*
X557411Y475038D01*
X557452Y475221D01*
X557472Y475364D01*
X557492Y475465D01*
Y475547D01*
Y475567D01*
X557472Y475770D01*
X557411Y476035D01*
X557330Y476340D01*
X557228Y476645D01*
X557147Y476910D01*
X557065Y477134D01*
X557025Y477235D01*
X557004Y477296D01*
X556984Y477337D01*
Y477357D01*
X556801Y477805D01*
X556658Y478192D01*
X556536Y478517D01*
X556455Y478761D01*
X556394Y478965D01*
X556353Y479087D01*
X556333Y479168D01*
Y479188D01*
X556251Y479575D01*
X556231Y479758D01*
Y479941D01*
X556211Y480084D01*
Y480206D01*
Y480287D01*
Y480308D01*
X556231Y480613D01*
X556272Y480897D01*
X556333Y481182D01*
X556414Y481427D01*
X556618Y481915D01*
X556862Y482322D01*
X556984Y482505D01*
X557106Y482668D01*
X557208Y482810D01*
X557309Y482912D01*
X557391Y483013D01*
X557452Y483074D01*
X557492Y483115D01*
X557513Y483135D01*
X560015D01*
X559792Y482891D01*
D02*
G37*
G36*
X512745Y493939D02*
X513050Y493878D01*
X513599Y493675D01*
X514087Y493451D01*
X514291Y493329D01*
X514494Y493186D01*
X514657Y493064D01*
X514800Y492962D01*
X514922Y492840D01*
X515044Y492759D01*
X515125Y492677D01*
X515186Y492617D01*
X515206Y492576D01*
X515227Y492556D01*
X515410Y492311D01*
X515573Y492067D01*
X515715Y491803D01*
X515817Y491538D01*
X516020Y490989D01*
X516142Y490501D01*
X516183Y490256D01*
X516203Y490053D01*
X516224Y489850D01*
X516244Y489687D01*
X516264Y489544D01*
Y489443D01*
Y489382D01*
Y489361D01*
X516244Y488914D01*
X516183Y488486D01*
X516102Y488100D01*
X515980Y487734D01*
X515837Y487388D01*
X515675Y487082D01*
X515512Y486798D01*
X515329Y486533D01*
X515166Y486309D01*
X515003Y486106D01*
X514840Y485923D01*
X514698Y485780D01*
X514576Y485679D01*
X514494Y485597D01*
X514433Y485557D01*
X514413Y485536D01*
X514149Y485353D01*
X513884Y485190D01*
X513620Y485068D01*
X513335Y484946D01*
X512806Y484763D01*
X512318Y484641D01*
X512114Y484600D01*
X511911Y484580D01*
X511727Y484539D01*
X511565D01*
X511443Y484519D01*
X511280D01*
X510893Y484539D01*
X510527Y484580D01*
X510181Y484641D01*
X509856Y484723D01*
X509571Y484804D01*
X509286Y484926D01*
X509021Y485028D01*
X508798Y485150D01*
X508594Y485272D01*
X508411Y485373D01*
X508248Y485496D01*
X508126Y485577D01*
X508025Y485658D01*
X507943Y485719D01*
X507902Y485760D01*
X507882Y485780D01*
X507658Y486025D01*
X507455Y486269D01*
X507272Y486533D01*
X507109Y486798D01*
X506987Y487042D01*
X506885Y487306D01*
X506722Y487774D01*
X506661Y487998D01*
X506621Y488201D01*
X506600Y488385D01*
X506580Y488527D01*
X506560Y488649D01*
Y488751D01*
Y488812D01*
Y488832D01*
X506580Y489178D01*
X506641Y489524D01*
X506702Y489829D01*
X506783Y490114D01*
X506885Y490338D01*
X506946Y490521D01*
X507007Y490643D01*
X507028Y490663D01*
Y490684D01*
X504627Y490256D01*
Y485150D01*
X502104D01*
Y492291D01*
X509449Y493675D01*
X509754Y491497D01*
X509571Y491314D01*
X509408Y491131D01*
X509266Y490948D01*
X509144Y490765D01*
X508960Y490419D01*
X508838Y490094D01*
X508777Y489809D01*
X508737Y489605D01*
X508716Y489524D01*
Y489463D01*
Y489422D01*
Y489402D01*
X508737Y489076D01*
X508818Y488771D01*
X508920Y488507D01*
X509042Y488283D01*
X509184Y488120D01*
X509286Y487978D01*
X509367Y487896D01*
X509388Y487876D01*
X509652Y487673D01*
X509957Y487530D01*
X510283Y487428D01*
X510608Y487367D01*
X510893Y487306D01*
X511117Y487286D01*
X511341D01*
X511829Y487306D01*
X512256Y487367D01*
X512602Y487469D01*
X512887Y487571D01*
X513131Y487693D01*
X513294Y487774D01*
X513375Y487856D01*
X513416Y487876D01*
X513640Y488100D01*
X513823Y488344D01*
X513945Y488588D01*
X514026Y488812D01*
X514067Y489015D01*
X514087Y489178D01*
X514108Y489280D01*
Y489320D01*
X514087Y489585D01*
X514026Y489850D01*
X513945Y490073D01*
X513843Y490256D01*
X513742Y490419D01*
X513660Y490541D01*
X513599Y490623D01*
X513579Y490643D01*
X513355Y490826D01*
X513131Y490989D01*
X512887Y491111D01*
X512663Y491192D01*
X512460Y491253D01*
X512277Y491294D01*
X512175Y491314D01*
X512134D01*
X512419Y494000D01*
X512745Y493939D01*
D02*
G37*
G36*
X510792Y483034D02*
X510588Y482810D01*
X510405Y482566D01*
X510263Y482342D01*
X510140Y482118D01*
X510039Y481894D01*
X509876Y481508D01*
X509774Y481162D01*
X509754Y481020D01*
X509734Y480897D01*
X509713Y480796D01*
Y480735D01*
Y480694D01*
Y480674D01*
X509734Y480328D01*
X509815Y479941D01*
X509917Y479555D01*
X510039Y479188D01*
X510161Y478863D01*
X510222Y478721D01*
X510263Y478599D01*
X510303Y478497D01*
X510344Y478415D01*
X510364Y478375D01*
Y478354D01*
X510507Y478008D01*
X510608Y477703D01*
X510710Y477459D01*
X510771Y477256D01*
X510832Y477113D01*
X510873Y476991D01*
X510893Y476930D01*
Y476910D01*
X510954Y476564D01*
X510975Y476401D01*
Y476259D01*
X510995Y476137D01*
Y476055D01*
Y475994D01*
Y475974D01*
X510975Y475648D01*
X510934Y475364D01*
X510873Y475079D01*
X510792Y474835D01*
X510731Y474631D01*
X510670Y474468D01*
X510629Y474367D01*
X510608Y474326D01*
X510446Y474041D01*
X510303Y473797D01*
X510161Y473593D01*
X510018Y473410D01*
X509896Y473268D01*
X509815Y473166D01*
X509754Y473105D01*
X509734Y473085D01*
X507150D01*
X507394Y473349D01*
X507618Y473593D01*
X507780Y473838D01*
X507943Y474041D01*
X508045Y474224D01*
X508126Y474367D01*
X508167Y474448D01*
X508187Y474489D01*
X508289Y474733D01*
X508371Y474977D01*
X508411Y475181D01*
X508452Y475364D01*
X508472Y475506D01*
X508493Y475608D01*
Y475689D01*
Y475709D01*
X508472Y475913D01*
X508411Y476177D01*
X508330Y476483D01*
X508228Y476788D01*
X508147Y477052D01*
X508065Y477276D01*
X508025Y477378D01*
X508004Y477439D01*
X507984Y477480D01*
Y477500D01*
X507801Y477948D01*
X507658Y478334D01*
X507536Y478660D01*
X507455Y478904D01*
X507394Y479107D01*
X507353Y479229D01*
X507333Y479311D01*
Y479331D01*
X507252Y479717D01*
X507231Y479901D01*
Y480084D01*
X507211Y480226D01*
Y480348D01*
Y480430D01*
Y480450D01*
X507231Y480755D01*
X507272Y481040D01*
X507333Y481325D01*
X507414Y481569D01*
X507618Y482057D01*
X507862Y482464D01*
X507984Y482647D01*
X508106Y482810D01*
X508208Y482952D01*
X508309Y483054D01*
X508391Y483156D01*
X508452Y483217D01*
X508493Y483258D01*
X508513Y483278D01*
X511015D01*
X510792Y483034D01*
D02*
G37*
G36*
X217172Y462981D02*
X220000D01*
Y460376D01*
X217172D01*
Y458627D01*
X214812D01*
Y460376D01*
X205860D01*
Y462655D01*
X214832Y468759D01*
X217172D01*
Y462981D01*
D02*
G37*
G36*
X220244Y456206D02*
X205677Y452686D01*
Y454720D01*
X220244Y458199D01*
Y456206D01*
D02*
G37*
G36*
X536172Y489222D02*
X539000D01*
Y486618D01*
X536172D01*
Y484868D01*
X533812D01*
Y486618D01*
X524860D01*
Y488896D01*
X533832Y495000D01*
X536172D01*
Y489222D01*
D02*
G37*
G36*
X533792Y483525D02*
X533588Y483301D01*
X533405Y483057D01*
X533263Y482833D01*
X533140Y482610D01*
X533039Y482386D01*
X532876Y481999D01*
X532774Y481653D01*
X532754Y481511D01*
X532734Y481389D01*
X532713Y481287D01*
Y481226D01*
Y481185D01*
Y481165D01*
X532734Y480819D01*
X532815Y480433D01*
X532917Y480046D01*
X533039Y479680D01*
X533161Y479354D01*
X533222Y479212D01*
X533263Y479090D01*
X533303Y478988D01*
X533344Y478907D01*
X533364Y478866D01*
Y478846D01*
X533507Y478500D01*
X533609Y478195D01*
X533710Y477951D01*
X533771Y477747D01*
X533832Y477605D01*
X533873Y477483D01*
X533893Y477421D01*
Y477401D01*
X533954Y477055D01*
X533975Y476893D01*
Y476750D01*
X533995Y476628D01*
Y476547D01*
Y476486D01*
Y476465D01*
X533975Y476140D01*
X533934Y475855D01*
X533873Y475570D01*
X533792Y475326D01*
X533731Y475122D01*
X533670Y474960D01*
X533629Y474858D01*
X533609Y474817D01*
X533446Y474533D01*
X533303Y474288D01*
X533161Y474085D01*
X533018Y473902D01*
X532896Y473759D01*
X532815Y473658D01*
X532754Y473597D01*
X532734Y473576D01*
X530150D01*
X530394Y473841D01*
X530618Y474085D01*
X530780Y474329D01*
X530943Y474533D01*
X531045Y474716D01*
X531126Y474858D01*
X531167Y474939D01*
X531187Y474980D01*
X531289Y475224D01*
X531371Y475468D01*
X531411Y475672D01*
X531452Y475855D01*
X531472Y475997D01*
X531493Y476099D01*
Y476180D01*
Y476201D01*
X531472Y476404D01*
X531411Y476669D01*
X531330Y476974D01*
X531228Y477279D01*
X531147Y477544D01*
X531065Y477767D01*
X531025Y477869D01*
X531004Y477930D01*
X530984Y477971D01*
Y477991D01*
X530801Y478439D01*
X530658Y478825D01*
X530536Y479151D01*
X530455Y479395D01*
X530394Y479599D01*
X530353Y479721D01*
X530333Y479802D01*
Y479822D01*
X530252Y480209D01*
X530231Y480392D01*
Y480575D01*
X530211Y480718D01*
Y480840D01*
Y480921D01*
Y480941D01*
X530231Y481246D01*
X530272Y481531D01*
X530333Y481816D01*
X530414Y482060D01*
X530618Y482549D01*
X530862Y482956D01*
X530984Y483139D01*
X531106Y483301D01*
X531208Y483444D01*
X531309Y483545D01*
X531391Y483647D01*
X531452Y483708D01*
X531493Y483749D01*
X531513Y483769D01*
X534015D01*
X533792Y483525D01*
D02*
G37*
G36*
X641000Y460796D02*
X636239Y457663D01*
X641000Y454550D01*
Y451132D01*
X633676Y455974D01*
X626921Y451559D01*
Y454876D01*
X631133Y457663D01*
X626921Y460450D01*
Y463767D01*
X633676Y459352D01*
X641000Y464214D01*
Y460796D01*
D02*
G37*
G36*
X636748Y450013D02*
X637582Y449932D01*
X638355Y449810D01*
X638721Y449749D01*
X639067Y449667D01*
X639372Y449606D01*
X639657Y449545D01*
X639901Y449484D01*
X640125Y449423D01*
X640288Y449362D01*
X640430Y449342D01*
X640512Y449301D01*
X640532D01*
X641407Y448976D01*
X642261Y448630D01*
X642648Y448426D01*
X643035Y448243D01*
X643401Y448060D01*
X643726Y447877D01*
X644032Y447714D01*
X644316Y447551D01*
X644560Y447409D01*
X644764Y447287D01*
X644927Y447185D01*
X645049Y447104D01*
X645130Y447063D01*
X645150Y447043D01*
Y445191D01*
X644805Y445354D01*
X644499Y445496D01*
X644194Y445619D01*
X643930Y445741D01*
X643665Y445842D01*
X643441Y445944D01*
X643238Y446026D01*
X643035Y446107D01*
X642872Y446188D01*
X642729Y446229D01*
X642607Y446290D01*
X642505Y446331D01*
X642424Y446351D01*
X642363Y446371D01*
X642343Y446392D01*
X642322D01*
X641773Y446575D01*
X641224Y446738D01*
X640695Y446860D01*
X640207Y446982D01*
X640003Y447022D01*
X639800Y447063D01*
X639637Y447104D01*
X639494Y447124D01*
X639372Y447165D01*
X639291D01*
X639230Y447185D01*
X639210D01*
X638599Y447287D01*
X638009Y447348D01*
X637460Y447409D01*
X636972Y447429D01*
X636748Y447450D01*
X636565D01*
X636382Y447470D01*
X635975D01*
X635120Y447450D01*
X634327Y447389D01*
X633940Y447348D01*
X633594Y447307D01*
X633248Y447267D01*
X632943Y447226D01*
X632658Y447185D01*
X632414Y447145D01*
X632190Y447104D01*
X631987Y447063D01*
X631845Y447022D01*
X631722Y447002D01*
X631661Y446982D01*
X631641D01*
X631255Y446880D01*
X630848Y446758D01*
X630014Y446493D01*
X629179Y446188D01*
X628772Y446046D01*
X628386Y445883D01*
X628040Y445741D01*
X627714Y445619D01*
X627409Y445496D01*
X627165Y445374D01*
X626962Y445293D01*
X626799Y445232D01*
X626717Y445191D01*
X626677Y445171D01*
Y447022D01*
X627369Y447470D01*
X628081Y447897D01*
X628752Y448243D01*
X629057Y448406D01*
X629362Y448548D01*
X629627Y448670D01*
X629891Y448792D01*
X630115Y448894D01*
X630298Y448976D01*
X630461Y449037D01*
X630563Y449077D01*
X630644Y449118D01*
X630664D01*
X631133Y449281D01*
X631600Y449423D01*
X632516Y449667D01*
X633411Y449830D01*
X633818Y449891D01*
X634205Y449932D01*
X634571Y449972D01*
X634896Y450013D01*
X635201Y450034D01*
X635446D01*
X635649Y450054D01*
X635914D01*
X636748Y450013D01*
D02*
G37*
G36*
X641000Y440349D02*
X626921D01*
Y443198D01*
X641000D01*
Y440349D01*
D02*
G37*
G36*
X220000Y432808D02*
X219980Y432259D01*
X219959Y431750D01*
X219919Y431323D01*
X219858Y430977D01*
X219797Y430692D01*
X219756Y430469D01*
X219736Y430408D01*
Y430347D01*
X219715Y430326D01*
Y430306D01*
X219552Y429858D01*
X219369Y429451D01*
X219186Y429126D01*
X219003Y428841D01*
X218840Y428617D01*
X218718Y428455D01*
X218637Y428353D01*
X218596Y428312D01*
X218210Y427966D01*
X217803Y427661D01*
X217375Y427397D01*
X216989Y427193D01*
X216623Y427030D01*
X216480Y426949D01*
X216358Y426908D01*
X216236Y426867D01*
X216155Y426827D01*
X216114Y426806D01*
X216094D01*
X215605Y426664D01*
X215097Y426542D01*
X214608Y426461D01*
X214140Y426420D01*
X213917Y426400D01*
X213713Y426379D01*
X213550D01*
X213388Y426359D01*
X213103D01*
X212391Y426379D01*
X211760Y426440D01*
X211455Y426461D01*
X211190Y426501D01*
X210926Y426542D01*
X210702Y426583D01*
X210499Y426644D01*
X210316Y426684D01*
X210153Y426725D01*
X210031Y426745D01*
X209929Y426786D01*
X209848Y426806D01*
X209807Y426827D01*
X209787D01*
X209298Y427010D01*
X208851Y427234D01*
X208464Y427458D01*
X208139Y427681D01*
X207874Y427864D01*
X207671Y428027D01*
X207549Y428129D01*
X207508Y428149D01*
Y428170D01*
X207182Y428516D01*
X206918Y428861D01*
X206694Y429228D01*
X206511Y429553D01*
X206369Y429838D01*
X206267Y430082D01*
X206246Y430163D01*
X206226Y430224D01*
X206206Y430265D01*
Y430286D01*
X206104Y430672D01*
X206043Y431099D01*
X205982Y431547D01*
X205962Y431974D01*
X205941Y432361D01*
X205921Y432523D01*
Y432686D01*
Y432808D01*
Y432890D01*
Y432951D01*
Y432971D01*
Y438139D01*
X220000D01*
Y432808D01*
D02*
G37*
G36*
X634774Y493980D02*
X635446Y493939D01*
X636076Y493878D01*
X636646Y493797D01*
X637155Y493715D01*
X637623Y493613D01*
X638030Y493491D01*
X638396Y493369D01*
X638701Y493268D01*
X638986Y493145D01*
X639210Y493044D01*
X639393Y492942D01*
X639515Y492881D01*
X639617Y492820D01*
X639678Y492779D01*
X639698Y492759D01*
X639983Y492515D01*
X640207Y492250D01*
X640430Y491986D01*
X640593Y491701D01*
X640756Y491437D01*
X640878Y491152D01*
X640980Y490887D01*
X641061Y490623D01*
X641142Y490378D01*
X641183Y490155D01*
X641224Y489951D01*
X641244Y489789D01*
Y489646D01*
X641264Y489524D01*
Y489463D01*
Y489443D01*
X641244Y489076D01*
X641203Y488731D01*
X641122Y488385D01*
X641041Y488079D01*
X640939Y487795D01*
X640817Y487530D01*
X640675Y487306D01*
X640532Y487082D01*
X640410Y486899D01*
X640268Y486716D01*
X640145Y486574D01*
X640044Y486452D01*
X639962Y486371D01*
X639881Y486309D01*
X639840Y486269D01*
X639820Y486248D01*
X639474Y486004D01*
X639067Y485801D01*
X638640Y485597D01*
X638172Y485455D01*
X637704Y485312D01*
X637236Y485211D01*
X636748Y485109D01*
X636280Y485028D01*
X635832Y484987D01*
X635425Y484946D01*
X635039Y484906D01*
X634713Y484885D01*
X634449Y484865D01*
X634062D01*
X633330Y484885D01*
X632658Y484926D01*
X632048Y484987D01*
X631478Y485089D01*
X630949Y485190D01*
X630481Y485292D01*
X630054Y485435D01*
X629688Y485557D01*
X629342Y485679D01*
X629078Y485801D01*
X628833Y485923D01*
X628630Y486025D01*
X628488Y486126D01*
X628386Y486187D01*
X628325Y486228D01*
X628304Y486248D01*
X628040Y486472D01*
X627816Y486716D01*
X627633Y486981D01*
X627450Y487245D01*
X627308Y487510D01*
X627206Y487774D01*
X627104Y488018D01*
X627023Y488283D01*
X626962Y488527D01*
X626921Y488731D01*
X626880Y488934D01*
X626860Y489097D01*
X626840Y489239D01*
Y489361D01*
Y489422D01*
Y489443D01*
X626860Y489809D01*
X626901Y490155D01*
X626982Y490501D01*
X627063Y490806D01*
X627186Y491091D01*
X627308Y491355D01*
X627430Y491579D01*
X627572Y491803D01*
X627714Y491986D01*
X627836Y492169D01*
X627959Y492311D01*
X628081Y492413D01*
X628162Y492515D01*
X628243Y492576D01*
X628284Y492617D01*
X628304Y492637D01*
X628650Y492881D01*
X629057Y493084D01*
X629484Y493268D01*
X629932Y493430D01*
X630400Y493552D01*
X630888Y493675D01*
X631356Y493756D01*
X631824Y493837D01*
X632272Y493878D01*
X632679Y493919D01*
X633065Y493959D01*
X633391Y493980D01*
X633655Y494000D01*
X634042D01*
X634774Y493980D01*
D02*
G37*
G36*
X641000Y474123D02*
X635120D01*
Y473553D01*
Y473207D01*
X635140Y472922D01*
X635161Y472678D01*
X635201Y472475D01*
X635222Y472312D01*
X635263Y472210D01*
X635283Y472149D01*
Y472129D01*
X635364Y471966D01*
X635446Y471803D01*
X635547Y471661D01*
X635629Y471518D01*
X635731Y471417D01*
X635812Y471335D01*
X635853Y471295D01*
X635873Y471274D01*
X635975Y471193D01*
X636076Y471091D01*
X636382Y470867D01*
X636707Y470623D01*
X637073Y470359D01*
X637399Y470135D01*
X637562Y470033D01*
X637684Y469952D01*
X637785Y469870D01*
X637867Y469809D01*
X637928Y469789D01*
X637948Y469769D01*
X641000Y467734D01*
Y464316D01*
X638253Y466045D01*
X637968Y466228D01*
X637684Y466412D01*
X637439Y466574D01*
X637216Y466737D01*
X637012Y466880D01*
X636809Y467002D01*
X636504Y467246D01*
X636259Y467429D01*
X636097Y467551D01*
X635995Y467653D01*
X635975Y467673D01*
X635731Y467897D01*
X635507Y468161D01*
X635324Y468405D01*
X635140Y468650D01*
X634998Y468853D01*
X634896Y469016D01*
X634815Y469138D01*
X634795Y469158D01*
Y469179D01*
X634734Y468833D01*
X634652Y468527D01*
X634571Y468243D01*
X634469Y467958D01*
X634367Y467714D01*
X634266Y467490D01*
X634164Y467266D01*
X634042Y467083D01*
X633940Y466920D01*
X633838Y466778D01*
X633737Y466656D01*
X633655Y466574D01*
X633594Y466493D01*
X633533Y466432D01*
X633513Y466412D01*
X633493Y466391D01*
X633289Y466228D01*
X633086Y466086D01*
X632638Y465842D01*
X632211Y465679D01*
X631783Y465578D01*
X631417Y465496D01*
X631275Y465476D01*
X631133D01*
X631031Y465455D01*
X630868D01*
X630420Y465476D01*
X629993Y465557D01*
X629627Y465659D01*
X629301Y465761D01*
X629037Y465883D01*
X628833Y465984D01*
X628772Y466025D01*
X628711Y466066D01*
X628691Y466086D01*
X628671D01*
X628325Y466330D01*
X628040Y466595D01*
X627816Y466859D01*
X627613Y467124D01*
X627491Y467368D01*
X627389Y467551D01*
X627328Y467673D01*
X627308Y467693D01*
Y467714D01*
X627247Y467917D01*
X627186Y468141D01*
X627084Y468650D01*
X627023Y469199D01*
X626962Y469728D01*
Y469992D01*
X626941Y470216D01*
Y470440D01*
X626921Y470623D01*
Y470765D01*
Y470888D01*
Y470969D01*
Y470989D01*
Y476971D01*
X641000D01*
Y474123D01*
D02*
G37*
G36*
Y434998D02*
X631722D01*
X641000Y429281D01*
Y426433D01*
X626921D01*
Y429058D01*
X636402D01*
X626921Y434876D01*
Y437623D01*
X641000D01*
Y434998D01*
D02*
G37*
G36*
X614000Y464685D02*
X609239Y461552D01*
X614000Y458439D01*
Y455021D01*
X606676Y459864D01*
X599921Y455448D01*
Y458765D01*
X604132Y461552D01*
X599921Y464339D01*
Y467656D01*
X606676Y463241D01*
X614000Y468103D01*
Y464685D01*
D02*
G37*
G36*
X609748Y453902D02*
X610582Y453821D01*
X611355Y453699D01*
X611721Y453638D01*
X612067Y453556D01*
X612372Y453495D01*
X612657Y453434D01*
X612901Y453373D01*
X613125Y453312D01*
X613288Y453251D01*
X613430Y453231D01*
X613512Y453190D01*
X613532D01*
X614407Y452865D01*
X615261Y452519D01*
X615648Y452315D01*
X616035Y452132D01*
X616401Y451949D01*
X616726Y451766D01*
X617032Y451603D01*
X617316Y451441D01*
X617560Y451298D01*
X617764Y451176D01*
X617927Y451074D01*
X618049Y450993D01*
X618130Y450952D01*
X618150Y450932D01*
Y449080D01*
X617805Y449243D01*
X617499Y449386D01*
X617194Y449508D01*
X616930Y449630D01*
X616665Y449731D01*
X616441Y449833D01*
X616238Y449915D01*
X616035Y449996D01*
X615872Y450077D01*
X615729Y450118D01*
X615607Y450179D01*
X615506Y450220D01*
X615424Y450240D01*
X615363Y450260D01*
X615343Y450281D01*
X615322D01*
X614773Y450464D01*
X614224Y450627D01*
X613695Y450749D01*
X613206Y450871D01*
X613003Y450911D01*
X612800Y450952D01*
X612637Y450993D01*
X612494Y451013D01*
X612372Y451054D01*
X612291D01*
X612230Y451074D01*
X612210D01*
X611599Y451176D01*
X611009Y451237D01*
X610460Y451298D01*
X609972Y451318D01*
X609748Y451339D01*
X609565D01*
X609382Y451359D01*
X608975D01*
X608120Y451339D01*
X607327Y451278D01*
X606940Y451237D01*
X606594Y451196D01*
X606248Y451156D01*
X605943Y451115D01*
X605658Y451074D01*
X605414Y451034D01*
X605190Y450993D01*
X604987Y450952D01*
X604845Y450911D01*
X604723Y450891D01*
X604661Y450871D01*
X604641D01*
X604254Y450769D01*
X603848Y450647D01*
X603013Y450382D01*
X602179Y450077D01*
X601772Y449935D01*
X601386Y449772D01*
X601040Y449630D01*
X600714Y449508D01*
X600409Y449386D01*
X600165Y449263D01*
X599962Y449182D01*
X599799Y449121D01*
X599717Y449080D01*
X599677Y449060D01*
Y450911D01*
X600369Y451359D01*
X601081Y451786D01*
X601752Y452132D01*
X602057Y452295D01*
X602362Y452437D01*
X602627Y452560D01*
X602891Y452682D01*
X603115Y452783D01*
X603298Y452865D01*
X603461Y452926D01*
X603563Y452966D01*
X603644Y453007D01*
X603665D01*
X604132Y453170D01*
X604600Y453312D01*
X605516Y453556D01*
X606411Y453719D01*
X606818Y453780D01*
X607205Y453821D01*
X607571Y453862D01*
X607896Y453902D01*
X608202Y453923D01*
X608446D01*
X608649Y453943D01*
X608914D01*
X609748Y453902D01*
D02*
G37*
G36*
X215849Y451953D02*
X216256Y451872D01*
X216643Y451750D01*
X216989Y451648D01*
X217314Y451506D01*
X217620Y451363D01*
X217884Y451221D01*
X218128Y451078D01*
X218332Y450936D01*
X218515Y450794D01*
X218678Y450672D01*
X218820Y450550D01*
X218922Y450468D01*
X218983Y450387D01*
X219023Y450346D01*
X219044Y450326D01*
X219268Y450041D01*
X219451Y449736D01*
X219613Y449410D01*
X219756Y449064D01*
X219858Y448739D01*
X219959Y448393D01*
X220102Y447722D01*
X220163Y447416D01*
X220203Y447132D01*
X220224Y446887D01*
X220244Y446664D01*
X220264Y446480D01*
Y446338D01*
Y446236D01*
Y446216D01*
X220244Y445565D01*
X220183Y444975D01*
X220102Y444446D01*
X220061Y444222D01*
X220000Y443998D01*
X219959Y443815D01*
X219919Y443652D01*
X219878Y443510D01*
X219837Y443388D01*
X219797Y443286D01*
X219776Y443225D01*
X219756Y443185D01*
Y443164D01*
X219532Y442717D01*
X219288Y442350D01*
X219044Y442005D01*
X218779Y441740D01*
X218556Y441537D01*
X218352Y441374D01*
X218230Y441292D01*
X218210Y441252D01*
X218189D01*
X217782Y441028D01*
X217396Y440845D01*
X217009Y440723D01*
X216643Y440641D01*
X216358Y440601D01*
X216216Y440580D01*
X216114Y440560D01*
X215911D01*
X215422Y440580D01*
X214995Y440641D01*
X214608Y440743D01*
X214283Y440845D01*
X214018Y440947D01*
X213835Y441048D01*
X213713Y441109D01*
X213673Y441130D01*
X213347Y441353D01*
X213062Y441618D01*
X212818Y441882D01*
X212615Y442127D01*
X212452Y442350D01*
X212330Y442533D01*
X212248Y442656D01*
X212228Y442676D01*
Y442696D01*
X212126Y442900D01*
X212025Y443103D01*
X211842Y443591D01*
X211679Y444100D01*
X211516Y444588D01*
X211455Y444812D01*
X211394Y445036D01*
X211333Y445239D01*
X211292Y445402D01*
X211252Y445545D01*
X211231Y445646D01*
X211211Y445728D01*
Y445748D01*
X211109Y446114D01*
X211028Y446440D01*
X210946Y446745D01*
X210865Y447030D01*
X210784Y447254D01*
X210702Y447477D01*
X210621Y447660D01*
X210560Y447823D01*
X210499Y447966D01*
X210438Y448067D01*
X210397Y448169D01*
X210356Y448230D01*
X210295Y448332D01*
X210275Y448352D01*
X210133Y448495D01*
X209990Y448596D01*
X209848Y448657D01*
X209705Y448698D01*
X209604Y448739D01*
X209502Y448759D01*
X209420D01*
X209217Y448739D01*
X209054Y448698D01*
X208891Y448617D01*
X208769Y448535D01*
X208668Y448454D01*
X208607Y448373D01*
X208566Y448332D01*
X208545Y448312D01*
X208362Y448027D01*
X208240Y447722D01*
X208139Y447396D01*
X208078Y447091D01*
X208037Y446826D01*
X208017Y446603D01*
Y446521D01*
Y446460D01*
Y446419D01*
Y446399D01*
X208037Y445972D01*
X208098Y445606D01*
X208179Y445300D01*
X208261Y445056D01*
X208342Y444853D01*
X208424Y444710D01*
X208484Y444629D01*
X208505Y444609D01*
X208708Y444405D01*
X208952Y444222D01*
X209197Y444080D01*
X209461Y443978D01*
X209685Y443897D01*
X209868Y443856D01*
X210010Y443815D01*
X210051D01*
X209949Y440967D01*
X209583Y440987D01*
X209258Y441048D01*
X208932Y441130D01*
X208647Y441231D01*
X208362Y441333D01*
X208098Y441455D01*
X207874Y441577D01*
X207650Y441699D01*
X207467Y441842D01*
X207304Y441964D01*
X207162Y442086D01*
X207040Y442188D01*
X206959Y442269D01*
X206898Y442330D01*
X206857Y442371D01*
X206836Y442391D01*
X206633Y442656D01*
X206450Y442940D01*
X206287Y443246D01*
X206145Y443571D01*
X206043Y443897D01*
X205941Y444222D01*
X205799Y444873D01*
X205758Y445178D01*
X205718Y445443D01*
X205697Y445707D01*
X205677Y445931D01*
X205657Y446114D01*
Y446236D01*
Y446318D01*
Y446358D01*
X205677Y446948D01*
X205738Y447477D01*
X205819Y447945D01*
X205901Y448352D01*
X205962Y448535D01*
X206002Y448698D01*
X206043Y448820D01*
X206084Y448942D01*
X206124Y449024D01*
X206145Y449085D01*
X206165Y449125D01*
Y449146D01*
X206369Y449553D01*
X206592Y449898D01*
X206836Y450204D01*
X207060Y450448D01*
X207264Y450651D01*
X207426Y450773D01*
X207549Y450875D01*
X207569Y450895D01*
X207589D01*
X207935Y451099D01*
X208301Y451241D01*
X208647Y451343D01*
X208952Y451404D01*
X209217Y451445D01*
X209420Y451485D01*
X209604D01*
X209909Y451465D01*
X210214Y451424D01*
X210478Y451363D01*
X210743Y451282D01*
X211231Y451078D01*
X211658Y450834D01*
X211842Y450733D01*
X211984Y450611D01*
X212126Y450509D01*
X212248Y450407D01*
X212330Y450326D01*
X212391Y450265D01*
X212432Y450224D01*
X212452Y450204D01*
X212594Y450021D01*
X212737Y449797D01*
X212879Y449573D01*
X213001Y449309D01*
X213245Y448800D01*
X213449Y448271D01*
X213530Y448006D01*
X213612Y447783D01*
X213673Y447559D01*
X213734Y447376D01*
X213774Y447233D01*
X213815Y447111D01*
X213835Y447030D01*
Y447010D01*
X213917Y446684D01*
X213998Y446399D01*
X214059Y446135D01*
X214120Y445891D01*
X214181Y445687D01*
X214222Y445504D01*
X214283Y445341D01*
X214324Y445199D01*
X214344Y445077D01*
X214385Y444975D01*
X214425Y444832D01*
X214466Y444751D01*
Y444731D01*
X214568Y444466D01*
X214669Y444263D01*
X214771Y444080D01*
X214873Y443937D01*
X214954Y443836D01*
X215015Y443775D01*
X215056Y443734D01*
X215076Y443713D01*
X215219Y443612D01*
X215361Y443530D01*
X215504Y443490D01*
X215626Y443449D01*
X215748Y443429D01*
X215849Y443408D01*
X215931D01*
X216216Y443429D01*
X216460Y443510D01*
X216704Y443632D01*
X216908Y443754D01*
X217070Y443897D01*
X217192Y443998D01*
X217274Y444080D01*
X217294Y444120D01*
X217477Y444405D01*
X217620Y444731D01*
X217721Y445077D01*
X217782Y445402D01*
X217823Y445707D01*
X217864Y445951D01*
Y446053D01*
Y446114D01*
Y446155D01*
Y446175D01*
X217843Y446643D01*
X217762Y447050D01*
X217660Y447396D01*
X217538Y447701D01*
X217416Y447945D01*
X217314Y448108D01*
X217233Y448210D01*
X217213Y448251D01*
X216928Y448515D01*
X216623Y448718D01*
X216277Y448902D01*
X215931Y449024D01*
X215626Y449125D01*
X215382Y449207D01*
X215300Y449227D01*
X215219D01*
X215178Y449248D01*
X215158D01*
X215422Y452014D01*
X215849Y451953D01*
D02*
G37*
G36*
X627206Y423971D02*
X627735Y423768D01*
X628223Y423564D01*
X628691Y423381D01*
X629118Y423218D01*
X629525Y423076D01*
X629912Y422954D01*
X630258Y422832D01*
X630563Y422730D01*
X630848Y422649D01*
X631071Y422567D01*
X631275Y422527D01*
X631438Y422486D01*
X631539Y422445D01*
X631621Y422425D01*
X631641D01*
X632414Y422262D01*
X633167Y422140D01*
X633899Y422038D01*
X634245Y421998D01*
X634571Y421977D01*
X634876Y421957D01*
X635140Y421937D01*
X635385D01*
X635588Y421916D01*
X636382D01*
X636788Y421937D01*
X637155Y421957D01*
X637501Y421977D01*
X637765Y422018D01*
X637989Y422038D01*
X638070D01*
X638131Y422059D01*
X638172D01*
X638965Y422181D01*
X639352Y422262D01*
X639698Y422323D01*
X640003Y422384D01*
X640227Y422445D01*
X640308Y422466D01*
X640369D01*
X640410Y422486D01*
X640430D01*
X640858Y422588D01*
X641244Y422689D01*
X641610Y422791D01*
X641916Y422873D01*
X642160Y422954D01*
X642343Y423015D01*
X642465Y423056D01*
X642485Y423076D01*
X642505D01*
X642872Y423218D01*
X643299Y423381D01*
X643747Y423564D01*
X644174Y423747D01*
X644560Y423930D01*
X644723Y423992D01*
X644866Y424073D01*
X644988Y424114D01*
X645069Y424154D01*
X645130Y424195D01*
X645150D01*
Y422323D01*
X644682Y422018D01*
X644215Y421754D01*
X643747Y421509D01*
X643299Y421265D01*
X642851Y421062D01*
X642445Y420858D01*
X642038Y420695D01*
X641671Y420533D01*
X641326Y420390D01*
X641020Y420289D01*
X640756Y420187D01*
X640512Y420106D01*
X640329Y420044D01*
X640207Y420004D01*
X640105Y419963D01*
X640084D01*
X639230Y419760D01*
X638437Y419597D01*
X638070Y419536D01*
X637704Y419495D01*
X637379Y419434D01*
X637073Y419414D01*
X636788Y419393D01*
X636524Y419373D01*
X636300Y419353D01*
X636117Y419332D01*
X635771D01*
X634876Y419373D01*
X634042Y419454D01*
X633635Y419515D01*
X633228Y419597D01*
X632862Y419658D01*
X632536Y419739D01*
X632211Y419821D01*
X631926Y419882D01*
X631682Y419963D01*
X631478Y420024D01*
X631295Y420065D01*
X631173Y420106D01*
X631092Y420146D01*
X631071D01*
X630217Y420472D01*
X629403Y420838D01*
X629016Y421021D01*
X628671Y421204D01*
X628325Y421387D01*
X627999Y421570D01*
X627714Y421733D01*
X627450Y421875D01*
X627226Y422018D01*
X627043Y422140D01*
X626880Y422242D01*
X626779Y422323D01*
X626697Y422364D01*
X626677Y422384D01*
Y424215D01*
X627206Y423971D01*
D02*
G37*
G36*
X605557Y494268D02*
X605252Y493616D01*
X605089Y493311D01*
X604906Y493027D01*
X604743Y492762D01*
X604580Y492518D01*
X604417Y492294D01*
X604275Y492091D01*
X604153Y491928D01*
X604031Y491785D01*
X603929Y491663D01*
X603868Y491582D01*
X603827Y491541D01*
X603807Y491521D01*
X614000D01*
Y488815D01*
X599840D01*
Y491012D01*
X600308Y491216D01*
X600735Y491480D01*
X601142Y491765D01*
X601467Y492050D01*
X601732Y492294D01*
X601935Y492518D01*
X602017Y492599D01*
X602078Y492660D01*
X602098Y492701D01*
X602118Y492721D01*
X602444Y493169D01*
X602729Y493596D01*
X602952Y493983D01*
X603115Y494329D01*
X603237Y494613D01*
X603339Y494817D01*
X603359Y494898D01*
X603380Y494959D01*
X603400Y494980D01*
Y495000D01*
X605841D01*
X605557Y494268D01*
D02*
G37*
G36*
X602301Y475509D02*
X614000D01*
Y472661D01*
X602301D01*
Y468510D01*
X599921D01*
Y479680D01*
X602301D01*
Y475509D01*
D02*
G37*
G36*
X287557Y497268D02*
X287251Y496617D01*
X287089Y496311D01*
X286906Y496026D01*
X286743Y495762D01*
X286580Y495518D01*
X286417Y495294D01*
X286275Y495091D01*
X286153Y494928D01*
X286031Y494785D01*
X285929Y494663D01*
X285868Y494582D01*
X285827Y494541D01*
X285807Y494521D01*
X296000D01*
Y491815D01*
X281840D01*
Y494012D01*
X282307Y494216D01*
X282735Y494480D01*
X283142Y494765D01*
X283467Y495050D01*
X283732Y495294D01*
X283935Y495518D01*
X284017Y495599D01*
X284078Y495660D01*
X284098Y495701D01*
X284118Y495721D01*
X284444Y496169D01*
X284729Y496596D01*
X284952Y496983D01*
X285115Y497329D01*
X285237Y497613D01*
X285339Y497817D01*
X285359Y497898D01*
X285380Y497959D01*
X285400Y497980D01*
Y498000D01*
X287841D01*
X287557Y497268D01*
D02*
G37*
G36*
X292623Y487827D02*
X292928Y487746D01*
X293498Y487563D01*
X293986Y487339D01*
X294189Y487197D01*
X294393Y487075D01*
X294576Y486952D01*
X294718Y486830D01*
X294861Y486729D01*
X294962Y486627D01*
X295044Y486545D01*
X295105Y486484D01*
X295145Y486444D01*
X295166Y486423D01*
X295349Y486179D01*
X295532Y485915D01*
X295674Y485671D01*
X295797Y485386D01*
X296000Y484857D01*
X296122Y484369D01*
X296163Y484124D01*
X296203Y483921D01*
X296224Y483738D01*
X296244Y483575D01*
X296264Y483433D01*
Y483331D01*
Y483270D01*
Y483250D01*
X296244Y482883D01*
X296203Y482517D01*
X296142Y482192D01*
X296061Y481866D01*
X295959Y481581D01*
X295858Y481296D01*
X295735Y481032D01*
X295613Y480808D01*
X295491Y480605D01*
X295369Y480401D01*
X295268Y480259D01*
X295166Y480116D01*
X295084Y480015D01*
X295023Y479933D01*
X294983Y479893D01*
X294962Y479872D01*
X294718Y479628D01*
X294454Y479425D01*
X294189Y479241D01*
X293925Y479079D01*
X293640Y478957D01*
X293375Y478835D01*
X292887Y478672D01*
X292663Y478631D01*
X292439Y478591D01*
X292256Y478550D01*
X292094Y478529D01*
X291972Y478509D01*
X291789D01*
X291321Y478550D01*
X290914Y478631D01*
X290527Y478733D01*
X290222Y478875D01*
X289957Y479018D01*
X289774Y479119D01*
X289652Y479201D01*
X289611Y479241D01*
X289306Y479526D01*
X289042Y479852D01*
X288838Y480177D01*
X288676Y480483D01*
X288554Y480747D01*
X288493Y480971D01*
X288452Y481052D01*
Y481113D01*
X288431Y481154D01*
Y481174D01*
X288208Y480808D01*
X287984Y480503D01*
X287740Y480238D01*
X287496Y479994D01*
X287251Y479791D01*
X287007Y479628D01*
X286763Y479506D01*
X286539Y479384D01*
X286316Y479303D01*
X286112Y479241D01*
X285929Y479201D01*
X285766Y479180D01*
X285644Y479160D01*
X285543Y479140D01*
X285461D01*
X285217Y479160D01*
X284993Y479180D01*
X284545Y479303D01*
X284139Y479445D01*
X283793Y479628D01*
X283508Y479811D01*
X283305Y479974D01*
X283223Y480035D01*
X283162Y480096D01*
X283142Y480116D01*
X283121Y480137D01*
X282898Y480360D01*
X282694Y480625D01*
X282531Y480869D01*
X282389Y481134D01*
X282246Y481418D01*
X282145Y481683D01*
X282002Y482192D01*
X281941Y482415D01*
X281901Y482639D01*
X281880Y482822D01*
X281860Y483005D01*
X281840Y483148D01*
Y483250D01*
Y483311D01*
Y483331D01*
X281860Y483758D01*
X281901Y484145D01*
X281982Y484511D01*
X282063Y484816D01*
X282145Y485060D01*
X282226Y485264D01*
X282267Y485386D01*
X282287Y485406D01*
Y485426D01*
X282470Y485752D01*
X282674Y486057D01*
X282877Y486301D01*
X283060Y486505D01*
X283243Y486668D01*
X283386Y486790D01*
X283467Y486871D01*
X283508Y486891D01*
X283813Y487075D01*
X284139Y487237D01*
X284485Y487359D01*
X284810Y487481D01*
X285115Y487563D01*
X285339Y487624D01*
X285441Y487644D01*
X285502D01*
X285543Y487664D01*
X285563D01*
X285970Y485182D01*
X285644Y485121D01*
X285359Y485040D01*
X285115Y484959D01*
X284932Y484857D01*
X284769Y484755D01*
X284647Y484674D01*
X284586Y484613D01*
X284566Y484592D01*
X284403Y484409D01*
X284281Y484206D01*
X284200Y484002D01*
X284139Y483819D01*
X284098Y483657D01*
X284078Y483534D01*
Y483433D01*
Y483412D01*
X284098Y483168D01*
X284139Y482924D01*
X284220Y482741D01*
X284281Y482578D01*
X284362Y482436D01*
X284444Y482354D01*
X284485Y482293D01*
X284505Y482273D01*
X284668Y482131D01*
X284871Y482029D01*
X285054Y481948D01*
X285237Y481907D01*
X285400Y481866D01*
X285522Y481846D01*
X285644D01*
X285949Y481866D01*
X286214Y481927D01*
X286438Y482029D01*
X286621Y482131D01*
X286784Y482253D01*
X286885Y482334D01*
X286967Y482415D01*
X286987Y482436D01*
X287150Y482680D01*
X287272Y482944D01*
X287353Y483229D01*
X287414Y483494D01*
X287435Y483738D01*
X287455Y483941D01*
Y484023D01*
Y484084D01*
Y484104D01*
Y484124D01*
X289632Y484409D01*
X289571Y484145D01*
X289510Y483921D01*
X289469Y483697D01*
X289449Y483514D01*
X289428Y483372D01*
Y483270D01*
Y483189D01*
Y483168D01*
X289449Y482883D01*
X289530Y482639D01*
X289611Y482415D01*
X289734Y482212D01*
X289835Y482070D01*
X289937Y481948D01*
X290018Y481866D01*
X290039Y481846D01*
X290283Y481663D01*
X290547Y481520D01*
X290812Y481418D01*
X291076Y481337D01*
X291321Y481296D01*
X291504Y481276D01*
X291666D01*
X292053Y481296D01*
X292399Y481357D01*
X292704Y481459D01*
X292948Y481561D01*
X293131Y481683D01*
X293274Y481764D01*
X293375Y481846D01*
X293396Y481866D01*
X293599Y482090D01*
X293762Y482334D01*
X293864Y482558D01*
X293945Y482782D01*
X293986Y482985D01*
X294006Y483128D01*
X294027Y483229D01*
Y483270D01*
X294006Y483555D01*
X293945Y483799D01*
X293864Y484023D01*
X293762Y484226D01*
X293681Y484369D01*
X293599Y484491D01*
X293538Y484572D01*
X293518Y484592D01*
X293294Y484776D01*
X293050Y484938D01*
X292785Y485040D01*
X292541Y485142D01*
X292318Y485203D01*
X292134Y485243D01*
X292012Y485264D01*
X291972D01*
X292297Y487868D01*
X292623Y487827D01*
D02*
G37*
G36*
X264673Y496959D02*
X265364Y496878D01*
X265995Y496735D01*
X266300Y496674D01*
X266565Y496593D01*
X266809Y496512D01*
X267033Y496451D01*
X267216Y496369D01*
X267379Y496308D01*
X267501Y496268D01*
X267602Y496227D01*
X267663Y496186D01*
X267684D01*
X268294Y495840D01*
X268823Y495454D01*
X269291Y495047D01*
X269657Y494640D01*
X269820Y494457D01*
X269962Y494274D01*
X270084Y494131D01*
X270166Y493989D01*
X270247Y493887D01*
X270308Y493785D01*
X270329Y493745D01*
X270349Y493724D01*
X270512Y493399D01*
X270654Y493094D01*
X270878Y492422D01*
X271041Y491771D01*
X271142Y491181D01*
X271183Y490896D01*
X271224Y490652D01*
X271244Y490428D01*
Y490225D01*
X271264Y490083D01*
Y489961D01*
Y489879D01*
Y489859D01*
X271244Y489208D01*
X271163Y488597D01*
X271061Y488007D01*
X270939Y487499D01*
X270878Y487275D01*
X270817Y487071D01*
X270756Y486888D01*
X270715Y486726D01*
X270674Y486604D01*
X270634Y486522D01*
X270613Y486461D01*
Y486441D01*
X270369Y485830D01*
X270105Y485322D01*
X269840Y484874D01*
X269617Y484488D01*
X269413Y484203D01*
X269332Y484101D01*
X269250Y483999D01*
X269189Y483938D01*
X269149Y483877D01*
X269108Y483837D01*
X263452D01*
Y489961D01*
X265832D01*
Y486705D01*
X267643D01*
X267826Y486949D01*
X267989Y487214D01*
X268131Y487478D01*
X268253Y487723D01*
X268355Y487926D01*
X268437Y488109D01*
X268477Y488211D01*
X268498Y488231D01*
Y488251D01*
X268620Y488577D01*
X268701Y488903D01*
X268762Y489208D01*
X268803Y489472D01*
X268823Y489716D01*
X268843Y489879D01*
Y490001D01*
Y490022D01*
Y490042D01*
X268823Y490367D01*
X268782Y490693D01*
X268721Y490978D01*
X268640Y491263D01*
X268437Y491771D01*
X268335Y491975D01*
X268213Y492178D01*
X268091Y492361D01*
X267989Y492524D01*
X267867Y492646D01*
X267785Y492768D01*
X267704Y492850D01*
X267643Y492911D01*
X267602Y492951D01*
X267582Y492972D01*
X267338Y493155D01*
X267053Y493338D01*
X266768Y493480D01*
X266463Y493602D01*
X265832Y493806D01*
X265222Y493928D01*
X264937Y493969D01*
X264652Y494009D01*
X264428Y494030D01*
X264205Y494050D01*
X264042Y494070D01*
X263798D01*
X263370Y494050D01*
X262984Y494030D01*
X262597Y493969D01*
X262251Y493908D01*
X261946Y493826D01*
X261661Y493724D01*
X261397Y493623D01*
X261153Y493521D01*
X260949Y493440D01*
X260766Y493338D01*
X260624Y493236D01*
X260502Y493155D01*
X260400Y493094D01*
X260339Y493033D01*
X260298Y493012D01*
X260278Y492992D01*
X260075Y492768D01*
X259871Y492544D01*
X259729Y492300D01*
X259586Y492056D01*
X259464Y491812D01*
X259362Y491568D01*
X259220Y491100D01*
X259179Y490876D01*
X259139Y490673D01*
X259118Y490490D01*
X259098Y490327D01*
X259078Y490205D01*
Y490103D01*
Y490042D01*
Y490022D01*
X259098Y489574D01*
X259179Y489187D01*
X259261Y488842D01*
X259383Y488536D01*
X259485Y488312D01*
X259586Y488129D01*
X259668Y488028D01*
X259688Y487987D01*
X259932Y487702D01*
X260197Y487458D01*
X260461Y487254D01*
X260726Y487112D01*
X260970Y486990D01*
X261153Y486909D01*
X261275Y486868D01*
X261295Y486848D01*
X261316D01*
X260787Y484020D01*
X260441Y484101D01*
X260095Y484223D01*
X259790Y484345D01*
X259505Y484508D01*
X259220Y484650D01*
X258976Y484813D01*
X258752Y484976D01*
X258549Y485139D01*
X258365Y485301D01*
X258203Y485444D01*
X258060Y485566D01*
X257959Y485688D01*
X257877Y485790D01*
X257796Y485871D01*
X257775Y485912D01*
X257755Y485932D01*
X257552Y486217D01*
X257389Y486522D01*
X257246Y486848D01*
X257124Y487193D01*
X256921Y487865D01*
X256799Y488516D01*
X256738Y488821D01*
X256717Y489106D01*
X256697Y489370D01*
X256677Y489594D01*
X256656Y489777D01*
Y489899D01*
Y490001D01*
Y490022D01*
X256677Y490754D01*
X256758Y491405D01*
X256819Y491690D01*
X256880Y491975D01*
X256941Y492239D01*
X257002Y492463D01*
X257084Y492666D01*
X257145Y492870D01*
X257206Y493012D01*
X257246Y493155D01*
X257307Y493256D01*
X257328Y493338D01*
X257369Y493378D01*
Y493399D01*
X257735Y494030D01*
X257959Y494294D01*
X258162Y494558D01*
X258386Y494803D01*
X258610Y495027D01*
X258833Y495230D01*
X259037Y495413D01*
X259240Y495555D01*
X259424Y495698D01*
X259586Y495820D01*
X259729Y495922D01*
X259851Y495983D01*
X259932Y496044D01*
X259993Y496064D01*
X260014Y496085D01*
X260339Y496247D01*
X260665Y496390D01*
X261336Y496613D01*
X262007Y496776D01*
X262597Y496878D01*
X262882Y496919D01*
X263126Y496959D01*
X263350Y496980D01*
X263554D01*
X263696Y497000D01*
X263920D01*
X264673Y496959D01*
D02*
G37*
G36*
X342792Y474759D02*
X342588Y474536D01*
X342405Y474291D01*
X342263Y474068D01*
X342141Y473844D01*
X342039Y473620D01*
X341876Y473233D01*
X341774Y472888D01*
X341754Y472745D01*
X341734Y472623D01*
X341713Y472521D01*
Y472460D01*
Y472420D01*
Y472399D01*
X341734Y472053D01*
X341815Y471667D01*
X341917Y471280D01*
X342039Y470914D01*
X342161Y470589D01*
X342222Y470446D01*
X342263Y470324D01*
X342303Y470222D01*
X342344Y470141D01*
X342364Y470100D01*
Y470080D01*
X342507Y469734D01*
X342608Y469429D01*
X342710Y469185D01*
X342771Y468981D01*
X342832Y468839D01*
X342873Y468717D01*
X342893Y468656D01*
Y468635D01*
X342954Y468289D01*
X342975Y468127D01*
Y467984D01*
X342995Y467862D01*
Y467781D01*
Y467720D01*
Y467700D01*
X342975Y467374D01*
X342934Y467089D01*
X342873Y466804D01*
X342792Y466560D01*
X342730Y466357D01*
X342669Y466194D01*
X342629Y466092D01*
X342608Y466051D01*
X342446Y465767D01*
X342303Y465523D01*
X342161Y465319D01*
X342018Y465136D01*
X341896Y464994D01*
X341815Y464892D01*
X341754Y464831D01*
X341734Y464810D01*
X339150D01*
X339394Y465075D01*
X339618Y465319D01*
X339780Y465563D01*
X339943Y465767D01*
X340045Y465950D01*
X340126Y466092D01*
X340167Y466174D01*
X340187Y466214D01*
X340289Y466459D01*
X340370Y466703D01*
X340411Y466906D01*
X340452Y467089D01*
X340472Y467232D01*
X340493Y467333D01*
Y467415D01*
Y467435D01*
X340472Y467639D01*
X340411Y467903D01*
X340330Y468208D01*
X340228Y468513D01*
X340147Y468778D01*
X340065Y469002D01*
X340025Y469103D01*
X340004Y469164D01*
X339984Y469205D01*
Y469225D01*
X339801Y469673D01*
X339658Y470060D01*
X339536Y470385D01*
X339455Y470629D01*
X339394Y470833D01*
X339353Y470955D01*
X339333Y471036D01*
Y471057D01*
X339252Y471443D01*
X339231Y471626D01*
Y471809D01*
X339211Y471952D01*
Y472074D01*
Y472155D01*
Y472175D01*
X339231Y472481D01*
X339272Y472766D01*
X339333Y473050D01*
X339414Y473294D01*
X339618Y473783D01*
X339862Y474190D01*
X339984Y474373D01*
X340106Y474536D01*
X340208Y474678D01*
X340309Y474780D01*
X340391Y474881D01*
X340452Y474943D01*
X340493Y474983D01*
X340513Y475004D01*
X343015D01*
X342792Y474759D01*
D02*
G37*
G36*
X312557Y495267D02*
X312251Y494617D01*
X312089Y494311D01*
X311906Y494026D01*
X311743Y493762D01*
X311580Y493518D01*
X311417Y493294D01*
X311275Y493091D01*
X311153Y492928D01*
X311031Y492785D01*
X310929Y492663D01*
X310868Y492582D01*
X310827Y492541D01*
X310807Y492521D01*
X321000D01*
Y489815D01*
X306840D01*
Y492012D01*
X307307Y492216D01*
X307735Y492480D01*
X308142Y492765D01*
X308467Y493050D01*
X308732Y493294D01*
X308935Y493518D01*
X309017Y493599D01*
X309078Y493660D01*
X309098Y493701D01*
X309118Y493721D01*
X309444Y494169D01*
X309729Y494596D01*
X309952Y494983D01*
X310115Y495329D01*
X310237Y495613D01*
X310339Y495817D01*
X310359Y495898D01*
X310380Y495959D01*
X310400Y495980D01*
Y496000D01*
X312841D01*
X312557Y495267D01*
D02*
G37*
G36*
X321000Y476651D02*
X318498D01*
Y482023D01*
X318233Y481860D01*
X318009Y481677D01*
X317908Y481595D01*
X317826Y481534D01*
X317785Y481494D01*
X317765Y481473D01*
X317684Y481392D01*
X317582Y481311D01*
X317358Y481066D01*
X317094Y480802D01*
X316829Y480537D01*
X316585Y480273D01*
X316382Y480049D01*
X316300Y479968D01*
X316239Y479907D01*
X316219Y479866D01*
X316199Y479846D01*
X315771Y479398D01*
X315425Y479032D01*
X315100Y478727D01*
X314856Y478483D01*
X314652Y478299D01*
X314510Y478177D01*
X314408Y478096D01*
X314388Y478076D01*
X314042Y477811D01*
X313716Y477587D01*
X313411Y477404D01*
X313147Y477262D01*
X312923Y477140D01*
X312740Y477058D01*
X312638Y477018D01*
X312597Y476997D01*
X312272Y476875D01*
X311946Y476794D01*
X311641Y476733D01*
X311356Y476692D01*
X311133Y476672D01*
X310949Y476651D01*
X310787D01*
X310481Y476672D01*
X310176Y476712D01*
X309891Y476753D01*
X309627Y476835D01*
X309159Y477038D01*
X308752Y477242D01*
X308569Y477364D01*
X308426Y477465D01*
X308284Y477567D01*
X308182Y477669D01*
X308101Y477750D01*
X308020Y477791D01*
X307999Y477831D01*
X307979Y477852D01*
X307775Y478076D01*
X307592Y478340D01*
X307450Y478584D01*
X307328Y478869D01*
X307124Y479398D01*
X306982Y479927D01*
X306941Y480171D01*
X306901Y480395D01*
X306880Y480598D01*
X306860Y480782D01*
X306840Y480924D01*
Y481026D01*
Y481107D01*
Y481128D01*
X306860Y481473D01*
X306880Y481799D01*
X306982Y482430D01*
X307145Y482959D01*
X307226Y483203D01*
X307328Y483427D01*
X307409Y483630D01*
X307511Y483793D01*
X307592Y483955D01*
X307653Y484078D01*
X307735Y484179D01*
X307775Y484240D01*
X307796Y484281D01*
X307816Y484301D01*
X308020Y484525D01*
X308223Y484729D01*
X308467Y484912D01*
X308732Y485075D01*
X309261Y485319D01*
X309769Y485522D01*
X310034Y485583D01*
X310258Y485644D01*
X310461Y485705D01*
X310644Y485726D01*
X310807Y485766D01*
X310909D01*
X310990Y485787D01*
X311010D01*
X311275Y483101D01*
X310868Y483060D01*
X310522Y482979D01*
X310217Y482897D01*
X309993Y482796D01*
X309810Y482714D01*
X309688Y482633D01*
X309607Y482572D01*
X309586Y482552D01*
X309424Y482348D01*
X309301Y482124D01*
X309200Y481901D01*
X309139Y481677D01*
X309098Y481494D01*
X309078Y481331D01*
Y481229D01*
Y481189D01*
X309098Y480883D01*
X309159Y480619D01*
X309240Y480395D01*
X309322Y480192D01*
X309403Y480049D01*
X309485Y479927D01*
X309545Y479866D01*
X309566Y479846D01*
X309769Y479683D01*
X309993Y479561D01*
X310217Y479479D01*
X310441Y479418D01*
X310644Y479378D01*
X310827Y479357D01*
X310970D01*
X311275Y479378D01*
X311560Y479439D01*
X311845Y479540D01*
X312089Y479642D01*
X312313Y479744D01*
X312475Y479846D01*
X312577Y479907D01*
X312618Y479927D01*
X312740Y480009D01*
X312882Y480131D01*
X313065Y480293D01*
X313228Y480456D01*
X313615Y480822D01*
X314001Y481189D01*
X314367Y481555D01*
X314530Y481717D01*
X314652Y481880D01*
X314774Y482002D01*
X314856Y482084D01*
X314917Y482145D01*
X314937Y482165D01*
X315324Y482572D01*
X315690Y482938D01*
X316036Y483284D01*
X316341Y483589D01*
X316646Y483874D01*
X316931Y484118D01*
X317175Y484342D01*
X317419Y484525D01*
X317623Y484688D01*
X317806Y484830D01*
X317948Y484952D01*
X318091Y485034D01*
X318172Y485115D01*
X318253Y485156D01*
X318294Y485197D01*
X318314D01*
X318782Y485461D01*
X319271Y485664D01*
X319718Y485827D01*
X320125Y485949D01*
X320491Y486031D01*
X320634Y486051D01*
X320756Y486071D01*
X320858Y486092D01*
X320939Y486112D01*
X321000D01*
Y476651D01*
D02*
G37*
G36*
X271000Y478567D02*
X261723D01*
X271000Y472850D01*
Y470002D01*
X256921D01*
Y472626D01*
X266402D01*
X256921Y478445D01*
Y481192D01*
X271000D01*
Y478567D01*
D02*
G37*
G36*
X244000Y481307D02*
X240806Y480148D01*
Y474492D01*
X244000Y473271D01*
Y470199D01*
X229921Y475855D01*
Y478866D01*
X244000Y484319D01*
Y481307D01*
D02*
G37*
G36*
Y443770D02*
X241620D01*
Y451624D01*
X237795D01*
Y444564D01*
X235414D01*
Y451624D01*
X232301D01*
Y444035D01*
X229921D01*
Y454472D01*
X244000D01*
Y443770D01*
D02*
G37*
G36*
Y465825D02*
X238120D01*
Y465255D01*
Y464909D01*
X238141Y464624D01*
X238161Y464380D01*
X238202Y464177D01*
X238222Y464014D01*
X238263Y463912D01*
X238283Y463851D01*
Y463831D01*
X238364Y463668D01*
X238446Y463505D01*
X238547Y463363D01*
X238629Y463220D01*
X238731Y463119D01*
X238812Y463037D01*
X238853Y462997D01*
X238873Y462976D01*
X238975Y462895D01*
X239076Y462793D01*
X239382Y462569D01*
X239707Y462325D01*
X240073Y462061D01*
X240399Y461837D01*
X240562Y461735D01*
X240684Y461654D01*
X240785Y461572D01*
X240867Y461511D01*
X240928Y461491D01*
X240948Y461471D01*
X244000Y459436D01*
Y456018D01*
X241253Y457748D01*
X240968Y457931D01*
X240684Y458114D01*
X240439Y458277D01*
X240216Y458439D01*
X240012Y458582D01*
X239809Y458704D01*
X239504Y458948D01*
X239259Y459131D01*
X239097Y459253D01*
X238995Y459355D01*
X238975Y459375D01*
X238731Y459599D01*
X238507Y459864D01*
X238324Y460108D01*
X238141Y460352D01*
X237998Y460555D01*
X237896Y460718D01*
X237815Y460840D01*
X237795Y460860D01*
Y460881D01*
X237734Y460535D01*
X237652Y460230D01*
X237571Y459945D01*
X237469Y459660D01*
X237367Y459416D01*
X237266Y459192D01*
X237164Y458968D01*
X237042Y458785D01*
X236940Y458622D01*
X236838Y458480D01*
X236737Y458358D01*
X236655Y458277D01*
X236594Y458195D01*
X236533Y458134D01*
X236513Y458114D01*
X236493Y458093D01*
X236289Y457931D01*
X236086Y457788D01*
X235638Y457544D01*
X235211Y457381D01*
X234783Y457280D01*
X234417Y457198D01*
X234275Y457178D01*
X234132D01*
X234031Y457158D01*
X233868D01*
X233420Y457178D01*
X232993Y457259D01*
X232627Y457361D01*
X232301Y457463D01*
X232037Y457585D01*
X231833Y457687D01*
X231772Y457727D01*
X231711Y457768D01*
X231691Y457788D01*
X231671D01*
X231325Y458032D01*
X231040Y458297D01*
X230816Y458561D01*
X230613Y458826D01*
X230491Y459070D01*
X230389Y459253D01*
X230328Y459375D01*
X230308Y459396D01*
Y459416D01*
X230247Y459619D01*
X230186Y459843D01*
X230084Y460352D01*
X230023Y460901D01*
X229962Y461430D01*
Y461695D01*
X229941Y461918D01*
Y462142D01*
X229921Y462325D01*
Y462468D01*
Y462590D01*
Y462671D01*
Y462691D01*
Y468673D01*
X244000D01*
Y465825D01*
D02*
G37*
G36*
X271000Y461660D02*
X270980Y461111D01*
X270959Y460602D01*
X270919Y460175D01*
X270858Y459829D01*
X270797Y459544D01*
X270756Y459320D01*
X270735Y459259D01*
Y459198D01*
X270715Y459178D01*
Y459158D01*
X270552Y458710D01*
X270369Y458303D01*
X270186Y457977D01*
X270003Y457693D01*
X269840Y457469D01*
X269718Y457306D01*
X269637Y457204D01*
X269596Y457164D01*
X269210Y456818D01*
X268803Y456513D01*
X268375Y456248D01*
X267989Y456045D01*
X267623Y455882D01*
X267480Y455801D01*
X267358Y455760D01*
X267236Y455719D01*
X267155Y455678D01*
X267114Y455658D01*
X267094D01*
X266605Y455516D01*
X266097Y455394D01*
X265609Y455312D01*
X265140Y455272D01*
X264917Y455251D01*
X264713Y455231D01*
X264550D01*
X264388Y455210D01*
X264103D01*
X263391Y455231D01*
X262760Y455292D01*
X262455Y455312D01*
X262190Y455353D01*
X261926Y455394D01*
X261702Y455434D01*
X261499Y455495D01*
X261316Y455536D01*
X261153Y455577D01*
X261031Y455597D01*
X260929Y455638D01*
X260848Y455658D01*
X260807Y455678D01*
X260787D01*
X260298Y455862D01*
X259851Y456085D01*
X259464Y456309D01*
X259139Y456533D01*
X258874Y456716D01*
X258671Y456879D01*
X258549Y456981D01*
X258508Y457001D01*
Y457021D01*
X258182Y457367D01*
X257918Y457713D01*
X257694Y458079D01*
X257511Y458405D01*
X257369Y458690D01*
X257267Y458934D01*
X257246Y459015D01*
X257226Y459076D01*
X257206Y459117D01*
Y459137D01*
X257104Y459524D01*
X257043Y459951D01*
X256982Y460399D01*
X256962Y460826D01*
X256941Y461212D01*
X256921Y461375D01*
Y461538D01*
Y461660D01*
Y461741D01*
Y461802D01*
Y461823D01*
Y466991D01*
X271000D01*
Y461660D01*
D02*
G37*
G36*
X238324Y491317D02*
X241966D01*
Y488856D01*
X238324D01*
Y485153D01*
X235801D01*
Y488856D01*
X232159D01*
Y491317D01*
X235801D01*
Y495000D01*
X238324D01*
Y491317D01*
D02*
G37*
G36*
X244000Y438501D02*
X238018D01*
Y432621D01*
X235638D01*
Y438501D01*
X232301D01*
Y431685D01*
X229921D01*
Y441349D01*
X244000D01*
Y438501D01*
D02*
G37*
G36*
X417379Y495980D02*
X417724Y495939D01*
X418070Y495858D01*
X418375Y495756D01*
X418681Y495654D01*
X418945Y495532D01*
X419189Y495390D01*
X419413Y495247D01*
X419596Y495105D01*
X419779Y494962D01*
X419922Y494840D01*
X420044Y494739D01*
X420145Y494637D01*
X420206Y494555D01*
X420247Y494515D01*
X420268Y494494D01*
X420451Y494250D01*
X420593Y493986D01*
X420736Y493721D01*
X420837Y493457D01*
X421020Y492928D01*
X421142Y492419D01*
X421183Y492175D01*
X421203Y491972D01*
X421224Y491788D01*
X421244Y491626D01*
X421264Y491483D01*
Y491382D01*
Y491320D01*
Y491300D01*
X421244Y490914D01*
X421203Y490568D01*
X421142Y490222D01*
X421081Y489896D01*
X420980Y489612D01*
X420878Y489347D01*
X420776Y489082D01*
X420654Y488859D01*
X420532Y488655D01*
X420430Y488493D01*
X420329Y488330D01*
X420227Y488208D01*
X420166Y488106D01*
X420105Y488045D01*
X420064Y488004D01*
X420044Y487984D01*
X419800Y487760D01*
X419556Y487577D01*
X419291Y487394D01*
X419026Y487252D01*
X418762Y487129D01*
X418498Y487028D01*
X417989Y486885D01*
X417765Y486824D01*
X417562Y486783D01*
X417358Y486763D01*
X417195Y486743D01*
X417053Y486722D01*
X416870D01*
X416443Y486743D01*
X416056Y486824D01*
X415690Y486906D01*
X415385Y487028D01*
X415140Y487129D01*
X414957Y487231D01*
X414835Y487313D01*
X414795Y487333D01*
X414469Y487577D01*
X414184Y487862D01*
X413940Y488167D01*
X413757Y488452D01*
X413594Y488716D01*
X413472Y488920D01*
X413432Y489001D01*
X413411Y489062D01*
X413391Y489103D01*
Y489123D01*
X413228Y488798D01*
X413045Y488513D01*
X412862Y488269D01*
X412658Y488065D01*
X412496Y487902D01*
X412353Y487801D01*
X412272Y487719D01*
X412231Y487699D01*
X411926Y487516D01*
X411621Y487394D01*
X411336Y487292D01*
X411071Y487231D01*
X410827Y487190D01*
X410644Y487170D01*
X410481D01*
X410197Y487190D01*
X409912Y487211D01*
X409403Y487353D01*
X408976Y487516D01*
X408589Y487719D01*
X408284Y487943D01*
X408162Y488025D01*
X408060Y488106D01*
X407979Y488187D01*
X407918Y488248D01*
X407898Y488269D01*
X407877Y488289D01*
X407694Y488513D01*
X407531Y488737D01*
X407389Y489001D01*
X407267Y489245D01*
X407084Y489774D01*
X406962Y490283D01*
X406921Y490507D01*
X406901Y490731D01*
X406880Y490914D01*
X406860Y491097D01*
X406840Y491219D01*
Y491341D01*
Y491402D01*
Y491422D01*
X406860Y491788D01*
X406880Y492134D01*
X406941Y492460D01*
X407002Y492765D01*
X407084Y493050D01*
X407165Y493314D01*
X407267Y493538D01*
X407348Y493742D01*
X407450Y493945D01*
X407552Y494108D01*
X407633Y494230D01*
X407714Y494352D01*
X407775Y494433D01*
X407836Y494494D01*
X407857Y494535D01*
X407877Y494555D01*
X408081Y494739D01*
X408284Y494922D01*
X408508Y495064D01*
X408711Y495186D01*
X409159Y495390D01*
X409566Y495512D01*
X409932Y495593D01*
X410095Y495613D01*
X410217Y495634D01*
X410339Y495654D01*
X410481D01*
X410827Y495634D01*
X411133Y495573D01*
X411438Y495512D01*
X411682Y495410D01*
X411906Y495329D01*
X412048Y495267D01*
X412150Y495206D01*
X412190Y495186D01*
X412455Y494983D01*
X412699Y494739D01*
X412902Y494494D01*
X413086Y494230D01*
X413208Y494006D01*
X413309Y493823D01*
X413371Y493701D01*
X413391Y493681D01*
Y493660D01*
X413615Y494087D01*
X413838Y494454D01*
X414083Y494759D01*
X414327Y495003D01*
X414551Y495206D01*
X414713Y495349D01*
X414835Y495430D01*
X414856Y495451D01*
X414876D01*
X415242Y495634D01*
X415608Y495776D01*
X415975Y495858D01*
X416300Y495939D01*
X416565Y495980D01*
X416788Y496000D01*
X416992D01*
X417379Y495980D01*
D02*
G37*
G36*
X220000Y476551D02*
X219980Y476002D01*
X219959Y475493D01*
X219919Y475066D01*
X219858Y474720D01*
X219797Y474435D01*
X219756Y474211D01*
X219736Y474150D01*
Y474089D01*
X219715Y474069D01*
Y474049D01*
X219552Y473601D01*
X219369Y473194D01*
X219186Y472868D01*
X219003Y472584D01*
X218840Y472360D01*
X218718Y472197D01*
X218637Y472095D01*
X218596Y472055D01*
X218210Y471709D01*
X217803Y471404D01*
X217375Y471139D01*
X216989Y470936D01*
X216623Y470773D01*
X216480Y470691D01*
X216358Y470651D01*
X216236Y470610D01*
X216155Y470569D01*
X216114Y470549D01*
X216094D01*
X215605Y470407D01*
X215097Y470285D01*
X214608Y470203D01*
X214140Y470163D01*
X213917Y470142D01*
X213713Y470122D01*
X213550D01*
X213388Y470102D01*
X213103D01*
X212391Y470122D01*
X211760Y470183D01*
X211455Y470203D01*
X211190Y470244D01*
X210926Y470285D01*
X210702Y470325D01*
X210499Y470386D01*
X210316Y470427D01*
X210153Y470468D01*
X210031Y470488D01*
X209929Y470529D01*
X209848Y470549D01*
X209807Y470569D01*
X209787D01*
X209298Y470753D01*
X208851Y470976D01*
X208464Y471200D01*
X208139Y471424D01*
X207874Y471607D01*
X207671Y471770D01*
X207549Y471871D01*
X207508Y471892D01*
Y471912D01*
X207182Y472258D01*
X206918Y472604D01*
X206694Y472970D01*
X206511Y473296D01*
X206369Y473581D01*
X206267Y473825D01*
X206246Y473906D01*
X206226Y473967D01*
X206206Y474008D01*
Y474028D01*
X206104Y474415D01*
X206043Y474842D01*
X205982Y475290D01*
X205962Y475717D01*
X205941Y476103D01*
X205921Y476266D01*
Y476429D01*
Y476551D01*
Y476632D01*
Y476693D01*
Y476714D01*
Y481881D01*
X220000D01*
Y476551D01*
D02*
G37*
G36*
X387007Y495980D02*
X387374Y495939D01*
X387719Y495898D01*
X388025Y495817D01*
X388330Y495715D01*
X388594Y495613D01*
X388859Y495512D01*
X389083Y495390D01*
X389286Y495288D01*
X389469Y495186D01*
X389612Y495084D01*
X389754Y494983D01*
X389835Y494901D01*
X389917Y494861D01*
X389957Y494820D01*
X389978Y494800D01*
X390202Y494576D01*
X390405Y494332D01*
X390568Y494087D01*
X390710Y493843D01*
X390832Y493599D01*
X390954Y493375D01*
X391097Y492928D01*
X391199Y492541D01*
X391219Y492379D01*
X391239Y492236D01*
X391259Y492114D01*
Y492033D01*
Y491972D01*
Y491951D01*
X391239Y491666D01*
X391199Y491402D01*
X391158Y491158D01*
X391076Y490914D01*
X390893Y490466D01*
X390670Y490100D01*
X390446Y489815D01*
X390344Y489693D01*
X390263Y489591D01*
X390181Y489510D01*
X390120Y489449D01*
X390100Y489428D01*
X390079Y489408D01*
X390507Y489449D01*
X390914Y489489D01*
X391280Y489530D01*
X391605Y489591D01*
X391890Y489652D01*
X392155Y489713D01*
X392379Y489774D01*
X392582Y489835D01*
X392765Y489917D01*
X392907Y489957D01*
X393030Y490018D01*
X393111Y490059D01*
X393192Y490100D01*
X393233Y490140D01*
X393274Y490161D01*
X393518Y490385D01*
X393701Y490629D01*
X393843Y490853D01*
X393925Y491076D01*
X393986Y491280D01*
X394006Y491422D01*
X394026Y491524D01*
Y491565D01*
X394006Y491788D01*
X393965Y492012D01*
X393904Y492175D01*
X393843Y492338D01*
X393782Y492460D01*
X393721Y492541D01*
X393681Y492602D01*
X393660Y492623D01*
X393498Y492765D01*
X393314Y492867D01*
X393111Y492948D01*
X392907Y493009D01*
X392745Y493070D01*
X392602Y493091D01*
X392501Y493111D01*
X392460D01*
X392765Y495715D01*
X393091Y495654D01*
X393375Y495573D01*
X393660Y495491D01*
X393904Y495390D01*
X394149Y495288D01*
X394372Y495186D01*
X394556Y495064D01*
X394739Y494962D01*
X394881Y494840D01*
X395023Y494759D01*
X395125Y494657D01*
X395227Y494576D01*
X395288Y494515D01*
X395349Y494454D01*
X395369Y494433D01*
X395390Y494413D01*
X395552Y494210D01*
X395675Y494006D01*
X395898Y493559D01*
X396041Y493131D01*
X396163Y492704D01*
X396224Y492318D01*
X396244Y492155D01*
Y492012D01*
X396264Y491911D01*
Y491829D01*
Y491768D01*
Y491748D01*
X396244Y491320D01*
X396183Y490934D01*
X396102Y490568D01*
X396000Y490201D01*
X395858Y489876D01*
X395715Y489571D01*
X395573Y489286D01*
X395410Y489042D01*
X395247Y488818D01*
X395105Y488615D01*
X394942Y488452D01*
X394820Y488309D01*
X394718Y488187D01*
X394637Y488106D01*
X394576Y488065D01*
X394556Y488045D01*
X394210Y487780D01*
X393823Y487577D01*
X393396Y487374D01*
X392968Y487211D01*
X392501Y487068D01*
X392033Y486946D01*
X391585Y486865D01*
X391117Y486783D01*
X390690Y486722D01*
X390303Y486682D01*
X389937Y486641D01*
X389612Y486621D01*
X389347Y486600D01*
X388981D01*
X388289Y486621D01*
X387658Y486661D01*
X387068Y486722D01*
X386519Y486824D01*
X386031Y486926D01*
X385583Y487028D01*
X385176Y487170D01*
X384810Y487292D01*
X384505Y487414D01*
X384240Y487536D01*
X384017Y487658D01*
X383833Y487760D01*
X383691Y487862D01*
X383589Y487923D01*
X383528Y487963D01*
X383508Y487984D01*
X383223Y488248D01*
X382959Y488533D01*
X382735Y488818D01*
X382552Y489103D01*
X382389Y489408D01*
X382247Y489693D01*
X382145Y489978D01*
X382043Y490263D01*
X381982Y490507D01*
X381921Y490751D01*
X381880Y490954D01*
X381860Y491137D01*
Y491300D01*
X381840Y491402D01*
Y491483D01*
Y491504D01*
X381860Y491870D01*
X381901Y492195D01*
X381962Y492521D01*
X382043Y492826D01*
X382145Y493111D01*
X382267Y493375D01*
X382369Y493640D01*
X382491Y493843D01*
X382633Y494047D01*
X382735Y494230D01*
X382857Y494372D01*
X382959Y494515D01*
X383040Y494617D01*
X383101Y494678D01*
X383142Y494718D01*
X383162Y494739D01*
X383427Y494962D01*
X383691Y495145D01*
X383976Y495329D01*
X384261Y495471D01*
X384546Y495593D01*
X384851Y495695D01*
X385400Y495837D01*
X385644Y495898D01*
X385888Y495939D01*
X386092Y495959D01*
X386275Y495980D01*
X386438Y496000D01*
X386641D01*
X387007Y495980D01*
D02*
G37*
G36*
X484856Y492980D02*
X485486Y492939D01*
X486076Y492878D01*
X486605Y492776D01*
X487114Y492674D01*
X487562Y492573D01*
X487948Y492451D01*
X488314Y492308D01*
X488620Y492186D01*
X488884Y492064D01*
X489108Y491962D01*
X489291Y491840D01*
X489433Y491759D01*
X489535Y491698D01*
X489596Y491657D01*
X489617Y491637D01*
X489901Y491372D01*
X490166Y491087D01*
X490390Y490803D01*
X490573Y490498D01*
X490736Y490213D01*
X490858Y489907D01*
X490980Y489623D01*
X491061Y489358D01*
X491122Y489094D01*
X491183Y488870D01*
X491203Y488646D01*
X491244Y488463D01*
Y488321D01*
X491264Y488219D01*
Y488137D01*
Y488117D01*
X491244Y487751D01*
X491203Y487405D01*
X491142Y487080D01*
X491061Y486774D01*
X490959Y486469D01*
X490858Y486205D01*
X490736Y485961D01*
X490613Y485737D01*
X490491Y485533D01*
X490369Y485370D01*
X490267Y485208D01*
X490166Y485086D01*
X490084Y484984D01*
X490023Y484923D01*
X489983Y484882D01*
X489962Y484862D01*
X489718Y484638D01*
X489433Y484435D01*
X489149Y484272D01*
X488864Y484129D01*
X488579Y483987D01*
X488294Y483885D01*
X487724Y483743D01*
X487480Y483682D01*
X487236Y483641D01*
X487033Y483621D01*
X486850Y483600D01*
X486687Y483580D01*
X486483D01*
X486097Y483600D01*
X485751Y483641D01*
X485405Y483702D01*
X485100Y483763D01*
X484795Y483865D01*
X484530Y483967D01*
X484266Y484068D01*
X484042Y484190D01*
X483838Y484313D01*
X483655Y484414D01*
X483513Y484516D01*
X483371Y484618D01*
X483269Y484679D01*
X483208Y484740D01*
X483167Y484780D01*
X483147Y484801D01*
X482923Y485025D01*
X482719Y485269D01*
X482536Y485513D01*
X482394Y485757D01*
X482272Y486001D01*
X482170Y486245D01*
X482007Y486693D01*
X481946Y486896D01*
X481906Y487100D01*
X481885Y487263D01*
X481865Y487405D01*
X481845Y487527D01*
Y487608D01*
Y487669D01*
Y487690D01*
X481865Y487975D01*
X481906Y488239D01*
X481946Y488483D01*
X482028Y488727D01*
X482231Y489155D01*
X482435Y489521D01*
X482658Y489806D01*
X482760Y489928D01*
X482862Y490030D01*
X482943Y490111D01*
X482984Y490172D01*
X483025Y490192D01*
X483045Y490213D01*
X482618Y490172D01*
X482211Y490131D01*
X481845Y490091D01*
X481519Y490030D01*
X481234Y489968D01*
X480970Y489907D01*
X480746Y489846D01*
X480542Y489765D01*
X480359Y489704D01*
X480217Y489663D01*
X480095Y489602D01*
X480014Y489562D01*
X479932Y489521D01*
X479891Y489480D01*
X479851Y489460D01*
X479586Y489236D01*
X479403Y488992D01*
X479261Y488748D01*
X479179Y488524D01*
X479118Y488321D01*
X479098Y488158D01*
X479078Y488056D01*
Y488015D01*
X479098Y487792D01*
X479139Y487568D01*
X479200Y487385D01*
X479261Y487242D01*
X479342Y487120D01*
X479403Y487039D01*
X479444Y486978D01*
X479464Y486957D01*
X479627Y486815D01*
X479810Y486713D01*
X480014Y486612D01*
X480197Y486550D01*
X480380Y486510D01*
X480522Y486469D01*
X480603Y486449D01*
X480644D01*
X480359Y483844D01*
X479749Y483987D01*
X479240Y484190D01*
X478793Y484414D01*
X478406Y484638D01*
X478121Y484862D01*
X478020Y484943D01*
X477918Y485045D01*
X477857Y485106D01*
X477796Y485167D01*
X477755Y485187D01*
Y485208D01*
X477592Y485411D01*
X477450Y485615D01*
X477226Y486062D01*
X477063Y486510D01*
X476962Y486917D01*
X476880Y487283D01*
X476860Y487446D01*
Y487588D01*
X476840Y487690D01*
Y487771D01*
Y487832D01*
Y487853D01*
X476860Y488280D01*
X476921Y488666D01*
X477002Y489053D01*
X477104Y489399D01*
X477247Y489724D01*
X477389Y490050D01*
X477552Y490314D01*
X477694Y490579D01*
X477857Y490803D01*
X478020Y491006D01*
X478162Y491169D01*
X478304Y491311D01*
X478406Y491433D01*
X478488Y491515D01*
X478549Y491555D01*
X478569Y491576D01*
X478915Y491820D01*
X479301Y492044D01*
X479729Y492227D01*
X480156Y492390D01*
X480624Y492532D01*
X481092Y492654D01*
X481560Y492756D01*
X482007Y492817D01*
X482435Y492878D01*
X482841Y492919D01*
X483208Y492959D01*
X483533Y492980D01*
X483798Y493000D01*
X484164D01*
X484856Y492980D01*
D02*
G37*
G36*
X485792Y481993D02*
X485588Y481769D01*
X485405Y481525D01*
X485263Y481301D01*
X485140Y481078D01*
X485039Y480854D01*
X484876Y480467D01*
X484774Y480121D01*
X484754Y479979D01*
X484734Y479857D01*
X484713Y479755D01*
Y479694D01*
Y479653D01*
Y479633D01*
X484734Y479287D01*
X484815Y478901D01*
X484917Y478514D01*
X485039Y478148D01*
X485161Y477822D01*
X485222Y477680D01*
X485263Y477558D01*
X485303Y477456D01*
X485344Y477375D01*
X485364Y477334D01*
Y477314D01*
X485507Y476968D01*
X485608Y476663D01*
X485710Y476418D01*
X485771Y476215D01*
X485832Y476073D01*
X485873Y475951D01*
X485893Y475890D01*
Y475869D01*
X485954Y475523D01*
X485975Y475360D01*
Y475218D01*
X485995Y475096D01*
Y475015D01*
Y474954D01*
Y474933D01*
X485975Y474608D01*
X485934Y474323D01*
X485873Y474038D01*
X485792Y473794D01*
X485731Y473591D01*
X485670Y473428D01*
X485629Y473326D01*
X485608Y473285D01*
X485446Y473000D01*
X485303Y472756D01*
X485161Y472553D01*
X485018Y472370D01*
X484896Y472227D01*
X484815Y472126D01*
X484754Y472065D01*
X484734Y472044D01*
X482150D01*
X482394Y472309D01*
X482618Y472553D01*
X482780Y472797D01*
X482943Y473000D01*
X483045Y473184D01*
X483126Y473326D01*
X483167Y473407D01*
X483187Y473448D01*
X483289Y473692D01*
X483371Y473936D01*
X483411Y474140D01*
X483452Y474323D01*
X483472Y474465D01*
X483493Y474567D01*
Y474648D01*
Y474669D01*
X483472Y474872D01*
X483411Y475137D01*
X483330Y475442D01*
X483228Y475747D01*
X483147Y476012D01*
X483065Y476235D01*
X483025Y476337D01*
X483004Y476398D01*
X482984Y476439D01*
Y476459D01*
X482801Y476907D01*
X482658Y477293D01*
X482536Y477619D01*
X482455Y477863D01*
X482394Y478066D01*
X482353Y478189D01*
X482333Y478270D01*
Y478290D01*
X482252Y478677D01*
X482231Y478860D01*
Y479043D01*
X482211Y479185D01*
Y479308D01*
Y479389D01*
Y479409D01*
X482231Y479714D01*
X482272Y479999D01*
X482333Y480284D01*
X482414Y480528D01*
X482618Y481017D01*
X482862Y481423D01*
X482984Y481607D01*
X483106Y481769D01*
X483208Y481912D01*
X483309Y482014D01*
X483391Y482115D01*
X483452Y482176D01*
X483493Y482217D01*
X483513Y482237D01*
X486015D01*
X485792Y481993D01*
D02*
G37*
G36*
X451607Y486876D02*
X452522Y487547D01*
X453478Y488137D01*
X453926Y488422D01*
X454394Y488666D01*
X454821Y488890D01*
X455228Y489094D01*
X455615Y489277D01*
X455961Y489440D01*
X456286Y489582D01*
X456550Y489704D01*
X456754Y489785D01*
X456917Y489846D01*
X457018Y489887D01*
X457059Y489907D01*
X457629Y490111D01*
X458178Y490294D01*
X458727Y490437D01*
X459256Y490579D01*
X459785Y490681D01*
X460274Y490782D01*
X460742Y490864D01*
X461169Y490925D01*
X461555Y490986D01*
X461922Y491026D01*
X462227Y491067D01*
X462491Y491087D01*
X462715D01*
X462878Y491108D01*
X463000D01*
Y488504D01*
X462288Y488483D01*
X461555Y488422D01*
X460843Y488321D01*
X460518Y488280D01*
X460192Y488219D01*
X459907Y488158D01*
X459623Y488097D01*
X459399Y488056D01*
X459195Y488015D01*
X459012Y487975D01*
X458890Y487934D01*
X458809Y487914D01*
X458788D01*
X457914Y487649D01*
X457080Y487364D01*
X456693Y487222D01*
X456327Y487059D01*
X455981Y486917D01*
X455655Y486774D01*
X455370Y486632D01*
X455106Y486510D01*
X454862Y486388D01*
X454679Y486306D01*
X454516Y486225D01*
X454414Y486164D01*
X454333Y486123D01*
X454313Y486103D01*
X453926Y485879D01*
X453560Y485655D01*
X453234Y485452D01*
X452909Y485248D01*
X452624Y485045D01*
X452359Y484841D01*
X452115Y484658D01*
X451891Y484496D01*
X451688Y484333D01*
X451525Y484190D01*
X451383Y484068D01*
X451261Y483967D01*
X451179Y483885D01*
X451118Y483824D01*
X451078Y483783D01*
X451057Y483763D01*
X449104D01*
Y493000D01*
X451607D01*
Y486876D01*
D02*
G37*
G36*
X390792Y484790D02*
X390588Y484566D01*
X390405Y484322D01*
X390263Y484098D01*
X390140Y483874D01*
X390039Y483650D01*
X389876Y483264D01*
X389774Y482918D01*
X389754Y482775D01*
X389734Y482653D01*
X389713Y482552D01*
Y482491D01*
Y482450D01*
Y482430D01*
X389734Y482084D01*
X389815Y481697D01*
X389917Y481311D01*
X390039Y480944D01*
X390161Y480619D01*
X390222Y480476D01*
X390263Y480354D01*
X390303Y480253D01*
X390344Y480171D01*
X390364Y480131D01*
Y480110D01*
X390507Y479764D01*
X390608Y479459D01*
X390710Y479215D01*
X390771Y479012D01*
X390832Y478869D01*
X390873Y478747D01*
X390893Y478686D01*
Y478666D01*
X390954Y478320D01*
X390975Y478157D01*
Y478015D01*
X390995Y477893D01*
Y477811D01*
Y477750D01*
Y477730D01*
X390975Y477404D01*
X390934Y477119D01*
X390873Y476835D01*
X390792Y476590D01*
X390731Y476387D01*
X390670Y476224D01*
X390629Y476123D01*
X390608Y476082D01*
X390446Y475797D01*
X390303Y475553D01*
X390161Y475349D01*
X390018Y475166D01*
X389896Y475024D01*
X389815Y474922D01*
X389754Y474861D01*
X389734Y474841D01*
X387150D01*
X387394Y475105D01*
X387618Y475349D01*
X387780Y475593D01*
X387943Y475797D01*
X388045Y475980D01*
X388126Y476123D01*
X388167Y476204D01*
X388187Y476245D01*
X388289Y476489D01*
X388371Y476733D01*
X388411Y476936D01*
X388452Y477119D01*
X388472Y477262D01*
X388493Y477364D01*
Y477445D01*
Y477465D01*
X388472Y477669D01*
X388411Y477933D01*
X388330Y478238D01*
X388228Y478544D01*
X388147Y478808D01*
X388065Y479032D01*
X388025Y479134D01*
X388004Y479195D01*
X387984Y479235D01*
Y479256D01*
X387801Y479703D01*
X387658Y480090D01*
X387536Y480415D01*
X387455Y480659D01*
X387394Y480863D01*
X387353Y480985D01*
X387333Y481066D01*
Y481087D01*
X387252Y481473D01*
X387231Y481656D01*
Y481840D01*
X387211Y481982D01*
Y482104D01*
Y482185D01*
Y482206D01*
X387231Y482511D01*
X387272Y482796D01*
X387333Y483081D01*
X387414Y483325D01*
X387618Y483813D01*
X387862Y484220D01*
X387984Y484403D01*
X388106Y484566D01*
X388208Y484708D01*
X388309Y484810D01*
X388391Y484912D01*
X388452Y484973D01*
X388493Y485014D01*
X388513Y485034D01*
X391015D01*
X390792Y484790D01*
D02*
G37*
G36*
X362792Y474759D02*
X362588Y474536D01*
X362405Y474291D01*
X362263Y474068D01*
X362141Y473844D01*
X362039Y473620D01*
X361876Y473233D01*
X361774Y472888D01*
X361754Y472745D01*
X361734Y472623D01*
X361713Y472521D01*
Y472460D01*
Y472420D01*
Y472399D01*
X361734Y472053D01*
X361815Y471667D01*
X361917Y471280D01*
X362039Y470914D01*
X362161Y470589D01*
X362222Y470446D01*
X362263Y470324D01*
X362303Y470222D01*
X362344Y470141D01*
X362364Y470100D01*
Y470080D01*
X362507Y469734D01*
X362608Y469429D01*
X362710Y469185D01*
X362771Y468981D01*
X362832Y468839D01*
X362873Y468717D01*
X362893Y468656D01*
Y468635D01*
X362954Y468290D01*
X362975Y468127D01*
Y467984D01*
X362995Y467862D01*
Y467781D01*
Y467720D01*
Y467700D01*
X362975Y467374D01*
X362934Y467089D01*
X362873Y466804D01*
X362792Y466560D01*
X362730Y466357D01*
X362669Y466194D01*
X362629Y466092D01*
X362608Y466052D01*
X362446Y465767D01*
X362303Y465523D01*
X362161Y465319D01*
X362019Y465136D01*
X361896Y464994D01*
X361815Y464892D01*
X361754Y464831D01*
X361734Y464810D01*
X359150D01*
X359394Y465075D01*
X359618Y465319D01*
X359781Y465563D01*
X359943Y465767D01*
X360045Y465950D01*
X360126Y466092D01*
X360167Y466174D01*
X360187Y466214D01*
X360289Y466459D01*
X360370Y466703D01*
X360411Y466906D01*
X360452Y467089D01*
X360472Y467232D01*
X360493Y467333D01*
Y467415D01*
Y467435D01*
X360472Y467639D01*
X360411Y467903D01*
X360330Y468208D01*
X360228Y468513D01*
X360147Y468778D01*
X360065Y469002D01*
X360025Y469103D01*
X360004Y469164D01*
X359984Y469205D01*
Y469226D01*
X359801Y469673D01*
X359658Y470060D01*
X359536Y470385D01*
X359455Y470629D01*
X359394Y470833D01*
X359353Y470955D01*
X359333Y471036D01*
Y471057D01*
X359252Y471443D01*
X359231Y471626D01*
Y471809D01*
X359211Y471952D01*
Y472074D01*
Y472155D01*
Y472175D01*
X359231Y472481D01*
X359272Y472766D01*
X359333Y473050D01*
X359414Y473294D01*
X359618Y473783D01*
X359862Y474190D01*
X359984Y474373D01*
X360106Y474536D01*
X360208Y474678D01*
X360309Y474780D01*
X360391Y474882D01*
X360452Y474943D01*
X360493Y474983D01*
X360513Y475004D01*
X363015D01*
X362792Y474759D01*
D02*
G37*
G36*
X339557Y495267D02*
X339252Y494617D01*
X339089Y494311D01*
X338906Y494026D01*
X338743Y493762D01*
X338580Y493518D01*
X338417Y493294D01*
X338275Y493091D01*
X338153Y492928D01*
X338031Y492785D01*
X337929Y492663D01*
X337868Y492582D01*
X337827Y492541D01*
X337807Y492521D01*
X348000D01*
Y489815D01*
X333840D01*
Y492012D01*
X334308Y492216D01*
X334735Y492480D01*
X335142Y492765D01*
X335467Y493050D01*
X335732Y493294D01*
X335935Y493518D01*
X336017Y493599D01*
X336078Y493660D01*
X336098Y493701D01*
X336118Y493721D01*
X336444Y494169D01*
X336729Y494596D01*
X336952Y494983D01*
X337115Y495329D01*
X337237Y495613D01*
X337339Y495817D01*
X337359Y495898D01*
X337380Y495959D01*
X337400Y495980D01*
Y496000D01*
X339841D01*
X339557Y495267D01*
D02*
G37*
G36*
Y484322D02*
X339252Y483671D01*
X339089Y483366D01*
X338906Y483081D01*
X338743Y482816D01*
X338580Y482572D01*
X338417Y482348D01*
X338275Y482145D01*
X338153Y481982D01*
X338031Y481840D01*
X337929Y481717D01*
X337868Y481636D01*
X337827Y481595D01*
X337807Y481575D01*
X348000D01*
Y478869D01*
X333840D01*
Y481066D01*
X334308Y481270D01*
X334735Y481534D01*
X335142Y481819D01*
X335467Y482104D01*
X335732Y482348D01*
X335935Y482572D01*
X336017Y482653D01*
X336078Y482714D01*
X336098Y482755D01*
X336118Y482775D01*
X336444Y483223D01*
X336729Y483650D01*
X336952Y484037D01*
X337115Y484383D01*
X337237Y484668D01*
X337339Y484871D01*
X337359Y484952D01*
X337380Y485014D01*
X337400Y485034D01*
Y485054D01*
X339841D01*
X339557Y484322D01*
D02*
G37*
G36*
X359557Y495268D02*
X359252Y494617D01*
X359089Y494311D01*
X358906Y494026D01*
X358743Y493762D01*
X358580Y493518D01*
X358417Y493294D01*
X358275Y493091D01*
X358153Y492928D01*
X358031Y492785D01*
X357929Y492663D01*
X357868Y492582D01*
X357827Y492541D01*
X357807Y492521D01*
X368000D01*
Y489815D01*
X353840D01*
Y492012D01*
X354308Y492216D01*
X354735Y492480D01*
X355142Y492765D01*
X355467Y493050D01*
X355732Y493294D01*
X355935Y493518D01*
X356017Y493599D01*
X356078Y493660D01*
X356098Y493701D01*
X356118Y493721D01*
X356444Y494169D01*
X356729Y494596D01*
X356952Y494983D01*
X357115Y495329D01*
X357237Y495613D01*
X357339Y495817D01*
X357359Y495898D01*
X357380Y495959D01*
X357400Y495980D01*
Y496000D01*
X359841D01*
X359557Y495268D01*
D02*
G37*
G36*
X220000Y494516D02*
X216806Y493356D01*
Y487700D01*
X220000Y486479D01*
Y483407D01*
X205921Y489063D01*
Y492075D01*
X220000Y497527D01*
Y494516D01*
D02*
G37*
G36*
X361774Y485746D02*
X362446Y485705D01*
X363076Y485644D01*
X363646Y485563D01*
X364155Y485481D01*
X364623Y485380D01*
X365030Y485258D01*
X365396Y485136D01*
X365701Y485034D01*
X365986Y484912D01*
X366210Y484810D01*
X366393Y484708D01*
X366515Y484647D01*
X366617Y484586D01*
X366678Y484546D01*
X366698Y484525D01*
X366983Y484281D01*
X367206Y484017D01*
X367430Y483752D01*
X367593Y483467D01*
X367756Y483203D01*
X367878Y482918D01*
X367980Y482653D01*
X368061Y482389D01*
X368142Y482145D01*
X368183Y481921D01*
X368224Y481717D01*
X368244Y481555D01*
Y481412D01*
X368265Y481290D01*
Y481229D01*
Y481209D01*
X368244Y480843D01*
X368204Y480497D01*
X368122Y480151D01*
X368041Y479846D01*
X367939Y479561D01*
X367817Y479296D01*
X367674Y479073D01*
X367532Y478849D01*
X367410Y478666D01*
X367268Y478483D01*
X367146Y478340D01*
X367044Y478218D01*
X366962Y478137D01*
X366881Y478076D01*
X366840Y478035D01*
X366820Y478015D01*
X366474Y477771D01*
X366067Y477567D01*
X365640Y477364D01*
X365172Y477221D01*
X364704Y477079D01*
X364236Y476977D01*
X363748Y476875D01*
X363280Y476794D01*
X362832Y476753D01*
X362425Y476713D01*
X362039Y476672D01*
X361713Y476651D01*
X361449Y476631D01*
X361062D01*
X360330Y476651D01*
X359658Y476692D01*
X359048Y476753D01*
X358478Y476855D01*
X357949Y476957D01*
X357481Y477058D01*
X357054Y477201D01*
X356688Y477323D01*
X356342Y477445D01*
X356078Y477567D01*
X355834Y477689D01*
X355630Y477791D01*
X355488Y477893D01*
X355386Y477954D01*
X355325Y477994D01*
X355304Y478015D01*
X355040Y478238D01*
X354816Y478483D01*
X354633Y478747D01*
X354450Y479012D01*
X354308Y479276D01*
X354206Y479541D01*
X354104Y479785D01*
X354023Y480049D01*
X353962Y480293D01*
X353921Y480497D01*
X353880Y480700D01*
X353860Y480863D01*
X353840Y481005D01*
Y481128D01*
Y481189D01*
Y481209D01*
X353860Y481575D01*
X353901Y481921D01*
X353982Y482267D01*
X354063Y482572D01*
X354185Y482857D01*
X354308Y483121D01*
X354430Y483345D01*
X354572Y483569D01*
X354715Y483752D01*
X354837Y483935D01*
X354959Y484078D01*
X355081Y484179D01*
X355162Y484281D01*
X355243Y484342D01*
X355284Y484383D01*
X355304Y484403D01*
X355650Y484647D01*
X356057Y484851D01*
X356484Y485034D01*
X356932Y485197D01*
X357400Y485319D01*
X357888Y485441D01*
X358356Y485522D01*
X358824Y485603D01*
X359272Y485644D01*
X359679Y485685D01*
X360065Y485726D01*
X360391Y485746D01*
X360655Y485766D01*
X361042D01*
X361774Y485746D01*
D02*
G37*
G36*
X358623Y69545D02*
X358928Y69464D01*
X359497Y69281D01*
X359986Y69057D01*
X360189Y68915D01*
X360393Y68793D01*
X360576Y68671D01*
X360718Y68549D01*
X360861Y68447D01*
X360962Y68345D01*
X361044Y68264D01*
X361105Y68203D01*
X361146Y68162D01*
X361166Y68142D01*
X361349Y67898D01*
X361532Y67633D01*
X361674Y67389D01*
X361797Y67104D01*
X362000Y66575D01*
X362122Y66087D01*
X362163Y65843D01*
X362203Y65639D01*
X362224Y65456D01*
X362244Y65293D01*
X362265Y65151D01*
Y65049D01*
Y64988D01*
Y64968D01*
X362244Y64602D01*
X362203Y64235D01*
X362142Y63910D01*
X362061Y63584D01*
X361959Y63299D01*
X361858Y63015D01*
X361735Y62750D01*
X361613Y62526D01*
X361491Y62323D01*
X361369Y62119D01*
X361268Y61977D01*
X361166Y61835D01*
X361085Y61733D01*
X361023Y61652D01*
X360983Y61611D01*
X360962Y61590D01*
X360718Y61346D01*
X360454Y61143D01*
X360189Y60960D01*
X359925Y60797D01*
X359640Y60675D01*
X359375Y60553D01*
X358887Y60390D01*
X358663Y60349D01*
X358440Y60309D01*
X358256Y60268D01*
X358094Y60248D01*
X357972Y60227D01*
X357789D01*
X357321Y60268D01*
X356914Y60349D01*
X356527Y60451D01*
X356222Y60594D01*
X355957Y60736D01*
X355774Y60838D01*
X355652Y60919D01*
X355612Y60960D01*
X355306Y61245D01*
X355042Y61570D01*
X354838Y61896D01*
X354676Y62201D01*
X354554Y62465D01*
X354493Y62689D01*
X354452Y62771D01*
Y62832D01*
X354431Y62872D01*
Y62893D01*
X354208Y62526D01*
X353984Y62221D01*
X353740Y61957D01*
X353496Y61713D01*
X353251Y61509D01*
X353007Y61346D01*
X352763Y61224D01*
X352539Y61102D01*
X352316Y61021D01*
X352112Y60960D01*
X351929Y60919D01*
X351766Y60899D01*
X351644Y60878D01*
X351543Y60858D01*
X351461D01*
X351217Y60878D01*
X350993Y60899D01*
X350546Y61021D01*
X350139Y61163D01*
X349793Y61346D01*
X349508Y61529D01*
X349305Y61692D01*
X349223Y61753D01*
X349162Y61814D01*
X349142Y61835D01*
X349121Y61855D01*
X348898Y62079D01*
X348694Y62343D01*
X348531Y62587D01*
X348389Y62852D01*
X348246Y63137D01*
X348145Y63401D01*
X348002Y63910D01*
X347941Y64134D01*
X347901Y64358D01*
X347880Y64541D01*
X347860Y64724D01*
X347840Y64866D01*
Y64968D01*
Y65029D01*
Y65049D01*
X347860Y65476D01*
X347901Y65863D01*
X347982Y66229D01*
X348063Y66534D01*
X348145Y66779D01*
X348226Y66982D01*
X348267Y67104D01*
X348287Y67124D01*
Y67145D01*
X348470Y67470D01*
X348674Y67776D01*
X348877Y68020D01*
X349060Y68223D01*
X349243Y68386D01*
X349386Y68508D01*
X349467Y68589D01*
X349508Y68610D01*
X349813Y68793D01*
X350139Y68955D01*
X350485Y69078D01*
X350810Y69200D01*
X351115Y69281D01*
X351339Y69342D01*
X351441Y69362D01*
X351502D01*
X351543Y69383D01*
X351563D01*
X351970Y66901D01*
X351644Y66840D01*
X351359Y66758D01*
X351115Y66677D01*
X350932Y66575D01*
X350769Y66473D01*
X350647Y66392D01*
X350586Y66331D01*
X350566Y66311D01*
X350403Y66128D01*
X350281Y65924D01*
X350200Y65721D01*
X350139Y65538D01*
X350098Y65375D01*
X350078Y65253D01*
Y65151D01*
Y65131D01*
X350098Y64886D01*
X350139Y64642D01*
X350220Y64459D01*
X350281Y64296D01*
X350362Y64154D01*
X350444Y64073D01*
X350485Y64012D01*
X350505Y63991D01*
X350668Y63849D01*
X350871Y63747D01*
X351054Y63666D01*
X351237Y63625D01*
X351400Y63584D01*
X351522Y63564D01*
X351644D01*
X351949Y63584D01*
X352214Y63645D01*
X352438Y63747D01*
X352621Y63849D01*
X352784Y63971D01*
X352885Y64052D01*
X352967Y64134D01*
X352987Y64154D01*
X353150Y64398D01*
X353272Y64663D01*
X353353Y64948D01*
X353414Y65212D01*
X353435Y65456D01*
X353455Y65660D01*
Y65741D01*
Y65802D01*
Y65822D01*
Y65843D01*
X355632Y66128D01*
X355571Y65863D01*
X355510Y65639D01*
X355469Y65415D01*
X355449Y65232D01*
X355428Y65090D01*
Y64988D01*
Y64907D01*
Y64886D01*
X355449Y64602D01*
X355530Y64358D01*
X355612Y64134D01*
X355734Y63930D01*
X355835Y63788D01*
X355937Y63666D01*
X356018Y63584D01*
X356039Y63564D01*
X356283Y63381D01*
X356547Y63239D01*
X356812Y63137D01*
X357076Y63055D01*
X357321Y63015D01*
X357504Y62994D01*
X357666D01*
X358053Y63015D01*
X358399Y63076D01*
X358704Y63177D01*
X358948Y63279D01*
X359131Y63401D01*
X359274Y63483D01*
X359375Y63564D01*
X359396Y63584D01*
X359599Y63808D01*
X359762Y64052D01*
X359864Y64276D01*
X359945Y64500D01*
X359986Y64703D01*
X360006Y64846D01*
X360027Y64948D01*
Y64988D01*
X360006Y65273D01*
X359945Y65517D01*
X359864Y65741D01*
X359762Y65944D01*
X359681Y66087D01*
X359599Y66209D01*
X359538Y66290D01*
X359518Y66311D01*
X359294Y66494D01*
X359050Y66656D01*
X358785Y66758D01*
X358541Y66860D01*
X358317Y66921D01*
X358134Y66962D01*
X358012Y66982D01*
X357972D01*
X358297Y69586D01*
X358623Y69545D01*
D02*
G37*
G36*
X362000Y54327D02*
Y51255D01*
X347921Y46250D01*
Y49282D01*
X358338Y52720D01*
X347921Y56301D01*
Y59373D01*
X362000Y54327D01*
D02*
G37*
G36*
X358623Y45477D02*
X358928Y45395D01*
X359497Y45212D01*
X359986Y44989D01*
X360189Y44846D01*
X360393Y44724D01*
X360576Y44602D01*
X360718Y44480D01*
X360861Y44378D01*
X360962Y44276D01*
X361044Y44195D01*
X361105Y44134D01*
X361146Y44093D01*
X361166Y44073D01*
X361349Y43829D01*
X361532Y43565D01*
X361674Y43320D01*
X361797Y43035D01*
X362000Y42506D01*
X362122Y42018D01*
X362163Y41774D01*
X362203Y41571D01*
X362224Y41388D01*
X362244Y41225D01*
X362265Y41082D01*
Y40981D01*
Y40920D01*
Y40899D01*
X362244Y40533D01*
X362203Y40167D01*
X362142Y39841D01*
X362061Y39516D01*
X361959Y39231D01*
X361858Y38946D01*
X361735Y38682D01*
X361613Y38458D01*
X361491Y38254D01*
X361369Y38051D01*
X361268Y37908D01*
X361166Y37766D01*
X361085Y37664D01*
X361023Y37583D01*
X360983Y37542D01*
X360962Y37522D01*
X360718Y37278D01*
X360454Y37074D01*
X360189Y36891D01*
X359925Y36728D01*
X359640Y36606D01*
X359375Y36484D01*
X358887Y36321D01*
X358663Y36281D01*
X358440Y36240D01*
X358256Y36199D01*
X358094Y36179D01*
X357972Y36159D01*
X357789D01*
X357321Y36199D01*
X356914Y36281D01*
X356527Y36383D01*
X356222Y36525D01*
X355957Y36667D01*
X355774Y36769D01*
X355652Y36851D01*
X355612Y36891D01*
X355306Y37176D01*
X355042Y37501D01*
X354838Y37827D01*
X354676Y38132D01*
X354554Y38397D01*
X354493Y38621D01*
X354452Y38702D01*
Y38763D01*
X354431Y38804D01*
Y38824D01*
X354208Y38458D01*
X353984Y38153D01*
X353740Y37888D01*
X353496Y37644D01*
X353251Y37441D01*
X353007Y37278D01*
X352763Y37156D01*
X352539Y37034D01*
X352316Y36952D01*
X352112Y36891D01*
X351929Y36851D01*
X351766Y36830D01*
X351644Y36810D01*
X351543Y36789D01*
X351461D01*
X351217Y36810D01*
X350993Y36830D01*
X350546Y36952D01*
X350139Y37095D01*
X349793Y37278D01*
X349508Y37461D01*
X349305Y37624D01*
X349223Y37685D01*
X349162Y37746D01*
X349142Y37766D01*
X349121Y37786D01*
X348898Y38010D01*
X348694Y38275D01*
X348531Y38519D01*
X348389Y38783D01*
X348246Y39068D01*
X348145Y39333D01*
X348002Y39841D01*
X347941Y40065D01*
X347901Y40289D01*
X347880Y40472D01*
X347860Y40655D01*
X347840Y40798D01*
Y40899D01*
Y40960D01*
Y40981D01*
X347860Y41408D01*
X347901Y41794D01*
X347982Y42161D01*
X348063Y42466D01*
X348145Y42710D01*
X348226Y42913D01*
X348267Y43035D01*
X348287Y43056D01*
Y43076D01*
X348470Y43402D01*
X348674Y43707D01*
X348877Y43951D01*
X349060Y44155D01*
X349243Y44317D01*
X349386Y44439D01*
X349467Y44521D01*
X349508Y44541D01*
X349813Y44724D01*
X350139Y44887D01*
X350485Y45009D01*
X350810Y45131D01*
X351115Y45212D01*
X351339Y45273D01*
X351441Y45294D01*
X351502D01*
X351543Y45314D01*
X351563D01*
X351970Y42832D01*
X351644Y42771D01*
X351359Y42690D01*
X351115Y42608D01*
X350932Y42506D01*
X350769Y42405D01*
X350647Y42323D01*
X350586Y42262D01*
X350566Y42242D01*
X350403Y42059D01*
X350281Y41855D01*
X350200Y41652D01*
X350139Y41469D01*
X350098Y41306D01*
X350078Y41184D01*
Y41082D01*
Y41062D01*
X350098Y40818D01*
X350139Y40574D01*
X350220Y40391D01*
X350281Y40228D01*
X350362Y40085D01*
X350444Y40004D01*
X350485Y39943D01*
X350505Y39923D01*
X350668Y39780D01*
X350871Y39678D01*
X351054Y39597D01*
X351237Y39556D01*
X351400Y39516D01*
X351522Y39495D01*
X351644D01*
X351949Y39516D01*
X352214Y39577D01*
X352438Y39678D01*
X352621Y39780D01*
X352784Y39902D01*
X352885Y39984D01*
X352967Y40065D01*
X352987Y40085D01*
X353150Y40329D01*
X353272Y40594D01*
X353353Y40879D01*
X353414Y41143D01*
X353435Y41388D01*
X353455Y41591D01*
Y41672D01*
Y41733D01*
Y41754D01*
Y41774D01*
X355632Y42059D01*
X355571Y41794D01*
X355510Y41571D01*
X355469Y41347D01*
X355449Y41164D01*
X355428Y41021D01*
Y40920D01*
Y40838D01*
Y40818D01*
X355449Y40533D01*
X355530Y40289D01*
X355612Y40065D01*
X355734Y39862D01*
X355835Y39719D01*
X355937Y39597D01*
X356018Y39516D01*
X356039Y39495D01*
X356283Y39312D01*
X356547Y39170D01*
X356812Y39068D01*
X357076Y38987D01*
X357321Y38946D01*
X357504Y38926D01*
X357666D01*
X358053Y38946D01*
X358399Y39007D01*
X358704Y39109D01*
X358948Y39211D01*
X359131Y39333D01*
X359274Y39414D01*
X359375Y39495D01*
X359396Y39516D01*
X359599Y39739D01*
X359762Y39984D01*
X359864Y40208D01*
X359945Y40431D01*
X359986Y40635D01*
X360006Y40777D01*
X360027Y40879D01*
Y40920D01*
X360006Y41204D01*
X359945Y41448D01*
X359864Y41672D01*
X359762Y41876D01*
X359681Y42018D01*
X359599Y42140D01*
X359538Y42222D01*
X359518Y42242D01*
X359294Y42425D01*
X359050Y42588D01*
X358785Y42690D01*
X358541Y42791D01*
X358317Y42852D01*
X358134Y42893D01*
X358012Y42913D01*
X357972D01*
X358297Y45518D01*
X358623Y45477D01*
D02*
G37*
G36*
X338000Y46852D02*
X335620D01*
Y54705D01*
X331795D01*
Y47645D01*
X329414D01*
Y54705D01*
X326301D01*
Y47116D01*
X323921D01*
Y57553D01*
X338000D01*
Y46852D01*
D02*
G37*
G36*
X326301Y41257D02*
X338000D01*
Y38408D01*
X326301D01*
Y34258D01*
X323921D01*
Y45427D01*
X326301D01*
Y41257D01*
D02*
G37*
G36*
X356324Y77318D02*
X359966D01*
Y74856D01*
X356324D01*
Y71153D01*
X353801D01*
Y74856D01*
X350159D01*
Y77318D01*
X353801D01*
Y81000D01*
X356324D01*
Y77318D01*
D02*
G37*
G36*
X382324Y66318D02*
X385965D01*
Y63856D01*
X382324D01*
Y60153D01*
X379801D01*
Y63856D01*
X376159D01*
Y66318D01*
X379801D01*
Y70000D01*
X382324D01*
Y66318D01*
D02*
G37*
G36*
X413000Y59567D02*
X403722D01*
X413000Y53850D01*
Y51002D01*
X398921D01*
Y53626D01*
X408402D01*
X398921Y59445D01*
Y62192D01*
X413000D01*
Y59567D01*
D02*
G37*
G36*
X189693Y437627D02*
X190263Y437566D01*
X190812Y437485D01*
X191300Y437363D01*
X191768Y437241D01*
X192216Y437078D01*
X192602Y436915D01*
X192948Y436752D01*
X193274Y436590D01*
X193559Y436427D01*
X193782Y436264D01*
X193986Y436142D01*
X194128Y436020D01*
X194250Y435938D01*
X194311Y435877D01*
X194332Y435857D01*
X194678Y435511D01*
X194962Y435145D01*
X195227Y434758D01*
X195430Y434372D01*
X195613Y433985D01*
X195776Y433599D01*
X195898Y433233D01*
X196000Y432887D01*
X196081Y432541D01*
X196142Y432236D01*
X196183Y431951D01*
X196203Y431727D01*
X196224Y431524D01*
X196244Y431381D01*
Y431300D01*
Y431259D01*
X196224Y430832D01*
X196203Y430445D01*
X196142Y430059D01*
X196061Y429713D01*
X195980Y429387D01*
X195898Y429082D01*
X195797Y428797D01*
X195674Y428533D01*
X195573Y428309D01*
X195471Y428106D01*
X195390Y427922D01*
X195308Y427780D01*
X195227Y427658D01*
X195166Y427576D01*
X195145Y427536D01*
X195125Y427515D01*
X194901Y427251D01*
X194657Y427007D01*
X194108Y426559D01*
X193538Y426193D01*
X192989Y425908D01*
X192724Y425786D01*
X192480Y425684D01*
X192256Y425603D01*
X192073Y425522D01*
X191911Y425461D01*
X191789Y425420D01*
X191707Y425400D01*
X191687D01*
X190832Y428167D01*
X191382Y428329D01*
X191849Y428512D01*
X192236Y428695D01*
X192562Y428899D01*
X192806Y429062D01*
X192969Y429204D01*
X193070Y429306D01*
X193111Y429347D01*
X193355Y429672D01*
X193518Y429998D01*
X193640Y430323D01*
X193742Y430608D01*
X193782Y430872D01*
X193803Y431096D01*
X193823Y431178D01*
Y431239D01*
Y431259D01*
Y431279D01*
X193803Y431564D01*
X193782Y431829D01*
X193640Y432317D01*
X193477Y432744D01*
X193253Y433090D01*
X193050Y433375D01*
X192887Y433578D01*
X192806Y433660D01*
X192745Y433721D01*
X192724Y433741D01*
X192704Y433761D01*
X192480Y433924D01*
X192216Y434067D01*
X191931Y434209D01*
X191626Y434311D01*
X190995Y434474D01*
X190364Y434596D01*
X190059Y434636D01*
X189795Y434657D01*
X189530Y434697D01*
X189306D01*
X189144Y434718D01*
X188879D01*
X188411Y434697D01*
X187984Y434677D01*
X187597Y434636D01*
X187231Y434575D01*
X186906Y434494D01*
X186600Y434413D01*
X186336Y434331D01*
X186092Y434230D01*
X185888Y434148D01*
X185705Y434067D01*
X185563Y433985D01*
X185441Y433904D01*
X185339Y433843D01*
X185278Y433802D01*
X185237Y433761D01*
X185217D01*
X185014Y433578D01*
X184830Y433375D01*
X184688Y433172D01*
X184566Y432948D01*
X184362Y432520D01*
X184220Y432114D01*
X184139Y431768D01*
X184118Y431605D01*
X184098Y431483D01*
X184078Y431361D01*
Y431279D01*
Y431239D01*
Y431218D01*
X184098Y430812D01*
X184179Y430445D01*
X184281Y430120D01*
X184403Y429835D01*
X184525Y429611D01*
X184627Y429448D01*
X184708Y429347D01*
X184729Y429306D01*
X184973Y429041D01*
X185258Y428797D01*
X185543Y428614D01*
X185827Y428472D01*
X186071Y428370D01*
X186255Y428309D01*
X186336Y428268D01*
X186397D01*
X186417Y428248D01*
X186438D01*
X185766Y425440D01*
X185176Y425644D01*
X184668Y425868D01*
X184220Y426112D01*
X183854Y426335D01*
X183569Y426559D01*
X183447Y426641D01*
X183345Y426722D01*
X183284Y426783D01*
X183223Y426844D01*
X183182Y426864D01*
Y426885D01*
X182918Y427190D01*
X182674Y427536D01*
X182470Y427861D01*
X182307Y428207D01*
X182145Y428573D01*
X182023Y428919D01*
X181921Y429265D01*
X181840Y429591D01*
X181779Y429896D01*
X181738Y430181D01*
X181697Y430425D01*
X181677Y430649D01*
X181656Y430832D01*
Y430954D01*
Y431056D01*
Y431076D01*
X181677Y431605D01*
X181738Y432134D01*
X181840Y432602D01*
X181962Y433070D01*
X182104Y433477D01*
X182267Y433884D01*
X182450Y434230D01*
X182633Y434555D01*
X182816Y434860D01*
X182999Y435104D01*
X183162Y435328D01*
X183305Y435511D01*
X183426Y435654D01*
X183528Y435755D01*
X183589Y435816D01*
X183610Y435837D01*
X183996Y436162D01*
X184403Y436427D01*
X184830Y436671D01*
X185278Y436874D01*
X185746Y437057D01*
X186194Y437200D01*
X186641Y437322D01*
X187068Y437424D01*
X187496Y437505D01*
X187862Y437546D01*
X188208Y437587D01*
X188493Y437627D01*
X188737D01*
X188920Y437648D01*
X189083D01*
X189693Y437627D01*
D02*
G37*
G36*
X413000Y42660D02*
X412980Y42111D01*
X412959Y41602D01*
X412919Y41175D01*
X412858Y40829D01*
X412797Y40544D01*
X412756Y40320D01*
X412735Y40259D01*
Y40198D01*
X412715Y40178D01*
Y40158D01*
X412552Y39710D01*
X412369Y39303D01*
X412186Y38977D01*
X412003Y38693D01*
X411840Y38469D01*
X411718Y38306D01*
X411637Y38204D01*
X411596Y38164D01*
X411210Y37818D01*
X410803Y37513D01*
X410376Y37248D01*
X409989Y37045D01*
X409623Y36882D01*
X409480Y36801D01*
X409358Y36760D01*
X409236Y36719D01*
X409155Y36679D01*
X409114Y36658D01*
X409094D01*
X408605Y36516D01*
X408097Y36394D01*
X407608Y36312D01*
X407141Y36272D01*
X406917Y36251D01*
X406713Y36231D01*
X406550D01*
X406388Y36210D01*
X406103D01*
X405391Y36231D01*
X404760Y36292D01*
X404455Y36312D01*
X404190Y36353D01*
X403926Y36394D01*
X403702Y36434D01*
X403499Y36495D01*
X403316Y36536D01*
X403153Y36577D01*
X403031Y36597D01*
X402929Y36638D01*
X402848Y36658D01*
X402807Y36679D01*
X402787D01*
X402298Y36862D01*
X401851Y37085D01*
X401464Y37309D01*
X401139Y37533D01*
X400874Y37716D01*
X400671Y37879D01*
X400549Y37981D01*
X400508Y38001D01*
Y38021D01*
X400182Y38367D01*
X399918Y38713D01*
X399694Y39079D01*
X399511Y39405D01*
X399369Y39690D01*
X399267Y39934D01*
X399246Y40015D01*
X399226Y40076D01*
X399206Y40117D01*
Y40137D01*
X399104Y40524D01*
X399043Y40951D01*
X398982Y41399D01*
X398962Y41826D01*
X398941Y42212D01*
X398921Y42375D01*
Y42538D01*
Y42660D01*
Y42741D01*
Y42803D01*
Y42823D01*
Y47990D01*
X413000D01*
Y42660D01*
D02*
G37*
G36*
X384745Y58383D02*
X385050Y58322D01*
X385599Y58118D01*
X386087Y57895D01*
X386291Y57772D01*
X386494Y57630D01*
X386657Y57508D01*
X386800Y57406D01*
X386922Y57284D01*
X387044Y57203D01*
X387125Y57121D01*
X387186Y57060D01*
X387206Y57020D01*
X387227Y56999D01*
X387410Y56755D01*
X387573Y56511D01*
X387715Y56247D01*
X387817Y55982D01*
X388020Y55433D01*
X388142Y54944D01*
X388183Y54700D01*
X388204Y54497D01*
X388224Y54293D01*
X388244Y54131D01*
X388265Y53988D01*
Y53886D01*
Y53825D01*
Y53805D01*
X388244Y53358D01*
X388183Y52930D01*
X388102Y52544D01*
X387980Y52177D01*
X387837Y51832D01*
X387674Y51526D01*
X387512Y51242D01*
X387329Y50977D01*
X387166Y50753D01*
X387003Y50550D01*
X386840Y50367D01*
X386698Y50224D01*
X386576Y50123D01*
X386494Y50041D01*
X386433Y50001D01*
X386413Y49980D01*
X386149Y49797D01*
X385884Y49634D01*
X385620Y49512D01*
X385335Y49390D01*
X384806Y49207D01*
X384318Y49085D01*
X384114Y49044D01*
X383911Y49024D01*
X383727Y48983D01*
X383565D01*
X383443Y48963D01*
X383280D01*
X382893Y48983D01*
X382527Y49024D01*
X382181Y49085D01*
X381856Y49166D01*
X381571Y49248D01*
X381286Y49370D01*
X381021Y49472D01*
X380798Y49594D01*
X380594Y49716D01*
X380411Y49817D01*
X380248Y49939D01*
X380126Y50021D01*
X380025Y50102D01*
X379943Y50163D01*
X379902Y50204D01*
X379882Y50224D01*
X379658Y50468D01*
X379455Y50713D01*
X379272Y50977D01*
X379109Y51242D01*
X378987Y51486D01*
X378885Y51750D01*
X378722Y52218D01*
X378661Y52442D01*
X378621Y52645D01*
X378600Y52828D01*
X378580Y52971D01*
X378560Y53093D01*
Y53195D01*
Y53256D01*
Y53276D01*
X378580Y53622D01*
X378641Y53968D01*
X378702Y54273D01*
X378783Y54558D01*
X378885Y54782D01*
X378946Y54965D01*
X379007Y55087D01*
X379028Y55107D01*
Y55128D01*
X376627Y54700D01*
Y49594D01*
X374104D01*
Y56735D01*
X381449Y58118D01*
X381754Y55941D01*
X381571Y55758D01*
X381408Y55575D01*
X381266Y55392D01*
X381144Y55209D01*
X380961Y54863D01*
X380838Y54538D01*
X380777Y54253D01*
X380737Y54049D01*
X380716Y53968D01*
Y53907D01*
Y53866D01*
Y53846D01*
X380737Y53520D01*
X380818Y53215D01*
X380920Y52951D01*
X381042Y52727D01*
X381184Y52564D01*
X381286Y52422D01*
X381367Y52340D01*
X381388Y52320D01*
X381652Y52116D01*
X381957Y51974D01*
X382283Y51872D01*
X382608Y51811D01*
X382893Y51750D01*
X383117Y51730D01*
X383341D01*
X383829Y51750D01*
X384257Y51811D01*
X384602Y51913D01*
X384887Y52015D01*
X385131Y52137D01*
X385294Y52218D01*
X385376Y52299D01*
X385416Y52320D01*
X385640Y52544D01*
X385823Y52788D01*
X385945Y53032D01*
X386026Y53256D01*
X386067Y53459D01*
X386087Y53622D01*
X386108Y53724D01*
Y53764D01*
X386087Y54029D01*
X386026Y54293D01*
X385945Y54517D01*
X385843Y54700D01*
X385742Y54863D01*
X385660Y54985D01*
X385599Y55066D01*
X385579Y55087D01*
X385355Y55270D01*
X385131Y55433D01*
X384887Y55555D01*
X384663Y55636D01*
X384460Y55697D01*
X384277Y55738D01*
X384175Y55758D01*
X384134D01*
X384419Y58444D01*
X384745Y58383D01*
D02*
G37*
G36*
X388000Y43327D02*
Y40255D01*
X373921Y35250D01*
Y38282D01*
X384338Y41720D01*
X373921Y45301D01*
Y48373D01*
X388000Y43327D01*
D02*
G37*
G36*
X406673Y77959D02*
X407364Y77878D01*
X407995Y77736D01*
X408300Y77674D01*
X408565Y77593D01*
X408809Y77512D01*
X409033Y77451D01*
X409216Y77369D01*
X409379Y77308D01*
X409501Y77268D01*
X409602Y77227D01*
X409663Y77186D01*
X409684D01*
X410294Y76840D01*
X410823Y76454D01*
X411291Y76047D01*
X411657Y75640D01*
X411820Y75457D01*
X411962Y75274D01*
X412085Y75131D01*
X412166Y74989D01*
X412247Y74887D01*
X412308Y74785D01*
X412329Y74745D01*
X412349Y74724D01*
X412512Y74399D01*
X412654Y74094D01*
X412878Y73422D01*
X413041Y72771D01*
X413142Y72181D01*
X413183Y71896D01*
X413224Y71652D01*
X413244Y71428D01*
Y71225D01*
X413265Y71083D01*
Y70960D01*
Y70879D01*
Y70859D01*
X413244Y70208D01*
X413163Y69597D01*
X413061Y69007D01*
X412939Y68499D01*
X412878Y68275D01*
X412817Y68071D01*
X412756Y67888D01*
X412715Y67726D01*
X412674Y67604D01*
X412634Y67522D01*
X412613Y67461D01*
Y67441D01*
X412369Y66830D01*
X412105Y66322D01*
X411840Y65874D01*
X411617Y65488D01*
X411413Y65203D01*
X411332Y65101D01*
X411250Y64999D01*
X411189Y64938D01*
X411149Y64877D01*
X411108Y64837D01*
X405452D01*
Y70960D01*
X407832D01*
Y67705D01*
X409643D01*
X409826Y67949D01*
X409989Y68214D01*
X410131Y68478D01*
X410253Y68723D01*
X410355Y68926D01*
X410437Y69109D01*
X410477Y69211D01*
X410498Y69231D01*
Y69251D01*
X410620Y69577D01*
X410701Y69903D01*
X410762Y70208D01*
X410803Y70472D01*
X410823Y70716D01*
X410843Y70879D01*
Y71001D01*
Y71021D01*
Y71042D01*
X410823Y71367D01*
X410782Y71693D01*
X410721Y71978D01*
X410640Y72263D01*
X410437Y72771D01*
X410335Y72975D01*
X410213Y73178D01*
X410091Y73361D01*
X409989Y73524D01*
X409867Y73646D01*
X409785Y73768D01*
X409704Y73850D01*
X409643Y73911D01*
X409602Y73951D01*
X409582Y73972D01*
X409338Y74155D01*
X409053Y74338D01*
X408768Y74480D01*
X408463Y74602D01*
X407832Y74806D01*
X407222Y74928D01*
X406937Y74969D01*
X406652Y75009D01*
X406428Y75030D01*
X406205Y75050D01*
X406042Y75070D01*
X405798D01*
X405370Y75050D01*
X404984Y75030D01*
X404597Y74969D01*
X404252Y74907D01*
X403946Y74826D01*
X403661Y74724D01*
X403397Y74623D01*
X403153Y74521D01*
X402949Y74440D01*
X402766Y74338D01*
X402624Y74236D01*
X402502Y74155D01*
X402400Y74094D01*
X402339Y74033D01*
X402298Y74012D01*
X402278Y73992D01*
X402075Y73768D01*
X401871Y73544D01*
X401729Y73300D01*
X401586Y73056D01*
X401464Y72812D01*
X401362Y72568D01*
X401220Y72100D01*
X401179Y71876D01*
X401139Y71673D01*
X401118Y71490D01*
X401098Y71327D01*
X401078Y71205D01*
Y71103D01*
Y71042D01*
Y71021D01*
X401098Y70574D01*
X401179Y70187D01*
X401261Y69841D01*
X401383Y69536D01*
X401484Y69313D01*
X401586Y69129D01*
X401668Y69028D01*
X401688Y68987D01*
X401932Y68702D01*
X402197Y68458D01*
X402461Y68254D01*
X402726Y68112D01*
X402970Y67990D01*
X403153Y67909D01*
X403275Y67868D01*
X403295Y67848D01*
X403316D01*
X402787Y65020D01*
X402441Y65101D01*
X402095Y65223D01*
X401790Y65345D01*
X401505Y65508D01*
X401220Y65650D01*
X400976Y65813D01*
X400752Y65976D01*
X400549Y66139D01*
X400365Y66301D01*
X400203Y66444D01*
X400060Y66566D01*
X399959Y66688D01*
X399877Y66790D01*
X399796Y66871D01*
X399776Y66912D01*
X399755Y66932D01*
X399552Y67217D01*
X399389Y67522D01*
X399246Y67848D01*
X399124Y68193D01*
X398921Y68865D01*
X398799Y69516D01*
X398738Y69821D01*
X398717Y70106D01*
X398697Y70370D01*
X398677Y70594D01*
X398657Y70777D01*
Y70900D01*
Y71001D01*
Y71021D01*
X398677Y71754D01*
X398758Y72405D01*
X398819Y72690D01*
X398880Y72975D01*
X398941Y73239D01*
X399002Y73463D01*
X399084Y73666D01*
X399145Y73870D01*
X399206Y74012D01*
X399246Y74155D01*
X399308Y74256D01*
X399328Y74338D01*
X399369Y74378D01*
Y74399D01*
X399735Y75030D01*
X399959Y75294D01*
X400162Y75559D01*
X400386Y75803D01*
X400610Y76027D01*
X400834Y76230D01*
X401037Y76413D01*
X401240Y76556D01*
X401423Y76698D01*
X401586Y76820D01*
X401729Y76922D01*
X401851Y76983D01*
X401932Y77044D01*
X401993Y77064D01*
X402014Y77084D01*
X402339Y77247D01*
X402664Y77390D01*
X403336Y77613D01*
X404007Y77776D01*
X404597Y77878D01*
X404882Y77919D01*
X405126Y77959D01*
X405350Y77980D01*
X405554D01*
X405696Y78000D01*
X405920D01*
X406673Y77959D01*
D02*
G37*
G36*
X309745Y99133D02*
X310050Y99072D01*
X310599Y98868D01*
X311087Y98645D01*
X311291Y98522D01*
X311494Y98380D01*
X311657Y98258D01*
X311800Y98156D01*
X311922Y98034D01*
X312044Y97953D01*
X312125Y97871D01*
X312186Y97810D01*
X312206Y97770D01*
X312227Y97749D01*
X312410Y97505D01*
X312573Y97261D01*
X312715Y96996D01*
X312817Y96732D01*
X313020Y96183D01*
X313142Y95694D01*
X313183Y95450D01*
X313203Y95247D01*
X313224Y95043D01*
X313244Y94881D01*
X313265Y94738D01*
Y94636D01*
Y94575D01*
Y94555D01*
X313244Y94108D01*
X313183Y93680D01*
X313102Y93294D01*
X312980Y92927D01*
X312837Y92582D01*
X312675Y92276D01*
X312512Y91992D01*
X312329Y91727D01*
X312166Y91503D01*
X312003Y91300D01*
X311840Y91117D01*
X311698Y90974D01*
X311576Y90873D01*
X311494Y90791D01*
X311433Y90751D01*
X311413Y90730D01*
X311149Y90547D01*
X310884Y90384D01*
X310620Y90262D01*
X310335Y90140D01*
X309806Y89957D01*
X309317Y89835D01*
X309114Y89794D01*
X308911Y89774D01*
X308727Y89733D01*
X308565D01*
X308443Y89713D01*
X308280D01*
X307893Y89733D01*
X307527Y89774D01*
X307181Y89835D01*
X306856Y89916D01*
X306571Y89998D01*
X306286Y90120D01*
X306021Y90222D01*
X305798Y90344D01*
X305594Y90466D01*
X305411Y90567D01*
X305248Y90689D01*
X305126Y90771D01*
X305025Y90852D01*
X304943Y90913D01*
X304902Y90954D01*
X304882Y90974D01*
X304658Y91218D01*
X304455Y91463D01*
X304272Y91727D01*
X304109Y91992D01*
X303987Y92236D01*
X303885Y92500D01*
X303722Y92968D01*
X303661Y93192D01*
X303621Y93395D01*
X303600Y93579D01*
X303580Y93721D01*
X303560Y93843D01*
Y93945D01*
Y94006D01*
Y94026D01*
X303580Y94372D01*
X303641Y94718D01*
X303702Y95023D01*
X303783Y95308D01*
X303885Y95532D01*
X303946Y95715D01*
X304007Y95837D01*
X304028Y95857D01*
Y95878D01*
X301627Y95450D01*
Y90344D01*
X299104D01*
Y97485D01*
X306449Y98868D01*
X306754Y96691D01*
X306571Y96508D01*
X306408Y96325D01*
X306266Y96142D01*
X306144Y95959D01*
X305961Y95613D01*
X305838Y95288D01*
X305777Y95003D01*
X305737Y94799D01*
X305716Y94718D01*
Y94657D01*
Y94616D01*
Y94596D01*
X305737Y94270D01*
X305818Y93965D01*
X305920Y93701D01*
X306042Y93477D01*
X306184Y93314D01*
X306286Y93172D01*
X306367Y93090D01*
X306388Y93070D01*
X306652Y92866D01*
X306957Y92724D01*
X307283Y92622D01*
X307609Y92561D01*
X307893Y92500D01*
X308117Y92480D01*
X308341D01*
X308829Y92500D01*
X309256Y92561D01*
X309602Y92663D01*
X309887Y92765D01*
X310131Y92887D01*
X310294Y92968D01*
X310375Y93049D01*
X310416Y93070D01*
X310640Y93294D01*
X310823Y93538D01*
X310945Y93782D01*
X311026Y94006D01*
X311067Y94209D01*
X311087Y94372D01*
X311108Y94474D01*
Y94514D01*
X311087Y94779D01*
X311026Y95043D01*
X310945Y95267D01*
X310843Y95450D01*
X310742Y95613D01*
X310660Y95735D01*
X310599Y95816D01*
X310579Y95837D01*
X310355Y96020D01*
X310131Y96183D01*
X309887Y96305D01*
X309663Y96386D01*
X309460Y96447D01*
X309277Y96488D01*
X309175Y96508D01*
X309134D01*
X309419Y99194D01*
X309745Y99133D01*
D02*
G37*
G36*
X313000Y84077D02*
Y81005D01*
X298921Y76000D01*
Y79032D01*
X309338Y82470D01*
X298921Y86051D01*
Y89123D01*
X313000Y84077D01*
D02*
G37*
G36*
X313244Y74027D02*
X298677Y70507D01*
Y72541D01*
X313244Y76020D01*
Y74027D01*
D02*
G37*
G36*
X285000Y61375D02*
X275723D01*
X285000Y55658D01*
Y52810D01*
X270921D01*
Y55435D01*
X280402D01*
X270921Y61253D01*
Y64000D01*
X285000D01*
Y61375D01*
D02*
G37*
G36*
X278693Y50287D02*
X279263Y50226D01*
X279812Y50145D01*
X280300Y50023D01*
X280768Y49901D01*
X281216Y49738D01*
X281602Y49575D01*
X281948Y49412D01*
X282274Y49250D01*
X282559Y49087D01*
X282782Y48924D01*
X282986Y48802D01*
X283128Y48680D01*
X283250Y48599D01*
X283311Y48538D01*
X283332Y48517D01*
X283678Y48171D01*
X283962Y47805D01*
X284227Y47418D01*
X284430Y47032D01*
X284613Y46645D01*
X284776Y46259D01*
X284898Y45893D01*
X285000Y45547D01*
X285081Y45201D01*
X285142Y44896D01*
X285183Y44611D01*
X285203Y44387D01*
X285224Y44184D01*
X285244Y44041D01*
Y43960D01*
Y43919D01*
X285224Y43492D01*
X285203Y43105D01*
X285142Y42719D01*
X285061Y42373D01*
X284980Y42047D01*
X284898Y41742D01*
X284797Y41457D01*
X284674Y41193D01*
X284573Y40969D01*
X284471Y40766D01*
X284390Y40582D01*
X284308Y40440D01*
X284227Y40318D01*
X284166Y40237D01*
X284146Y40196D01*
X284125Y40176D01*
X283901Y39911D01*
X283657Y39667D01*
X283108Y39219D01*
X282538Y38853D01*
X281989Y38568D01*
X281724Y38446D01*
X281480Y38345D01*
X281257Y38263D01*
X281073Y38182D01*
X280911Y38121D01*
X280788Y38080D01*
X280707Y38060D01*
X280687D01*
X279832Y40827D01*
X280382Y40989D01*
X280850Y41172D01*
X281236Y41356D01*
X281562Y41559D01*
X281806Y41722D01*
X281968Y41864D01*
X282070Y41966D01*
X282111Y42007D01*
X282355Y42332D01*
X282518Y42658D01*
X282640Y42983D01*
X282742Y43268D01*
X282782Y43533D01*
X282803Y43756D01*
X282823Y43838D01*
Y43899D01*
Y43919D01*
Y43939D01*
X282803Y44224D01*
X282782Y44489D01*
X282640Y44977D01*
X282477Y45404D01*
X282253Y45750D01*
X282050Y46035D01*
X281887Y46238D01*
X281806Y46320D01*
X281745Y46381D01*
X281724Y46401D01*
X281704Y46422D01*
X281480Y46584D01*
X281216Y46727D01*
X280931Y46869D01*
X280626Y46971D01*
X279995Y47134D01*
X279364Y47256D01*
X279059Y47297D01*
X278795Y47317D01*
X278530Y47358D01*
X278306D01*
X278144Y47378D01*
X277879D01*
X277411Y47358D01*
X276984Y47337D01*
X276597Y47297D01*
X276231Y47235D01*
X275906Y47154D01*
X275600Y47073D01*
X275336Y46991D01*
X275092Y46890D01*
X274888Y46808D01*
X274705Y46727D01*
X274563Y46645D01*
X274441Y46564D01*
X274339Y46503D01*
X274278Y46462D01*
X274237Y46422D01*
X274217D01*
X274014Y46238D01*
X273830Y46035D01*
X273688Y45832D01*
X273566Y45608D01*
X273362Y45181D01*
X273220Y44774D01*
X273139Y44428D01*
X273118Y44265D01*
X273098Y44143D01*
X273078Y44021D01*
Y43939D01*
Y43899D01*
Y43878D01*
X273098Y43471D01*
X273179Y43105D01*
X273281Y42780D01*
X273403Y42495D01*
X273525Y42271D01*
X273627Y42108D01*
X273708Y42007D01*
X273729Y41966D01*
X273973Y41701D01*
X274258Y41457D01*
X274543Y41274D01*
X274827Y41132D01*
X275072Y41030D01*
X275255Y40969D01*
X275336Y40928D01*
X275397D01*
X275417Y40908D01*
X275438D01*
X274766Y38100D01*
X274176Y38304D01*
X273668Y38528D01*
X273220Y38772D01*
X272854Y38995D01*
X272569Y39219D01*
X272447Y39301D01*
X272345Y39382D01*
X272284Y39443D01*
X272223Y39504D01*
X272182Y39525D01*
Y39545D01*
X271918Y39850D01*
X271674Y40196D01*
X271470Y40521D01*
X271308Y40867D01*
X271145Y41234D01*
X271023Y41579D01*
X270921Y41925D01*
X270840Y42251D01*
X270779Y42556D01*
X270738Y42841D01*
X270697Y43085D01*
X270677Y43309D01*
X270657Y43492D01*
Y43614D01*
Y43716D01*
Y43736D01*
X270677Y44265D01*
X270738Y44794D01*
X270840Y45262D01*
X270962Y45730D01*
X271104Y46137D01*
X271267Y46544D01*
X271450Y46890D01*
X271633Y47215D01*
X271816Y47520D01*
X271999Y47764D01*
X272162Y47988D01*
X272304Y48171D01*
X272427Y48314D01*
X272528Y48415D01*
X272589Y48477D01*
X272610Y48497D01*
X272996Y48822D01*
X273403Y49087D01*
X273830Y49331D01*
X274278Y49534D01*
X274746Y49718D01*
X275194Y49860D01*
X275641Y49982D01*
X276068Y50084D01*
X276496Y50165D01*
X276862Y50206D01*
X277208Y50247D01*
X277493Y50287D01*
X277737D01*
X277920Y50308D01*
X278083D01*
X278693Y50287D01*
D02*
G37*
G36*
X307324Y107067D02*
X310965D01*
Y104606D01*
X307324D01*
Y100903D01*
X304801D01*
Y104606D01*
X301159D01*
Y107067D01*
X304801D01*
Y110750D01*
X307324D01*
Y107067D01*
D02*
G37*
G36*
X309623Y69754D02*
X309928Y69673D01*
X310497Y69489D01*
X310986Y69266D01*
X311189Y69123D01*
X311393Y69001D01*
X311576Y68879D01*
X311718Y68757D01*
X311861Y68655D01*
X311962Y68554D01*
X312044Y68472D01*
X312105Y68411D01*
X312146Y68371D01*
X312166Y68350D01*
X312349Y68106D01*
X312532Y67842D01*
X312675Y67597D01*
X312796Y67313D01*
X313000Y66784D01*
X313122Y66295D01*
X313163Y66051D01*
X313203Y65848D01*
X313224Y65665D01*
X313244Y65502D01*
X313265Y65359D01*
Y65258D01*
Y65197D01*
Y65176D01*
X313244Y64810D01*
X313203Y64444D01*
X313142Y64118D01*
X313061Y63793D01*
X312959Y63508D01*
X312858Y63223D01*
X312736Y62959D01*
X312613Y62735D01*
X312491Y62531D01*
X312369Y62328D01*
X312267Y62186D01*
X312166Y62043D01*
X312084Y61941D01*
X312023Y61860D01*
X311983Y61819D01*
X311962Y61799D01*
X311718Y61555D01*
X311454Y61351D01*
X311189Y61168D01*
X310925Y61006D01*
X310640Y60883D01*
X310375Y60761D01*
X309887Y60599D01*
X309663Y60558D01*
X309440Y60517D01*
X309256Y60476D01*
X309094Y60456D01*
X308972Y60436D01*
X308789D01*
X308321Y60476D01*
X307914Y60558D01*
X307527Y60660D01*
X307222Y60802D01*
X306957Y60944D01*
X306774Y61046D01*
X306652Y61128D01*
X306611Y61168D01*
X306306Y61453D01*
X306042Y61779D01*
X305838Y62104D01*
X305676Y62409D01*
X305554Y62674D01*
X305492Y62898D01*
X305452Y62979D01*
Y63040D01*
X305431Y63081D01*
Y63101D01*
X305208Y62735D01*
X304984Y62430D01*
X304740Y62165D01*
X304496Y61921D01*
X304251Y61718D01*
X304007Y61555D01*
X303763Y61433D01*
X303539Y61311D01*
X303316Y61229D01*
X303112Y61168D01*
X302929Y61128D01*
X302766Y61107D01*
X302644Y61087D01*
X302542Y61067D01*
X302461D01*
X302217Y61087D01*
X301993Y61107D01*
X301546Y61229D01*
X301139Y61372D01*
X300793Y61555D01*
X300508Y61738D01*
X300305Y61901D01*
X300223Y61962D01*
X300162Y62023D01*
X300142Y62043D01*
X300121Y62063D01*
X299897Y62287D01*
X299694Y62552D01*
X299531Y62796D01*
X299389Y63060D01*
X299247Y63345D01*
X299145Y63610D01*
X299002Y64118D01*
X298941Y64342D01*
X298901Y64566D01*
X298880Y64749D01*
X298860Y64932D01*
X298840Y65075D01*
Y65176D01*
Y65237D01*
Y65258D01*
X298860Y65685D01*
X298901Y66072D01*
X298982Y66438D01*
X299063Y66743D01*
X299145Y66987D01*
X299226Y67190D01*
X299267Y67313D01*
X299287Y67333D01*
Y67353D01*
X299470Y67679D01*
X299674Y67984D01*
X299877Y68228D01*
X300060Y68432D01*
X300243Y68594D01*
X300386Y68716D01*
X300467Y68798D01*
X300508Y68818D01*
X300813Y69001D01*
X301139Y69164D01*
X301485Y69286D01*
X301810Y69408D01*
X302115Y69489D01*
X302339Y69551D01*
X302441Y69571D01*
X302502D01*
X302542Y69591D01*
X302563D01*
X302970Y67109D01*
X302644Y67048D01*
X302359Y66967D01*
X302115Y66885D01*
X301932Y66784D01*
X301769Y66682D01*
X301647Y66600D01*
X301586Y66540D01*
X301566Y66519D01*
X301403Y66336D01*
X301281Y66133D01*
X301200Y65929D01*
X301139Y65746D01*
X301098Y65583D01*
X301078Y65461D01*
Y65359D01*
Y65339D01*
X301098Y65095D01*
X301139Y64851D01*
X301220Y64668D01*
X301281Y64505D01*
X301362Y64363D01*
X301444Y64281D01*
X301485Y64220D01*
X301505Y64200D01*
X301668Y64057D01*
X301871Y63956D01*
X302054Y63874D01*
X302237Y63833D01*
X302400Y63793D01*
X302522Y63773D01*
X302644D01*
X302949Y63793D01*
X303214Y63854D01*
X303438Y63956D01*
X303621Y64057D01*
X303783Y64179D01*
X303885Y64261D01*
X303967Y64342D01*
X303987Y64363D01*
X304150Y64607D01*
X304272Y64871D01*
X304353Y65156D01*
X304414Y65420D01*
X304435Y65665D01*
X304455Y65868D01*
Y65949D01*
Y66010D01*
Y66031D01*
Y66051D01*
X306632Y66336D01*
X306571Y66072D01*
X306510Y65848D01*
X306469Y65624D01*
X306449Y65441D01*
X306428Y65298D01*
Y65197D01*
Y65115D01*
Y65095D01*
X306449Y64810D01*
X306530Y64566D01*
X306611Y64342D01*
X306734Y64139D01*
X306835Y63996D01*
X306937Y63874D01*
X307018Y63793D01*
X307039Y63773D01*
X307283Y63589D01*
X307547Y63447D01*
X307812Y63345D01*
X308076Y63264D01*
X308321Y63223D01*
X308504Y63203D01*
X308666D01*
X309053Y63223D01*
X309399Y63284D01*
X309704Y63386D01*
X309948Y63488D01*
X310131Y63610D01*
X310274Y63691D01*
X310375Y63773D01*
X310396Y63793D01*
X310599Y64017D01*
X310762Y64261D01*
X310864Y64485D01*
X310945Y64708D01*
X310986Y64912D01*
X311006Y65054D01*
X311026Y65156D01*
Y65197D01*
X311006Y65482D01*
X310945Y65726D01*
X310864Y65949D01*
X310762Y66153D01*
X310681Y66295D01*
X310599Y66417D01*
X310538Y66499D01*
X310518Y66519D01*
X310294Y66702D01*
X310050Y66865D01*
X309785Y66967D01*
X309541Y67068D01*
X309317Y67130D01*
X309134Y67170D01*
X309012Y67190D01*
X308972D01*
X309297Y69795D01*
X309623Y69754D01*
D02*
G37*
G36*
X338000Y95152D02*
X332120D01*
Y94582D01*
Y94236D01*
X332141Y93951D01*
X332161Y93707D01*
X332201Y93504D01*
X332222Y93341D01*
X332263Y93239D01*
X332283Y93178D01*
Y93158D01*
X332364Y92995D01*
X332446Y92832D01*
X332547Y92690D01*
X332629Y92547D01*
X332730Y92446D01*
X332812Y92364D01*
X332853Y92324D01*
X332873Y92303D01*
X332975Y92222D01*
X333076Y92120D01*
X333382Y91896D01*
X333707Y91652D01*
X334073Y91388D01*
X334399Y91164D01*
X334562Y91062D01*
X334684Y90981D01*
X334785Y90899D01*
X334867Y90838D01*
X334928Y90818D01*
X334948Y90798D01*
X338000Y88763D01*
Y85345D01*
X335253Y87074D01*
X334968Y87258D01*
X334684Y87441D01*
X334440Y87604D01*
X334216Y87766D01*
X334012Y87909D01*
X333809Y88031D01*
X333504Y88275D01*
X333260Y88458D01*
X333097Y88580D01*
X332995Y88682D01*
X332975Y88702D01*
X332730Y88926D01*
X332507Y89190D01*
X332324Y89435D01*
X332141Y89679D01*
X331998Y89882D01*
X331896Y90045D01*
X331815Y90167D01*
X331795Y90187D01*
Y90208D01*
X331734Y89862D01*
X331652Y89557D01*
X331571Y89272D01*
X331469Y88987D01*
X331367Y88743D01*
X331266Y88519D01*
X331164Y88295D01*
X331042Y88112D01*
X330940Y87949D01*
X330838Y87807D01*
X330737Y87685D01*
X330655Y87604D01*
X330594Y87522D01*
X330533Y87461D01*
X330513Y87441D01*
X330493Y87420D01*
X330289Y87258D01*
X330086Y87115D01*
X329638Y86871D01*
X329211Y86708D01*
X328783Y86607D01*
X328417Y86525D01*
X328275Y86505D01*
X328133D01*
X328031Y86484D01*
X327868D01*
X327420Y86505D01*
X326993Y86586D01*
X326627Y86688D01*
X326301Y86790D01*
X326037Y86912D01*
X325833Y87014D01*
X325772Y87054D01*
X325711Y87095D01*
X325691Y87115D01*
X325671D01*
X325325Y87359D01*
X325040Y87624D01*
X324816Y87888D01*
X324613Y88153D01*
X324491Y88397D01*
X324389Y88580D01*
X324328Y88702D01*
X324308Y88722D01*
Y88743D01*
X324246Y88946D01*
X324185Y89170D01*
X324084Y89679D01*
X324023Y90228D01*
X323962Y90757D01*
Y91021D01*
X323941Y91245D01*
Y91469D01*
X323921Y91652D01*
Y91795D01*
Y91917D01*
Y91998D01*
Y92018D01*
Y98000D01*
X338000D01*
Y95152D01*
D02*
G37*
G36*
Y73097D02*
X335620D01*
Y80950D01*
X331795D01*
Y73891D01*
X329414D01*
Y80950D01*
X326301D01*
Y73362D01*
X323921D01*
Y83799D01*
X338000D01*
Y73097D01*
D02*
G37*
G36*
X333849Y71368D02*
X334256Y71287D01*
X334643Y71164D01*
X334989Y71063D01*
X335314Y70920D01*
X335620Y70778D01*
X335884Y70635D01*
X336128Y70493D01*
X336332Y70351D01*
X336515Y70208D01*
X336678Y70086D01*
X336820Y69964D01*
X336922Y69883D01*
X336983Y69801D01*
X337023Y69761D01*
X337044Y69740D01*
X337267Y69455D01*
X337451Y69150D01*
X337613Y68825D01*
X337756Y68479D01*
X337858Y68153D01*
X337959Y67807D01*
X338102Y67136D01*
X338163Y66831D01*
X338203Y66546D01*
X338224Y66302D01*
X338244Y66078D01*
X338265Y65895D01*
Y65753D01*
Y65651D01*
Y65630D01*
X338244Y64979D01*
X338183Y64389D01*
X338102Y63860D01*
X338061Y63637D01*
X338000Y63413D01*
X337959Y63230D01*
X337919Y63067D01*
X337878Y62924D01*
X337837Y62802D01*
X337797Y62701D01*
X337776Y62640D01*
X337756Y62599D01*
Y62579D01*
X337532Y62131D01*
X337288Y61765D01*
X337044Y61419D01*
X336779Y61154D01*
X336555Y60951D01*
X336352Y60788D01*
X336230Y60707D01*
X336210Y60666D01*
X336189D01*
X335782Y60442D01*
X335396Y60259D01*
X335009Y60137D01*
X334643Y60056D01*
X334358Y60015D01*
X334216Y59995D01*
X334114Y59974D01*
X333911D01*
X333422Y59995D01*
X332995Y60056D01*
X332608Y60157D01*
X332283Y60259D01*
X332018Y60361D01*
X331835Y60463D01*
X331713Y60524D01*
X331673Y60544D01*
X331347Y60768D01*
X331062Y61032D01*
X330818Y61297D01*
X330615Y61541D01*
X330452Y61765D01*
X330330Y61948D01*
X330248Y62070D01*
X330228Y62090D01*
Y62111D01*
X330126Y62314D01*
X330025Y62518D01*
X329841Y63006D01*
X329679Y63514D01*
X329516Y64003D01*
X329455Y64227D01*
X329394Y64450D01*
X329333Y64654D01*
X329292Y64817D01*
X329252Y64959D01*
X329231Y65061D01*
X329211Y65142D01*
Y65163D01*
X329109Y65529D01*
X329028Y65854D01*
X328946Y66159D01*
X328865Y66444D01*
X328783Y66668D01*
X328702Y66892D01*
X328621Y67075D01*
X328560Y67238D01*
X328499Y67380D01*
X328438Y67482D01*
X328397Y67584D01*
X328356Y67645D01*
X328295Y67746D01*
X328275Y67767D01*
X328133Y67909D01*
X327990Y68011D01*
X327848Y68072D01*
X327705Y68113D01*
X327603Y68153D01*
X327502Y68174D01*
X327420D01*
X327217Y68153D01*
X327054Y68113D01*
X326891Y68031D01*
X326769Y67950D01*
X326668Y67868D01*
X326607Y67787D01*
X326566Y67746D01*
X326545Y67726D01*
X326362Y67441D01*
X326240Y67136D01*
X326139Y66810D01*
X326078Y66505D01*
X326037Y66241D01*
X326017Y66017D01*
Y65936D01*
Y65875D01*
Y65834D01*
Y65814D01*
X326037Y65386D01*
X326098Y65020D01*
X326179Y64715D01*
X326261Y64471D01*
X326342Y64267D01*
X326423Y64125D01*
X326484Y64043D01*
X326505Y64023D01*
X326708Y63820D01*
X326952Y63637D01*
X327197Y63494D01*
X327461Y63393D01*
X327685Y63311D01*
X327868Y63270D01*
X328010Y63230D01*
X328051D01*
X327949Y60381D01*
X327583Y60402D01*
X327258Y60463D01*
X326932Y60544D01*
X326647Y60646D01*
X326362Y60748D01*
X326098Y60870D01*
X325874Y60992D01*
X325650Y61114D01*
X325467Y61256D01*
X325304Y61378D01*
X325162Y61500D01*
X325040Y61602D01*
X324959Y61683D01*
X324897Y61744D01*
X324857Y61785D01*
X324837Y61806D01*
X324633Y62070D01*
X324450Y62355D01*
X324287Y62660D01*
X324145Y62986D01*
X324043Y63311D01*
X323941Y63637D01*
X323799Y64288D01*
X323758Y64593D01*
X323717Y64857D01*
X323697Y65122D01*
X323677Y65346D01*
X323657Y65529D01*
Y65651D01*
Y65732D01*
Y65773D01*
X323677Y66363D01*
X323738Y66892D01*
X323819Y67360D01*
X323901Y67767D01*
X323962Y67950D01*
X324002Y68113D01*
X324043Y68235D01*
X324084Y68357D01*
X324124Y68438D01*
X324145Y68499D01*
X324165Y68540D01*
Y68560D01*
X324369Y68967D01*
X324592Y69313D01*
X324837Y69618D01*
X325060Y69862D01*
X325264Y70066D01*
X325426Y70188D01*
X325549Y70290D01*
X325569Y70310D01*
X325589D01*
X325935Y70513D01*
X326301Y70656D01*
X326647Y70757D01*
X326952Y70819D01*
X327217Y70859D01*
X327420Y70900D01*
X327603D01*
X327909Y70880D01*
X328214Y70839D01*
X328478Y70778D01*
X328743Y70697D01*
X329231Y70493D01*
X329658Y70249D01*
X329841Y70147D01*
X329984Y70025D01*
X330126Y69923D01*
X330248Y69822D01*
X330330Y69740D01*
X330391Y69679D01*
X330432Y69639D01*
X330452Y69618D01*
X330594Y69435D01*
X330737Y69211D01*
X330879Y68987D01*
X331001Y68723D01*
X331245Y68214D01*
X331449Y67685D01*
X331530Y67421D01*
X331612Y67197D01*
X331673Y66973D01*
X331734Y66790D01*
X331774Y66648D01*
X331815Y66526D01*
X331835Y66444D01*
Y66424D01*
X331917Y66098D01*
X331998Y65814D01*
X332059Y65549D01*
X332120Y65305D01*
X332181Y65101D01*
X332222Y64918D01*
X332283Y64756D01*
X332324Y64613D01*
X332344Y64491D01*
X332385Y64389D01*
X332425Y64247D01*
X332466Y64166D01*
Y64145D01*
X332568Y63881D01*
X332669Y63677D01*
X332771Y63494D01*
X332873Y63352D01*
X332954Y63250D01*
X333015Y63189D01*
X333056Y63148D01*
X333076Y63128D01*
X333219Y63026D01*
X333361Y62945D01*
X333504Y62904D01*
X333626Y62863D01*
X333748Y62843D01*
X333849Y62823D01*
X333931D01*
X334216Y62843D01*
X334460Y62924D01*
X334704Y63047D01*
X334907Y63169D01*
X335070Y63311D01*
X335192Y63413D01*
X335274Y63494D01*
X335294Y63535D01*
X335477Y63820D01*
X335620Y64145D01*
X335721Y64491D01*
X335782Y64817D01*
X335823Y65122D01*
X335864Y65366D01*
Y65468D01*
Y65529D01*
Y65569D01*
Y65590D01*
X335843Y66058D01*
X335762Y66465D01*
X335660Y66810D01*
X335538Y67116D01*
X335416Y67360D01*
X335314Y67523D01*
X335233Y67624D01*
X335213Y67665D01*
X334928Y67930D01*
X334623Y68133D01*
X334277Y68316D01*
X333931Y68438D01*
X333626Y68540D01*
X333382Y68621D01*
X333300Y68642D01*
X333219D01*
X333178Y68662D01*
X333158D01*
X333422Y71429D01*
X333849Y71368D01*
D02*
G37*
G36*
X313000Y54536D02*
Y51463D01*
X298921Y46459D01*
Y49490D01*
X309338Y52928D01*
X298921Y56509D01*
Y59581D01*
X313000Y54536D01*
D02*
G37*
G36*
X309623Y45685D02*
X309928Y45604D01*
X310497Y45421D01*
X310986Y45197D01*
X311189Y45055D01*
X311393Y44933D01*
X311576Y44811D01*
X311718Y44689D01*
X311861Y44587D01*
X311962Y44485D01*
X312044Y44404D01*
X312105Y44343D01*
X312146Y44302D01*
X312166Y44282D01*
X312349Y44037D01*
X312532Y43773D01*
X312675Y43529D01*
X312796Y43244D01*
X313000Y42715D01*
X313122Y42227D01*
X313163Y41983D01*
X313203Y41779D01*
X313224Y41596D01*
X313244Y41433D01*
X313265Y41291D01*
Y41189D01*
Y41128D01*
Y41108D01*
X313244Y40742D01*
X313203Y40375D01*
X313142Y40050D01*
X313061Y39724D01*
X312959Y39439D01*
X312858Y39155D01*
X312736Y38890D01*
X312613Y38666D01*
X312491Y38463D01*
X312369Y38259D01*
X312267Y38117D01*
X312166Y37975D01*
X312084Y37873D01*
X312023Y37791D01*
X311983Y37751D01*
X311962Y37730D01*
X311718Y37486D01*
X311454Y37283D01*
X311189Y37100D01*
X310925Y36937D01*
X310640Y36815D01*
X310375Y36693D01*
X309887Y36530D01*
X309663Y36489D01*
X309440Y36449D01*
X309256Y36408D01*
X309094Y36388D01*
X308972Y36367D01*
X308789D01*
X308321Y36408D01*
X307914Y36489D01*
X307527Y36591D01*
X307222Y36734D01*
X306957Y36876D01*
X306774Y36978D01*
X306652Y37059D01*
X306611Y37100D01*
X306306Y37385D01*
X306042Y37710D01*
X305838Y38036D01*
X305676Y38341D01*
X305554Y38605D01*
X305492Y38829D01*
X305452Y38910D01*
Y38971D01*
X305431Y39012D01*
Y39032D01*
X305208Y38666D01*
X304984Y38361D01*
X304740Y38097D01*
X304496Y37852D01*
X304251Y37649D01*
X304007Y37486D01*
X303763Y37364D01*
X303539Y37242D01*
X303316Y37161D01*
X303112Y37100D01*
X302929Y37059D01*
X302766Y37039D01*
X302644Y37018D01*
X302542Y36998D01*
X302461D01*
X302217Y37018D01*
X301993Y37039D01*
X301546Y37161D01*
X301139Y37303D01*
X300793Y37486D01*
X300508Y37669D01*
X300305Y37832D01*
X300223Y37893D01*
X300162Y37954D01*
X300142Y37975D01*
X300121Y37995D01*
X299897Y38219D01*
X299694Y38483D01*
X299531Y38727D01*
X299389Y38992D01*
X299247Y39277D01*
X299145Y39541D01*
X299002Y40050D01*
X298941Y40274D01*
X298901Y40497D01*
X298880Y40680D01*
X298860Y40864D01*
X298840Y41006D01*
Y41108D01*
Y41169D01*
Y41189D01*
X298860Y41616D01*
X298901Y42003D01*
X298982Y42369D01*
X299063Y42674D01*
X299145Y42919D01*
X299226Y43122D01*
X299267Y43244D01*
X299287Y43264D01*
Y43285D01*
X299470Y43610D01*
X299674Y43915D01*
X299877Y44159D01*
X300060Y44363D01*
X300243Y44526D01*
X300386Y44648D01*
X300467Y44729D01*
X300508Y44749D01*
X300813Y44933D01*
X301139Y45095D01*
X301485Y45217D01*
X301810Y45340D01*
X302115Y45421D01*
X302339Y45482D01*
X302441Y45502D01*
X302502D01*
X302542Y45523D01*
X302563D01*
X302970Y43040D01*
X302644Y42979D01*
X302359Y42898D01*
X302115Y42817D01*
X301932Y42715D01*
X301769Y42613D01*
X301647Y42532D01*
X301586Y42471D01*
X301566Y42450D01*
X301403Y42267D01*
X301281Y42064D01*
X301200Y41860D01*
X301139Y41677D01*
X301098Y41515D01*
X301078Y41393D01*
Y41291D01*
Y41270D01*
X301098Y41026D01*
X301139Y40782D01*
X301220Y40599D01*
X301281Y40436D01*
X301362Y40294D01*
X301444Y40212D01*
X301485Y40152D01*
X301505Y40131D01*
X301668Y39989D01*
X301871Y39887D01*
X302054Y39806D01*
X302237Y39765D01*
X302400Y39724D01*
X302522Y39704D01*
X302644D01*
X302949Y39724D01*
X303214Y39785D01*
X303438Y39887D01*
X303621Y39989D01*
X303783Y40111D01*
X303885Y40192D01*
X303967Y40274D01*
X303987Y40294D01*
X304150Y40538D01*
X304272Y40802D01*
X304353Y41087D01*
X304414Y41352D01*
X304435Y41596D01*
X304455Y41800D01*
Y41881D01*
Y41942D01*
Y41962D01*
Y41983D01*
X306632Y42267D01*
X306571Y42003D01*
X306510Y41779D01*
X306469Y41555D01*
X306449Y41372D01*
X306428Y41230D01*
Y41128D01*
Y41047D01*
Y41026D01*
X306449Y40742D01*
X306530Y40497D01*
X306611Y40274D01*
X306734Y40070D01*
X306835Y39928D01*
X306937Y39806D01*
X307018Y39724D01*
X307039Y39704D01*
X307283Y39521D01*
X307547Y39378D01*
X307812Y39277D01*
X308076Y39195D01*
X308321Y39155D01*
X308504Y39134D01*
X308666D01*
X309053Y39155D01*
X309399Y39216D01*
X309704Y39317D01*
X309948Y39419D01*
X310131Y39541D01*
X310274Y39622D01*
X310375Y39704D01*
X310396Y39724D01*
X310599Y39948D01*
X310762Y40192D01*
X310864Y40416D01*
X310945Y40640D01*
X310986Y40843D01*
X311006Y40986D01*
X311026Y41087D01*
Y41128D01*
X311006Y41413D01*
X310945Y41657D01*
X310864Y41881D01*
X310762Y42084D01*
X310681Y42227D01*
X310599Y42349D01*
X310538Y42430D01*
X310518Y42450D01*
X310294Y42634D01*
X310050Y42796D01*
X309785Y42898D01*
X309541Y43000D01*
X309317Y43061D01*
X309134Y43102D01*
X309012Y43122D01*
X308972D01*
X309297Y45726D01*
X309623Y45685D01*
D02*
G37*
G36*
X196000Y412948D02*
X193620D01*
Y420028D01*
X182023D01*
Y422877D01*
X196000D01*
Y412948D01*
D02*
G37*
G36*
X433673Y77959D02*
X434364Y77878D01*
X434995Y77736D01*
X435300Y77674D01*
X435565Y77593D01*
X435809Y77512D01*
X436033Y77451D01*
X436216Y77369D01*
X436379Y77308D01*
X436501Y77268D01*
X436602Y77227D01*
X436663Y77186D01*
X436684D01*
X437294Y76840D01*
X437823Y76454D01*
X438291Y76047D01*
X438657Y75640D01*
X438820Y75457D01*
X438962Y75274D01*
X439085Y75131D01*
X439166Y74989D01*
X439247Y74887D01*
X439308Y74785D01*
X439329Y74745D01*
X439349Y74724D01*
X439512Y74399D01*
X439654Y74094D01*
X439878Y73422D01*
X440041Y72771D01*
X440142Y72181D01*
X440183Y71896D01*
X440224Y71652D01*
X440244Y71428D01*
Y71225D01*
X440265Y71083D01*
Y70960D01*
Y70879D01*
Y70859D01*
X440244Y70208D01*
X440163Y69597D01*
X440061Y69007D01*
X439939Y68499D01*
X439878Y68275D01*
X439817Y68071D01*
X439756Y67888D01*
X439715Y67726D01*
X439674Y67604D01*
X439634Y67522D01*
X439613Y67461D01*
Y67441D01*
X439369Y66830D01*
X439105Y66322D01*
X438840Y65874D01*
X438616Y65488D01*
X438413Y65203D01*
X438332Y65101D01*
X438250Y64999D01*
X438189Y64938D01*
X438149Y64877D01*
X438108Y64837D01*
X432452D01*
Y70960D01*
X434832D01*
Y67705D01*
X436643D01*
X436826Y67949D01*
X436989Y68214D01*
X437131Y68478D01*
X437253Y68723D01*
X437355Y68926D01*
X437436Y69109D01*
X437477Y69211D01*
X437497Y69231D01*
Y69251D01*
X437620Y69577D01*
X437701Y69903D01*
X437762Y70208D01*
X437803Y70472D01*
X437823Y70716D01*
X437843Y70879D01*
Y71001D01*
Y71021D01*
Y71042D01*
X437823Y71367D01*
X437782Y71693D01*
X437721Y71978D01*
X437640Y72263D01*
X437436Y72771D01*
X437335Y72975D01*
X437213Y73178D01*
X437091Y73361D01*
X436989Y73524D01*
X436867Y73646D01*
X436785Y73768D01*
X436704Y73850D01*
X436643Y73911D01*
X436602Y73951D01*
X436582Y73972D01*
X436338Y74155D01*
X436053Y74338D01*
X435768Y74480D01*
X435463Y74602D01*
X434832Y74806D01*
X434222Y74928D01*
X433937Y74969D01*
X433652Y75009D01*
X433428Y75030D01*
X433205Y75050D01*
X433042Y75070D01*
X432798D01*
X432370Y75050D01*
X431984Y75030D01*
X431597Y74969D01*
X431251Y74907D01*
X430946Y74826D01*
X430662Y74724D01*
X430397Y74623D01*
X430153Y74521D01*
X429949Y74440D01*
X429766Y74338D01*
X429624Y74236D01*
X429502Y74155D01*
X429400Y74094D01*
X429339Y74033D01*
X429298Y74012D01*
X429278Y73992D01*
X429075Y73768D01*
X428871Y73544D01*
X428729Y73300D01*
X428586Y73056D01*
X428464Y72812D01*
X428362Y72568D01*
X428220Y72100D01*
X428179Y71876D01*
X428139Y71673D01*
X428118Y71490D01*
X428098Y71327D01*
X428078Y71205D01*
Y71103D01*
Y71042D01*
Y71021D01*
X428098Y70574D01*
X428179Y70187D01*
X428261Y69841D01*
X428383Y69536D01*
X428484Y69313D01*
X428586Y69129D01*
X428668Y69028D01*
X428688Y68987D01*
X428932Y68702D01*
X429197Y68458D01*
X429461Y68254D01*
X429726Y68112D01*
X429970Y67990D01*
X430153Y67909D01*
X430275Y67868D01*
X430295Y67848D01*
X430316D01*
X429787Y65020D01*
X429441Y65101D01*
X429095Y65223D01*
X428790Y65345D01*
X428505Y65508D01*
X428220Y65650D01*
X427976Y65813D01*
X427752Y65976D01*
X427549Y66139D01*
X427365Y66301D01*
X427203Y66444D01*
X427060Y66566D01*
X426959Y66688D01*
X426877Y66790D01*
X426796Y66871D01*
X426776Y66912D01*
X426755Y66932D01*
X426552Y67217D01*
X426389Y67522D01*
X426246Y67848D01*
X426124Y68193D01*
X425921Y68865D01*
X425799Y69516D01*
X425738Y69821D01*
X425718Y70106D01*
X425697Y70370D01*
X425677Y70594D01*
X425657Y70777D01*
Y70900D01*
Y71001D01*
Y71021D01*
X425677Y71754D01*
X425758Y72405D01*
X425819Y72690D01*
X425880Y72975D01*
X425941Y73239D01*
X426002Y73463D01*
X426084Y73666D01*
X426145Y73870D01*
X426206Y74012D01*
X426246Y74155D01*
X426308Y74256D01*
X426328Y74338D01*
X426369Y74378D01*
Y74399D01*
X426735Y75030D01*
X426959Y75294D01*
X427162Y75559D01*
X427386Y75803D01*
X427610Y76027D01*
X427834Y76230D01*
X428037Y76413D01*
X428240Y76556D01*
X428424Y76698D01*
X428586Y76820D01*
X428729Y76922D01*
X428851Y76983D01*
X428932Y77044D01*
X428993Y77064D01*
X429013Y77084D01*
X429339Y77247D01*
X429664Y77390D01*
X430336Y77613D01*
X431007Y77776D01*
X431597Y77878D01*
X431882Y77919D01*
X432126Y77959D01*
X432350Y77980D01*
X432554D01*
X432696Y78000D01*
X432920D01*
X433673Y77959D01*
D02*
G37*
G36*
X565000Y57989D02*
X561806Y56829D01*
Y51173D01*
X565000Y49953D01*
Y46880D01*
X550921Y52536D01*
Y55547D01*
X565000Y61000D01*
Y57989D01*
D02*
G37*
G36*
Y36850D02*
X562497D01*
Y42221D01*
X562233Y42058D01*
X562009Y41875D01*
X561908Y41794D01*
X561826Y41733D01*
X561785Y41692D01*
X561765Y41672D01*
X561684Y41590D01*
X561582Y41509D01*
X561358Y41265D01*
X561094Y41000D01*
X560829Y40736D01*
X560585Y40472D01*
X560382Y40248D01*
X560300Y40166D01*
X560239Y40105D01*
X560219Y40065D01*
X560199Y40044D01*
X559771Y39597D01*
X559425Y39230D01*
X559100Y38925D01*
X558856Y38681D01*
X558652Y38498D01*
X558510Y38376D01*
X558408Y38294D01*
X558388Y38274D01*
X558042Y38010D01*
X557716Y37786D01*
X557411Y37603D01*
X557147Y37460D01*
X556923Y37338D01*
X556740Y37257D01*
X556638Y37216D01*
X556597Y37196D01*
X556272Y37074D01*
X555946Y36992D01*
X555641Y36931D01*
X555356Y36891D01*
X555132Y36870D01*
X554949Y36850D01*
X554787D01*
X554481Y36870D01*
X554176Y36911D01*
X553891Y36952D01*
X553627Y37033D01*
X553159Y37237D01*
X552752Y37440D01*
X552569Y37562D01*
X552427Y37664D01*
X552284Y37766D01*
X552182Y37867D01*
X552101Y37949D01*
X552020Y37989D01*
X551999Y38030D01*
X551979Y38050D01*
X551776Y38274D01*
X551592Y38539D01*
X551450Y38783D01*
X551328Y39068D01*
X551124Y39597D01*
X550982Y40126D01*
X550941Y40370D01*
X550901Y40594D01*
X550880Y40797D01*
X550860Y40980D01*
X550840Y41122D01*
Y41224D01*
Y41306D01*
Y41326D01*
X550860Y41672D01*
X550880Y41997D01*
X550982Y42628D01*
X551145Y43157D01*
X551226Y43401D01*
X551328Y43625D01*
X551409Y43829D01*
X551511Y43991D01*
X551592Y44154D01*
X551653Y44276D01*
X551735Y44378D01*
X551776Y44439D01*
X551796Y44479D01*
X551816Y44500D01*
X552020Y44724D01*
X552223Y44927D01*
X552467Y45110D01*
X552732Y45273D01*
X553261Y45517D01*
X553769Y45721D01*
X554034Y45782D01*
X554258Y45843D01*
X554461Y45904D01*
X554644Y45924D01*
X554807Y45965D01*
X554909D01*
X554990Y45985D01*
X555010D01*
X555275Y43299D01*
X554868Y43259D01*
X554522Y43177D01*
X554217Y43096D01*
X553993Y42994D01*
X553810Y42913D01*
X553688Y42832D01*
X553607Y42771D01*
X553586Y42750D01*
X553424Y42547D01*
X553301Y42323D01*
X553200Y42099D01*
X553139Y41875D01*
X553098Y41692D01*
X553078Y41529D01*
Y41428D01*
Y41387D01*
X553098Y41082D01*
X553159Y40817D01*
X553240Y40594D01*
X553322Y40390D01*
X553403Y40248D01*
X553484Y40126D01*
X553546Y40065D01*
X553566Y40044D01*
X553769Y39881D01*
X553993Y39759D01*
X554217Y39678D01*
X554441Y39617D01*
X554644Y39576D01*
X554827Y39556D01*
X554970D01*
X555275Y39576D01*
X555560Y39637D01*
X555845Y39739D01*
X556089Y39841D01*
X556312Y39943D01*
X556475Y40044D01*
X556577Y40105D01*
X556618Y40126D01*
X556740Y40207D01*
X556882Y40329D01*
X557065Y40492D01*
X557228Y40655D01*
X557615Y41021D01*
X558001Y41387D01*
X558367Y41753D01*
X558530Y41916D01*
X558652Y42079D01*
X558774Y42201D01*
X558856Y42282D01*
X558917Y42343D01*
X558937Y42364D01*
X559324Y42771D01*
X559690Y43137D01*
X560036Y43483D01*
X560341Y43788D01*
X560646Y44073D01*
X560931Y44317D01*
X561175Y44541D01*
X561419Y44724D01*
X561623Y44886D01*
X561806Y45029D01*
X561948Y45151D01*
X562091Y45232D01*
X562172Y45314D01*
X562253Y45354D01*
X562294Y45395D01*
X562314D01*
X562782Y45660D01*
X563271Y45863D01*
X563718Y46026D01*
X564125Y46148D01*
X564491Y46229D01*
X564634Y46250D01*
X564756Y46270D01*
X564858Y46290D01*
X564939Y46311D01*
X565000D01*
Y36850D01*
D02*
G37*
G36*
X533557Y44520D02*
X533251Y43869D01*
X533089Y43564D01*
X532906Y43279D01*
X532743Y43015D01*
X532580Y42771D01*
X532417Y42547D01*
X532275Y42343D01*
X532153Y42181D01*
X532031Y42038D01*
X531929Y41916D01*
X531868Y41835D01*
X531827Y41794D01*
X531807Y41774D01*
X542000D01*
Y39068D01*
X527840D01*
Y41265D01*
X528308Y41468D01*
X528735Y41733D01*
X529142Y42018D01*
X529467Y42303D01*
X529732Y42547D01*
X529935Y42771D01*
X530017Y42852D01*
X530078Y42913D01*
X530098Y42954D01*
X530118Y42974D01*
X530444Y43422D01*
X530729Y43849D01*
X530952Y44235D01*
X531115Y44581D01*
X531237Y44866D01*
X531339Y45070D01*
X531359Y45151D01*
X531380Y45212D01*
X531400Y45232D01*
Y45253D01*
X533842D01*
X533557Y44520D01*
D02*
G37*
G36*
X196000Y475551D02*
X195980Y475002D01*
X195959Y474493D01*
X195919Y474066D01*
X195858Y473720D01*
X195797Y473435D01*
X195756Y473211D01*
X195735Y473150D01*
Y473089D01*
X195715Y473069D01*
Y473049D01*
X195552Y472601D01*
X195369Y472194D01*
X195186Y471869D01*
X195003Y471584D01*
X194840Y471360D01*
X194718Y471197D01*
X194637Y471095D01*
X194596Y471055D01*
X194210Y470709D01*
X193803Y470404D01*
X193375Y470139D01*
X192989Y469936D01*
X192623Y469773D01*
X192480Y469692D01*
X192358Y469651D01*
X192236Y469610D01*
X192155Y469569D01*
X192114Y469549D01*
X192094D01*
X191605Y469407D01*
X191097Y469285D01*
X190609Y469203D01*
X190140Y469162D01*
X189917Y469142D01*
X189713Y469122D01*
X189550D01*
X189388Y469101D01*
X189103D01*
X188391Y469122D01*
X187760Y469183D01*
X187455Y469203D01*
X187190Y469244D01*
X186926Y469285D01*
X186702Y469325D01*
X186499Y469386D01*
X186316Y469427D01*
X186153Y469468D01*
X186031Y469488D01*
X185929Y469529D01*
X185848Y469549D01*
X185807Y469569D01*
X185787D01*
X185298Y469753D01*
X184851Y469976D01*
X184464Y470200D01*
X184139Y470424D01*
X183874Y470607D01*
X183671Y470770D01*
X183549Y470872D01*
X183508Y470892D01*
Y470912D01*
X183182Y471258D01*
X182918Y471604D01*
X182694Y471970D01*
X182511Y472296D01*
X182369Y472581D01*
X182267Y472825D01*
X182246Y472906D01*
X182226Y472967D01*
X182206Y473008D01*
Y473028D01*
X182104Y473415D01*
X182043Y473842D01*
X181982Y474290D01*
X181962Y474717D01*
X181941Y475103D01*
X181921Y475266D01*
Y475429D01*
Y475551D01*
Y475632D01*
Y475693D01*
Y475714D01*
Y480882D01*
X196000D01*
Y475551D01*
D02*
G37*
G36*
X542000Y57989D02*
X538806Y56829D01*
Y51173D01*
X542000Y49953D01*
Y46880D01*
X527921Y52536D01*
Y55547D01*
X542000Y61000D01*
Y57989D01*
D02*
G37*
G36*
X196000Y493516D02*
X192806Y492356D01*
Y486700D01*
X196000Y485480D01*
Y482407D01*
X181921Y488063D01*
Y491074D01*
X196000Y496527D01*
Y493516D01*
D02*
G37*
G36*
X614172Y40655D02*
X617000D01*
Y38050D01*
X614172D01*
Y36301D01*
X611812D01*
Y38050D01*
X602860D01*
Y40329D01*
X611832Y46433D01*
X614172D01*
Y40655D01*
D02*
G37*
G36*
X220000Y422371D02*
X216806Y421212D01*
Y415555D01*
X220000Y414335D01*
Y411263D01*
X205921Y416919D01*
Y419930D01*
X220000Y425382D01*
Y422371D01*
D02*
G37*
G36*
X617000Y57989D02*
X613806Y56829D01*
Y51173D01*
X617000Y49953D01*
Y46880D01*
X602921Y52536D01*
Y55547D01*
X617000Y61000D01*
Y57989D01*
D02*
G37*
G36*
X591000Y56989D02*
X587806Y55829D01*
Y50173D01*
X591000Y48952D01*
Y45880D01*
X576921Y51536D01*
Y54547D01*
X591000Y60000D01*
Y56989D01*
D02*
G37*
G36*
X587623Y45026D02*
X587928Y44944D01*
X588498Y44761D01*
X588986Y44538D01*
X589189Y44395D01*
X589393Y44273D01*
X589576Y44151D01*
X589718Y44029D01*
X589861Y43927D01*
X589962Y43825D01*
X590044Y43744D01*
X590105Y43683D01*
X590145Y43642D01*
X590166Y43622D01*
X590349Y43378D01*
X590532Y43113D01*
X590675Y42869D01*
X590797Y42584D01*
X591000Y42055D01*
X591122Y41567D01*
X591163Y41323D01*
X591203Y41119D01*
X591224Y40936D01*
X591244Y40774D01*
X591264Y40631D01*
Y40529D01*
Y40468D01*
Y40448D01*
X591244Y40082D01*
X591203Y39716D01*
X591142Y39390D01*
X591061Y39065D01*
X590959Y38780D01*
X590858Y38495D01*
X590736Y38230D01*
X590613Y38007D01*
X590491Y37803D01*
X590369Y37600D01*
X590268Y37457D01*
X590166Y37315D01*
X590084Y37213D01*
X590023Y37132D01*
X589983Y37091D01*
X589962Y37071D01*
X589718Y36827D01*
X589454Y36623D01*
X589189Y36440D01*
X588925Y36277D01*
X588640Y36155D01*
X588376Y36033D01*
X587887Y35870D01*
X587663Y35830D01*
X587440Y35789D01*
X587257Y35748D01*
X587094Y35728D01*
X586972Y35708D01*
X586788D01*
X586321Y35748D01*
X585914Y35830D01*
X585527Y35931D01*
X585222Y36074D01*
X584957Y36216D01*
X584774Y36318D01*
X584652Y36399D01*
X584612Y36440D01*
X584306Y36725D01*
X584042Y37050D01*
X583838Y37376D01*
X583676Y37681D01*
X583554Y37946D01*
X583493Y38169D01*
X583452Y38251D01*
Y38312D01*
X583432Y38352D01*
Y38373D01*
X583208Y38007D01*
X582984Y37701D01*
X582740Y37437D01*
X582496Y37193D01*
X582252Y36989D01*
X582007Y36827D01*
X581763Y36704D01*
X581539Y36583D01*
X581316Y36501D01*
X581112Y36440D01*
X580929Y36399D01*
X580766Y36379D01*
X580644Y36359D01*
X580542Y36338D01*
X580461D01*
X580217Y36359D01*
X579993Y36379D01*
X579546Y36501D01*
X579139Y36644D01*
X578793Y36827D01*
X578508Y37010D01*
X578304Y37173D01*
X578223Y37234D01*
X578162Y37294D01*
X578142Y37315D01*
X578121Y37335D01*
X577898Y37559D01*
X577694Y37824D01*
X577531Y38068D01*
X577389Y38332D01*
X577247Y38617D01*
X577145Y38881D01*
X577002Y39390D01*
X576941Y39614D01*
X576901Y39838D01*
X576880Y40021D01*
X576860Y40204D01*
X576840Y40346D01*
Y40448D01*
Y40509D01*
Y40529D01*
X576860Y40957D01*
X576901Y41343D01*
X576982Y41709D01*
X577063Y42015D01*
X577145Y42259D01*
X577226Y42462D01*
X577267Y42584D01*
X577287Y42605D01*
Y42625D01*
X577470Y42951D01*
X577674Y43256D01*
X577877Y43500D01*
X578060Y43703D01*
X578243Y43866D01*
X578386Y43988D01*
X578467Y44070D01*
X578508Y44090D01*
X578813Y44273D01*
X579139Y44436D01*
X579484Y44558D01*
X579810Y44680D01*
X580115Y44761D01*
X580339Y44822D01*
X580441Y44843D01*
X580502D01*
X580542Y44863D01*
X580563D01*
X580970Y42381D01*
X580644Y42320D01*
X580359Y42238D01*
X580115Y42157D01*
X579932Y42055D01*
X579769Y41954D01*
X579647Y41872D01*
X579586Y41811D01*
X579566Y41791D01*
X579403Y41608D01*
X579281Y41404D01*
X579200Y41201D01*
X579139Y41018D01*
X579098Y40855D01*
X579078Y40733D01*
Y40631D01*
Y40611D01*
X579098Y40367D01*
X579139Y40123D01*
X579220Y39939D01*
X579281Y39777D01*
X579362Y39634D01*
X579444Y39553D01*
X579484Y39492D01*
X579505Y39471D01*
X579668Y39329D01*
X579871Y39227D01*
X580054Y39146D01*
X580237Y39105D01*
X580400Y39065D01*
X580522Y39044D01*
X580644D01*
X580949Y39065D01*
X581214Y39126D01*
X581438Y39227D01*
X581621Y39329D01*
X581783Y39451D01*
X581885Y39532D01*
X581967Y39614D01*
X581987Y39634D01*
X582150Y39878D01*
X582272Y40143D01*
X582353Y40428D01*
X582414Y40692D01*
X582435Y40936D01*
X582455Y41140D01*
Y41221D01*
Y41282D01*
Y41303D01*
Y41323D01*
X584632Y41608D01*
X584571Y41343D01*
X584510Y41119D01*
X584469Y40896D01*
X584449Y40713D01*
X584428Y40570D01*
Y40468D01*
Y40387D01*
Y40367D01*
X584449Y40082D01*
X584530Y39838D01*
X584612Y39614D01*
X584734Y39411D01*
X584835Y39268D01*
X584937Y39146D01*
X585019Y39065D01*
X585039Y39044D01*
X585283Y38861D01*
X585547Y38719D01*
X585812Y38617D01*
X586076Y38536D01*
X586321Y38495D01*
X586504Y38475D01*
X586666D01*
X587053Y38495D01*
X587399Y38556D01*
X587704Y38658D01*
X587948Y38759D01*
X588131Y38881D01*
X588274Y38963D01*
X588376Y39044D01*
X588396Y39065D01*
X588599Y39288D01*
X588762Y39532D01*
X588864Y39756D01*
X588945Y39980D01*
X588986Y40184D01*
X589006Y40326D01*
X589026Y40428D01*
Y40468D01*
X589006Y40753D01*
X588945Y40997D01*
X588864Y41221D01*
X588762Y41425D01*
X588681Y41567D01*
X588599Y41689D01*
X588538Y41771D01*
X588518Y41791D01*
X588294Y41974D01*
X588050Y42137D01*
X587785Y42238D01*
X587541Y42340D01*
X587318Y42401D01*
X587134Y42442D01*
X587012Y42462D01*
X586972D01*
X587297Y45066D01*
X587623Y45026D01*
D02*
G37*
G36*
X463000Y59375D02*
X453722D01*
X463000Y53658D01*
Y50810D01*
X448921D01*
Y53435D01*
X458402D01*
X448921Y59253D01*
Y62000D01*
X463000D01*
Y59375D01*
D02*
G37*
G36*
X655745Y21863D02*
X656050Y21802D01*
X656599Y21598D01*
X657087Y21375D01*
X657291Y21253D01*
X657494Y21110D01*
X657657Y20988D01*
X657800Y20886D01*
X657922Y20764D01*
X658044Y20683D01*
X658125Y20602D01*
X658186Y20541D01*
X658206Y20500D01*
X658227Y20480D01*
X658410Y20235D01*
X658573Y19991D01*
X658715Y19727D01*
X658817Y19462D01*
X659020Y18913D01*
X659142Y18425D01*
X659183Y18181D01*
X659203Y17977D01*
X659224Y17774D01*
X659244Y17611D01*
X659265Y17468D01*
Y17367D01*
Y17306D01*
Y17285D01*
X659244Y16838D01*
X659183Y16410D01*
X659102Y16024D01*
X658980Y15658D01*
X658837Y15312D01*
X658674Y15007D01*
X658512Y14722D01*
X658329Y14457D01*
X658166Y14233D01*
X658003Y14030D01*
X657840Y13847D01*
X657698Y13705D01*
X657576Y13603D01*
X657494Y13521D01*
X657433Y13481D01*
X657413Y13460D01*
X657149Y13277D01*
X656884Y13115D01*
X656620Y12992D01*
X656335Y12870D01*
X655806Y12687D01*
X655318Y12565D01*
X655114Y12524D01*
X654911Y12504D01*
X654727Y12463D01*
X654565D01*
X654443Y12443D01*
X654280D01*
X653893Y12463D01*
X653527Y12504D01*
X653181Y12565D01*
X652856Y12647D01*
X652571Y12728D01*
X652286Y12850D01*
X652021Y12952D01*
X651798Y13074D01*
X651594Y13196D01*
X651411Y13298D01*
X651248Y13420D01*
X651126Y13501D01*
X651025Y13582D01*
X650943Y13643D01*
X650902Y13684D01*
X650882Y13705D01*
X650658Y13949D01*
X650455Y14193D01*
X650272Y14457D01*
X650109Y14722D01*
X649987Y14966D01*
X649885Y15230D01*
X649723Y15698D01*
X649661Y15922D01*
X649621Y16126D01*
X649600Y16309D01*
X649580Y16451D01*
X649560Y16573D01*
Y16675D01*
Y16736D01*
Y16756D01*
X649580Y17102D01*
X649641Y17448D01*
X649702Y17753D01*
X649783Y18038D01*
X649885Y18262D01*
X649946Y18445D01*
X650007Y18567D01*
X650028Y18587D01*
Y18608D01*
X647627Y18181D01*
Y13074D01*
X645104D01*
Y20215D01*
X652449Y21598D01*
X652754Y19422D01*
X652571Y19239D01*
X652408Y19055D01*
X652266Y18872D01*
X652144Y18689D01*
X651961Y18343D01*
X651838Y18018D01*
X651777Y17733D01*
X651737Y17529D01*
X651716Y17448D01*
Y17387D01*
Y17346D01*
Y17326D01*
X651737Y17000D01*
X651818Y16695D01*
X651920Y16431D01*
X652042Y16207D01*
X652184Y16044D01*
X652286Y15902D01*
X652367Y15820D01*
X652388Y15800D01*
X652652Y15597D01*
X652957Y15454D01*
X653283Y15352D01*
X653608Y15292D01*
X653893Y15230D01*
X654117Y15210D01*
X654341D01*
X654829Y15230D01*
X655256Y15292D01*
X655602Y15393D01*
X655887Y15495D01*
X656131Y15617D01*
X656294Y15698D01*
X656375Y15780D01*
X656416Y15800D01*
X656640Y16024D01*
X656823Y16268D01*
X656945Y16512D01*
X657027Y16736D01*
X657067Y16939D01*
X657087Y17102D01*
X657108Y17204D01*
Y17245D01*
X657087Y17509D01*
X657027Y17774D01*
X656945Y17997D01*
X656843Y18181D01*
X656742Y18343D01*
X656660Y18465D01*
X656599Y18547D01*
X656579Y18567D01*
X656355Y18750D01*
X656131Y18913D01*
X655887Y19035D01*
X655663Y19116D01*
X655460Y19177D01*
X655277Y19218D01*
X655175Y19239D01*
X655134D01*
X655419Y21924D01*
X655745Y21863D01*
D02*
G37*
G36*
X456693Y48287D02*
X457263Y48226D01*
X457812Y48145D01*
X458300Y48023D01*
X458768Y47901D01*
X459216Y47738D01*
X459602Y47575D01*
X459948Y47412D01*
X460274Y47250D01*
X460559Y47087D01*
X460782Y46924D01*
X460986Y46802D01*
X461128Y46680D01*
X461250Y46599D01*
X461311Y46537D01*
X461332Y46517D01*
X461678Y46171D01*
X461962Y45805D01*
X462227Y45419D01*
X462430Y45032D01*
X462613Y44645D01*
X462776Y44259D01*
X462898Y43893D01*
X463000Y43547D01*
X463081Y43201D01*
X463142Y42896D01*
X463183Y42611D01*
X463204Y42387D01*
X463224Y42184D01*
X463244Y42041D01*
Y41960D01*
Y41919D01*
X463224Y41492D01*
X463204Y41105D01*
X463142Y40719D01*
X463061Y40373D01*
X462980Y40047D01*
X462898Y39742D01*
X462797Y39457D01*
X462674Y39193D01*
X462573Y38969D01*
X462471Y38766D01*
X462390Y38582D01*
X462308Y38440D01*
X462227Y38318D01*
X462166Y38237D01*
X462146Y38196D01*
X462125Y38175D01*
X461901Y37911D01*
X461657Y37667D01*
X461108Y37219D01*
X460538Y36853D01*
X459989Y36568D01*
X459724Y36446D01*
X459480Y36344D01*
X459257Y36263D01*
X459073Y36182D01*
X458911Y36121D01*
X458788Y36080D01*
X458707Y36060D01*
X458687D01*
X457832Y38827D01*
X458382Y38989D01*
X458850Y39172D01*
X459236Y39356D01*
X459562Y39559D01*
X459806Y39722D01*
X459968Y39864D01*
X460070Y39966D01*
X460111Y40007D01*
X460355Y40332D01*
X460518Y40658D01*
X460640Y40983D01*
X460742Y41268D01*
X460782Y41533D01*
X460803Y41756D01*
X460823Y41838D01*
Y41899D01*
Y41919D01*
Y41939D01*
X460803Y42224D01*
X460782Y42489D01*
X460640Y42977D01*
X460477Y43404D01*
X460253Y43750D01*
X460050Y44035D01*
X459887Y44239D01*
X459806Y44320D01*
X459745Y44381D01*
X459724Y44401D01*
X459704Y44422D01*
X459480Y44584D01*
X459216Y44727D01*
X458931Y44869D01*
X458626Y44971D01*
X457995Y45134D01*
X457364Y45256D01*
X457059Y45296D01*
X456795Y45317D01*
X456530Y45357D01*
X456306D01*
X456144Y45378D01*
X455879D01*
X455411Y45357D01*
X454984Y45337D01*
X454597Y45296D01*
X454231Y45235D01*
X453906Y45154D01*
X453600Y45073D01*
X453336Y44991D01*
X453092Y44889D01*
X452888Y44808D01*
X452705Y44727D01*
X452563Y44645D01*
X452441Y44564D01*
X452339Y44503D01*
X452278Y44462D01*
X452237Y44422D01*
X452217D01*
X452014Y44239D01*
X451830Y44035D01*
X451688Y43832D01*
X451566Y43608D01*
X451362Y43180D01*
X451220Y42774D01*
X451139Y42428D01*
X451118Y42265D01*
X451098Y42143D01*
X451078Y42021D01*
Y41939D01*
Y41899D01*
Y41878D01*
X451098Y41472D01*
X451179Y41105D01*
X451281Y40780D01*
X451403Y40495D01*
X451525Y40271D01*
X451627Y40108D01*
X451708Y40007D01*
X451729Y39966D01*
X451973Y39701D01*
X452258Y39457D01*
X452542Y39274D01*
X452827Y39132D01*
X453072Y39030D01*
X453255Y38969D01*
X453336Y38928D01*
X453397D01*
X453417Y38908D01*
X453438D01*
X452766Y36100D01*
X452176Y36304D01*
X451668Y36528D01*
X451220Y36772D01*
X450854Y36995D01*
X450569Y37219D01*
X450447Y37301D01*
X450345Y37382D01*
X450284Y37443D01*
X450223Y37504D01*
X450182Y37524D01*
Y37545D01*
X449918Y37850D01*
X449674Y38196D01*
X449470Y38521D01*
X449308Y38867D01*
X449145Y39234D01*
X449023Y39579D01*
X448921Y39925D01*
X448840Y40251D01*
X448779Y40556D01*
X448738Y40841D01*
X448697Y41085D01*
X448677Y41309D01*
X448657Y41492D01*
Y41614D01*
Y41716D01*
Y41736D01*
X448677Y42265D01*
X448738Y42794D01*
X448840Y43262D01*
X448962Y43730D01*
X449104Y44137D01*
X449267Y44544D01*
X449450Y44889D01*
X449633Y45215D01*
X449816Y45520D01*
X449999Y45764D01*
X450162Y45988D01*
X450304Y46171D01*
X450427Y46314D01*
X450528Y46415D01*
X450589Y46476D01*
X450610Y46497D01*
X450996Y46822D01*
X451403Y47087D01*
X451830Y47331D01*
X452278Y47534D01*
X452746Y47717D01*
X453194Y47860D01*
X453641Y47982D01*
X454068Y48084D01*
X454496Y48165D01*
X454862Y48206D01*
X455208Y48246D01*
X455493Y48287D01*
X455737D01*
X455920Y48307D01*
X456083D01*
X456693Y48287D01*
D02*
G37*
G36*
X440000Y59567D02*
X430723D01*
X440000Y53850D01*
Y51002D01*
X425921D01*
Y53626D01*
X435402D01*
X425921Y59445D01*
Y62192D01*
X440000D01*
Y59567D01*
D02*
G37*
G36*
X191849Y450953D02*
X192256Y450872D01*
X192643Y450750D01*
X192989Y450648D01*
X193314Y450506D01*
X193620Y450363D01*
X193884Y450221D01*
X194128Y450079D01*
X194332Y449936D01*
X194515Y449794D01*
X194678Y449672D01*
X194820Y449550D01*
X194922Y449468D01*
X194983Y449387D01*
X195023Y449346D01*
X195044Y449326D01*
X195268Y449041D01*
X195451Y448736D01*
X195613Y448410D01*
X195756Y448064D01*
X195858Y447739D01*
X195959Y447393D01*
X196102Y446722D01*
X196163Y446416D01*
X196203Y446132D01*
X196224Y445887D01*
X196244Y445664D01*
X196264Y445480D01*
Y445338D01*
Y445236D01*
Y445216D01*
X196244Y444565D01*
X196183Y443975D01*
X196102Y443446D01*
X196061Y443222D01*
X196000Y442998D01*
X195959Y442815D01*
X195919Y442653D01*
X195878Y442510D01*
X195837Y442388D01*
X195797Y442286D01*
X195776Y442225D01*
X195756Y442184D01*
Y442164D01*
X195532Y441717D01*
X195288Y441350D01*
X195044Y441004D01*
X194779Y440740D01*
X194555Y440537D01*
X194352Y440374D01*
X194230Y440292D01*
X194210Y440252D01*
X194189D01*
X193782Y440028D01*
X193396Y439845D01*
X193009Y439723D01*
X192643Y439641D01*
X192358Y439601D01*
X192216Y439580D01*
X192114Y439560D01*
X191911D01*
X191422Y439580D01*
X190995Y439641D01*
X190609Y439743D01*
X190283Y439845D01*
X190018Y439947D01*
X189835Y440048D01*
X189713Y440109D01*
X189673Y440130D01*
X189347Y440353D01*
X189062Y440618D01*
X188818Y440882D01*
X188615Y441127D01*
X188452Y441350D01*
X188330Y441534D01*
X188248Y441656D01*
X188228Y441676D01*
Y441696D01*
X188126Y441900D01*
X188025Y442103D01*
X187841Y442591D01*
X187679Y443100D01*
X187516Y443588D01*
X187455Y443812D01*
X187394Y444036D01*
X187333Y444239D01*
X187292Y444402D01*
X187251Y444545D01*
X187231Y444646D01*
X187211Y444728D01*
Y444748D01*
X187109Y445114D01*
X187028Y445440D01*
X186946Y445745D01*
X186865Y446030D01*
X186784Y446254D01*
X186702Y446477D01*
X186621Y446660D01*
X186560Y446823D01*
X186499Y446966D01*
X186438Y447067D01*
X186397Y447169D01*
X186356Y447230D01*
X186295Y447332D01*
X186275Y447352D01*
X186133Y447495D01*
X185990Y447596D01*
X185848Y447657D01*
X185705Y447698D01*
X185604Y447739D01*
X185502Y447759D01*
X185420D01*
X185217Y447739D01*
X185054Y447698D01*
X184891Y447617D01*
X184769Y447535D01*
X184668Y447454D01*
X184607Y447373D01*
X184566Y447332D01*
X184545Y447312D01*
X184362Y447027D01*
X184240Y446722D01*
X184139Y446396D01*
X184078Y446091D01*
X184037Y445826D01*
X184016Y445603D01*
Y445521D01*
Y445460D01*
Y445420D01*
Y445399D01*
X184037Y444972D01*
X184098Y444606D01*
X184179Y444300D01*
X184261Y444056D01*
X184342Y443853D01*
X184424Y443710D01*
X184485Y443629D01*
X184505Y443609D01*
X184708Y443405D01*
X184952Y443222D01*
X185197Y443080D01*
X185461Y442978D01*
X185685Y442897D01*
X185868Y442856D01*
X186010Y442815D01*
X186051D01*
X185949Y439967D01*
X185583Y439987D01*
X185258Y440048D01*
X184932Y440130D01*
X184647Y440231D01*
X184362Y440333D01*
X184098Y440455D01*
X183874Y440577D01*
X183650Y440699D01*
X183467Y440842D01*
X183305Y440964D01*
X183162Y441086D01*
X183040Y441188D01*
X182959Y441269D01*
X182898Y441330D01*
X182857Y441371D01*
X182836Y441391D01*
X182633Y441656D01*
X182450Y441940D01*
X182287Y442246D01*
X182145Y442571D01*
X182043Y442897D01*
X181941Y443222D01*
X181799Y443873D01*
X181758Y444178D01*
X181717Y444443D01*
X181697Y444707D01*
X181677Y444931D01*
X181656Y445114D01*
Y445236D01*
Y445318D01*
Y445358D01*
X181677Y445948D01*
X181738Y446477D01*
X181819Y446945D01*
X181901Y447352D01*
X181962Y447535D01*
X182002Y447698D01*
X182043Y447820D01*
X182084Y447942D01*
X182124Y448024D01*
X182145Y448085D01*
X182165Y448125D01*
Y448146D01*
X182369Y448553D01*
X182592Y448899D01*
X182836Y449204D01*
X183060Y449448D01*
X183264Y449651D01*
X183426Y449773D01*
X183549Y449875D01*
X183569Y449895D01*
X183589D01*
X183935Y450099D01*
X184301Y450241D01*
X184647Y450343D01*
X184952Y450404D01*
X185217Y450445D01*
X185420Y450485D01*
X185604D01*
X185909Y450465D01*
X186214Y450424D01*
X186478Y450363D01*
X186743Y450282D01*
X187231Y450079D01*
X187658Y449834D01*
X187841Y449733D01*
X187984Y449611D01*
X188126Y449509D01*
X188248Y449407D01*
X188330Y449326D01*
X188391Y449265D01*
X188431Y449224D01*
X188452Y449204D01*
X188594Y449021D01*
X188737Y448797D01*
X188879Y448573D01*
X189001Y448308D01*
X189245Y447800D01*
X189449Y447271D01*
X189530Y447006D01*
X189611Y446783D01*
X189673Y446559D01*
X189734Y446376D01*
X189774Y446233D01*
X189815Y446111D01*
X189835Y446030D01*
Y446009D01*
X189917Y445684D01*
X189998Y445399D01*
X190059Y445135D01*
X190120Y444891D01*
X190181Y444687D01*
X190222Y444504D01*
X190283Y444341D01*
X190324Y444199D01*
X190344Y444077D01*
X190385Y443975D01*
X190425Y443833D01*
X190466Y443751D01*
Y443731D01*
X190568Y443466D01*
X190669Y443263D01*
X190771Y443080D01*
X190873Y442937D01*
X190954Y442836D01*
X191015Y442775D01*
X191056Y442734D01*
X191076Y442714D01*
X191219Y442612D01*
X191361Y442530D01*
X191504Y442490D01*
X191626Y442449D01*
X191748Y442429D01*
X191849Y442408D01*
X191931D01*
X192216Y442429D01*
X192460Y442510D01*
X192704Y442632D01*
X192908Y442754D01*
X193070Y442897D01*
X193192Y442998D01*
X193274Y443080D01*
X193294Y443120D01*
X193477Y443405D01*
X193620Y443731D01*
X193721Y444077D01*
X193782Y444402D01*
X193823Y444707D01*
X193864Y444952D01*
Y445053D01*
Y445114D01*
Y445155D01*
Y445175D01*
X193843Y445643D01*
X193762Y446050D01*
X193660Y446396D01*
X193538Y446701D01*
X193416Y446945D01*
X193314Y447108D01*
X193233Y447210D01*
X193213Y447251D01*
X192928Y447515D01*
X192623Y447719D01*
X192277Y447902D01*
X191931Y448024D01*
X191626Y448125D01*
X191382Y448207D01*
X191300Y448227D01*
X191219D01*
X191178Y448247D01*
X191158D01*
X191422Y451014D01*
X191849Y450953D01*
D02*
G37*
G36*
X440000Y42660D02*
X439980Y42111D01*
X439959Y41602D01*
X439919Y41175D01*
X439858Y40829D01*
X439797Y40544D01*
X439756Y40320D01*
X439735Y40259D01*
Y40198D01*
X439715Y40178D01*
Y40158D01*
X439552Y39710D01*
X439369Y39303D01*
X439186Y38977D01*
X439003Y38693D01*
X438840Y38469D01*
X438718Y38306D01*
X438637Y38204D01*
X438596Y38164D01*
X438210Y37818D01*
X437803Y37513D01*
X437375Y37248D01*
X436989Y37045D01*
X436623Y36882D01*
X436480Y36801D01*
X436358Y36760D01*
X436236Y36719D01*
X436155Y36679D01*
X436114Y36658D01*
X436094D01*
X435605Y36516D01*
X435097Y36394D01*
X434608Y36312D01*
X434141Y36272D01*
X433917Y36251D01*
X433713Y36231D01*
X433550D01*
X433388Y36210D01*
X433103D01*
X432391Y36231D01*
X431760Y36292D01*
X431455Y36312D01*
X431190Y36353D01*
X430926Y36394D01*
X430702Y36434D01*
X430499Y36495D01*
X430316Y36536D01*
X430153Y36577D01*
X430031Y36597D01*
X429929Y36638D01*
X429848Y36658D01*
X429807Y36679D01*
X429787D01*
X429298Y36862D01*
X428851Y37085D01*
X428464Y37309D01*
X428139Y37533D01*
X427874Y37716D01*
X427671Y37879D01*
X427549Y37981D01*
X427508Y38001D01*
Y38021D01*
X427182Y38367D01*
X426918Y38713D01*
X426694Y39079D01*
X426511Y39405D01*
X426369Y39690D01*
X426267Y39934D01*
X426246Y40015D01*
X426226Y40076D01*
X426206Y40117D01*
Y40137D01*
X426104Y40524D01*
X426043Y40951D01*
X425982Y41399D01*
X425962Y41826D01*
X425941Y42212D01*
X425921Y42375D01*
Y42538D01*
Y42660D01*
Y42741D01*
Y42803D01*
Y42823D01*
Y47990D01*
X440000D01*
Y42660D01*
D02*
G37*
G36*
X192745Y467189D02*
X193050Y467128D01*
X193599Y466925D01*
X194088Y466701D01*
X194291Y466579D01*
X194494Y466436D01*
X194657Y466314D01*
X194800Y466213D01*
X194922Y466090D01*
X195044Y466009D01*
X195125Y465928D01*
X195186Y465867D01*
X195207Y465826D01*
X195227Y465806D01*
X195410Y465561D01*
X195573Y465317D01*
X195715Y465053D01*
X195817Y464788D01*
X196020Y464239D01*
X196142Y463751D01*
X196183Y463507D01*
X196203Y463303D01*
X196224Y463100D01*
X196244Y462937D01*
X196264Y462794D01*
Y462693D01*
Y462632D01*
Y462611D01*
X196244Y462164D01*
X196183Y461736D01*
X196102Y461350D01*
X195980Y460984D01*
X195837Y460638D01*
X195674Y460333D01*
X195512Y460048D01*
X195329Y459783D01*
X195166Y459560D01*
X195003Y459356D01*
X194840Y459173D01*
X194698Y459030D01*
X194576Y458929D01*
X194494Y458847D01*
X194433Y458807D01*
X194413Y458786D01*
X194149Y458603D01*
X193884Y458441D01*
X193620Y458318D01*
X193335Y458196D01*
X192806Y458013D01*
X192318Y457891D01*
X192114Y457850D01*
X191911Y457830D01*
X191728Y457789D01*
X191565D01*
X191443Y457769D01*
X191280D01*
X190893Y457789D01*
X190527Y457830D01*
X190181Y457891D01*
X189856Y457973D01*
X189571Y458054D01*
X189286Y458176D01*
X189021Y458278D01*
X188798Y458400D01*
X188594Y458522D01*
X188411Y458624D01*
X188248Y458746D01*
X188126Y458827D01*
X188025Y458909D01*
X187943Y458969D01*
X187903Y459010D01*
X187882Y459030D01*
X187658Y459275D01*
X187455Y459519D01*
X187272Y459783D01*
X187109Y460048D01*
X186987Y460292D01*
X186885Y460556D01*
X186723Y461024D01*
X186661Y461248D01*
X186621Y461452D01*
X186600Y461635D01*
X186580Y461777D01*
X186560Y461899D01*
Y462001D01*
Y462062D01*
Y462082D01*
X186580Y462428D01*
X186641Y462774D01*
X186702Y463079D01*
X186784Y463364D01*
X186885Y463588D01*
X186946Y463771D01*
X187007Y463893D01*
X187028Y463913D01*
Y463934D01*
X184627Y463507D01*
Y458400D01*
X182104D01*
Y465541D01*
X189449Y466925D01*
X189754Y464748D01*
X189571Y464565D01*
X189408Y464381D01*
X189266Y464198D01*
X189144Y464015D01*
X188960Y463669D01*
X188838Y463344D01*
X188777Y463059D01*
X188737Y462855D01*
X188716Y462774D01*
Y462713D01*
Y462672D01*
Y462652D01*
X188737Y462327D01*
X188818Y462021D01*
X188920Y461757D01*
X189042Y461533D01*
X189184Y461370D01*
X189286Y461228D01*
X189367Y461146D01*
X189388Y461126D01*
X189652Y460923D01*
X189957Y460780D01*
X190283Y460678D01*
X190609Y460617D01*
X190893Y460556D01*
X191117Y460536D01*
X191341D01*
X191829Y460556D01*
X192256Y460617D01*
X192602Y460719D01*
X192887Y460821D01*
X193131Y460943D01*
X193294Y461024D01*
X193375Y461106D01*
X193416Y461126D01*
X193640Y461350D01*
X193823Y461594D01*
X193945Y461838D01*
X194027Y462062D01*
X194067Y462265D01*
X194088Y462428D01*
X194108Y462530D01*
Y462571D01*
X194088Y462835D01*
X194027Y463100D01*
X193945Y463323D01*
X193843Y463507D01*
X193742Y463669D01*
X193660Y463791D01*
X193599Y463873D01*
X193579Y463893D01*
X193355Y464076D01*
X193131Y464239D01*
X192887Y464361D01*
X192663Y464442D01*
X192460Y464503D01*
X192277Y464544D01*
X192175Y464565D01*
X192134D01*
X192419Y467250D01*
X192745Y467189D01*
D02*
G37*
G36*
X513000Y58989D02*
X509806Y57829D01*
Y52173D01*
X513000Y50953D01*
Y47880D01*
X498921Y53536D01*
Y56547D01*
X513000Y62000D01*
Y58989D01*
D02*
G37*
G36*
X506774Y46944D02*
X507446Y46904D01*
X508076Y46843D01*
X508646Y46761D01*
X509155Y46680D01*
X509623Y46578D01*
X510030Y46456D01*
X510396Y46334D01*
X510701Y46232D01*
X510986Y46110D01*
X511210Y46009D01*
X511393Y45907D01*
X511515Y45846D01*
X511617Y45785D01*
X511678Y45744D01*
X511698Y45724D01*
X511983Y45479D01*
X512206Y45215D01*
X512430Y44951D01*
X512593Y44666D01*
X512756Y44401D01*
X512878Y44116D01*
X512980Y43852D01*
X513061Y43587D01*
X513142Y43343D01*
X513183Y43120D01*
X513224Y42916D01*
X513244Y42753D01*
Y42611D01*
X513265Y42489D01*
Y42428D01*
Y42407D01*
X513244Y42041D01*
X513204Y41695D01*
X513122Y41349D01*
X513041Y41044D01*
X512939Y40759D01*
X512817Y40495D01*
X512674Y40271D01*
X512532Y40047D01*
X512410Y39864D01*
X512268Y39681D01*
X512146Y39539D01*
X512044Y39417D01*
X511962Y39335D01*
X511881Y39274D01*
X511840Y39234D01*
X511820Y39213D01*
X511474Y38969D01*
X511067Y38766D01*
X510640Y38562D01*
X510172Y38420D01*
X509704Y38277D01*
X509236Y38175D01*
X508748Y38074D01*
X508280Y37992D01*
X507832Y37952D01*
X507425Y37911D01*
X507039Y37870D01*
X506713Y37850D01*
X506449Y37830D01*
X506062D01*
X505330Y37850D01*
X504658Y37891D01*
X504048Y37952D01*
X503478Y38054D01*
X502949Y38155D01*
X502481Y38257D01*
X502054Y38399D01*
X501688Y38521D01*
X501342Y38644D01*
X501078Y38766D01*
X500834Y38888D01*
X500630Y38989D01*
X500488Y39091D01*
X500386Y39152D01*
X500325Y39193D01*
X500304Y39213D01*
X500040Y39437D01*
X499816Y39681D01*
X499633Y39946D01*
X499450Y40210D01*
X499308Y40475D01*
X499206Y40739D01*
X499104Y40983D01*
X499023Y41248D01*
X498962Y41492D01*
X498921Y41695D01*
X498880Y41899D01*
X498860Y42062D01*
X498840Y42204D01*
Y42326D01*
Y42387D01*
Y42407D01*
X498860Y42774D01*
X498901Y43120D01*
X498982Y43465D01*
X499063Y43770D01*
X499185Y44055D01*
X499308Y44320D01*
X499430Y44544D01*
X499572Y44767D01*
X499715Y44951D01*
X499837Y45134D01*
X499959Y45276D01*
X500081Y45378D01*
X500162Y45479D01*
X500243Y45541D01*
X500284Y45581D01*
X500304Y45602D01*
X500650Y45846D01*
X501057Y46049D01*
X501484Y46232D01*
X501932Y46395D01*
X502400Y46517D01*
X502888Y46639D01*
X503356Y46721D01*
X503824Y46802D01*
X504272Y46843D01*
X504679Y46883D01*
X505065Y46924D01*
X505391Y46944D01*
X505655Y46965D01*
X506042D01*
X506774Y46944D01*
D02*
G37*
G36*
X659000Y33989D02*
X655806Y32829D01*
Y27173D01*
X659000Y25952D01*
Y22880D01*
X644921Y28536D01*
Y31547D01*
X659000Y37000D01*
Y33989D01*
D02*
G37*
G36*
X196244Y455206D02*
X181677Y451686D01*
Y453720D01*
X196244Y457199D01*
Y455206D01*
D02*
G37*
%LPC*%
G36*
X607184Y444645D02*
X606960D01*
X606513Y444625D01*
X606106Y444604D01*
X605719Y444543D01*
X605353Y444482D01*
X605028Y444401D01*
X604723Y444320D01*
X604458Y444218D01*
X604214Y444116D01*
X603990Y444014D01*
X603807Y443913D01*
X603665Y443831D01*
X603522Y443750D01*
X603420Y443689D01*
X603359Y443628D01*
X603319Y443607D01*
X603298Y443587D01*
X603074Y443384D01*
X602891Y443160D01*
X602729Y442916D01*
X602586Y442692D01*
X602464Y442448D01*
X602383Y442204D01*
X602220Y441756D01*
X602139Y441349D01*
X602118Y441186D01*
X602098Y441024D01*
X602078Y440902D01*
Y440820D01*
Y440759D01*
Y440739D01*
X602098Y440413D01*
X602139Y440108D01*
X602179Y439823D01*
X602261Y439559D01*
X602464Y439091D01*
X602566Y438867D01*
X602668Y438684D01*
X602790Y438501D01*
X602891Y438358D01*
X602993Y438236D01*
X603095Y438114D01*
X603176Y438033D01*
X603217Y437972D01*
X603258Y437952D01*
X603278Y437931D01*
X603522Y437748D01*
X603787Y437565D01*
X604051Y437422D01*
X604356Y437300D01*
X604967Y437117D01*
X605557Y436995D01*
X605821Y436934D01*
X606086Y436914D01*
X606309Y436894D01*
X606513Y436873D01*
X606696Y436853D01*
X606920D01*
X607367Y436873D01*
X607795Y436894D01*
X608181Y436954D01*
X608527Y437016D01*
X608873Y437097D01*
X609178Y437199D01*
X609443Y437300D01*
X609687Y437402D01*
X609911Y437504D01*
X610094Y437606D01*
X610256Y437687D01*
X610399Y437789D01*
X610501Y437850D01*
X610562Y437911D01*
X610602Y437931D01*
X610623Y437952D01*
X610846Y438155D01*
X611030Y438379D01*
X611192Y438623D01*
X611335Y438847D01*
X611437Y439091D01*
X611538Y439315D01*
X611681Y439762D01*
X611782Y440149D01*
X611803Y440312D01*
X611823Y440454D01*
X611843Y440576D01*
Y440657D01*
Y440718D01*
Y440739D01*
X611823Y441044D01*
X611782Y441349D01*
X611721Y441634D01*
X611640Y441898D01*
X611457Y442387D01*
X611213Y442773D01*
X611111Y442956D01*
X610989Y443099D01*
X610887Y443241D01*
X610785Y443343D01*
X610724Y443424D01*
X610663Y443485D01*
X610623Y443526D01*
X610602Y443546D01*
X610358Y443730D01*
X610094Y443913D01*
X609809Y444055D01*
X609504Y444177D01*
X608914Y444381D01*
X608324Y444503D01*
X608039Y444543D01*
X607795Y444584D01*
X607551Y444604D01*
X607347Y444625D01*
X607184Y444645D01*
D02*
G37*
G36*
X214812Y466256D02*
X209970Y462981D01*
X214812D01*
Y466256D01*
D02*
G37*
G36*
X533812Y492497D02*
X528970Y489222D01*
X533812D01*
Y492497D01*
D02*
G37*
G36*
X217620Y435290D02*
X208301D01*
Y434029D01*
Y433724D01*
Y433439D01*
X208322Y433175D01*
Y432930D01*
X208342Y432727D01*
Y432544D01*
X208362Y432361D01*
Y432218D01*
X208403Y431995D01*
X208424Y431832D01*
X208444Y431730D01*
Y431710D01*
X208525Y431425D01*
X208627Y431181D01*
X208729Y430957D01*
X208851Y430754D01*
X208952Y430611D01*
X209034Y430489D01*
X209095Y430428D01*
X209115Y430408D01*
X209319Y430224D01*
X209543Y430062D01*
X209766Y429919D01*
X209970Y429797D01*
X210173Y429716D01*
X210336Y429655D01*
X210438Y429614D01*
X210458Y429594D01*
X210478D01*
X210845Y429492D01*
X211231Y429411D01*
X211658Y429370D01*
X212065Y429329D01*
X212411Y429309D01*
X212574Y429289D01*
X212981D01*
X213550Y429309D01*
X214079Y429329D01*
X214507Y429390D01*
X214873Y429431D01*
X215178Y429492D01*
X215300Y429512D01*
X215382Y429553D01*
X215463Y429574D01*
X215524D01*
X215544Y429594D01*
X215565D01*
X215890Y429716D01*
X216175Y429818D01*
X216399Y429960D01*
X216582Y430062D01*
X216724Y430163D01*
X216826Y430245D01*
X216887Y430306D01*
X216908Y430326D01*
X217050Y430509D01*
X217172Y430692D01*
X217274Y430876D01*
X217355Y431059D01*
X217416Y431221D01*
X217457Y431343D01*
X217498Y431425D01*
Y431466D01*
X217538Y431689D01*
X217558Y431954D01*
X217599Y432239D01*
Y432523D01*
X217620Y432788D01*
Y432991D01*
Y433073D01*
Y433134D01*
Y433175D01*
Y433195D01*
Y435290D01*
D02*
G37*
G36*
X634673Y491152D02*
X633615D01*
X633187Y491131D01*
X632821D01*
X632455Y491111D01*
X632150Y491091D01*
X631845Y491070D01*
X631600Y491050D01*
X631356Y491009D01*
X631153Y490989D01*
X630990Y490969D01*
X630848Y490948D01*
X630726Y490928D01*
X630644Y490908D01*
X630563D01*
X630542Y490887D01*
X630522D01*
X630237Y490806D01*
X629993Y490704D01*
X629810Y490623D01*
X629647Y490521D01*
X629546Y490439D01*
X629464Y490378D01*
X629423Y490338D01*
X629403Y490317D01*
X629301Y490175D01*
X629220Y490012D01*
X629159Y489870D01*
X629118Y489727D01*
X629098Y489626D01*
X629078Y489524D01*
Y489463D01*
Y489443D01*
X629098Y489259D01*
X629118Y489097D01*
X629179Y488954D01*
X629240Y488832D01*
X629301Y488731D01*
X629342Y488649D01*
X629383Y488608D01*
X629403Y488588D01*
X629546Y488466D01*
X629729Y488344D01*
X629932Y488242D01*
X630135Y488140D01*
X630339Y488079D01*
X630502Y488018D01*
X630603Y487998D01*
X630624Y487978D01*
X630644D01*
X630827Y487937D01*
X631051Y487896D01*
X631316Y487856D01*
X631580Y487815D01*
X632129Y487774D01*
X632699Y487754D01*
X632964Y487734D01*
X633228D01*
X633452Y487713D01*
X634510D01*
X634937Y487734D01*
X635324D01*
X635670Y487754D01*
X635995Y487774D01*
X636280Y487795D01*
X636544Y487835D01*
X636768Y487856D01*
X636972Y487876D01*
X637134Y487917D01*
X637277Y487937D01*
X637399Y487957D01*
X637480Y487978D01*
X637562D01*
X637582Y487998D01*
X637602D01*
X637887Y488079D01*
X638111Y488181D01*
X638314Y488283D01*
X638457Y488364D01*
X638579Y488446D01*
X638660Y488527D01*
X638701Y488568D01*
X638721Y488588D01*
X638823Y488731D01*
X638904Y488873D01*
X638945Y489015D01*
X638986Y489158D01*
X639006Y489259D01*
X639026Y489361D01*
Y489422D01*
Y489443D01*
X639006Y489626D01*
X638986Y489789D01*
X638925Y489931D01*
X638864Y490053D01*
X638823Y490155D01*
X638762Y490236D01*
X638742Y490277D01*
X638721Y490297D01*
X638579Y490419D01*
X638396Y490541D01*
X638192Y490643D01*
X637989Y490745D01*
X637806Y490806D01*
X637643Y490867D01*
X637541Y490887D01*
X637501Y490908D01*
X637297Y490948D01*
X637073Y490989D01*
X636829Y491030D01*
X636565Y491050D01*
X635995Y491091D01*
X635425Y491111D01*
X635161Y491131D01*
X634896D01*
X634673Y491152D01*
D02*
G37*
G36*
X632882Y474123D02*
X629301D01*
Y471925D01*
Y471620D01*
Y471335D01*
Y471091D01*
Y470867D01*
X629322Y470684D01*
Y470501D01*
Y470359D01*
Y470237D01*
X629342Y470053D01*
Y469931D01*
X629362Y469870D01*
Y469850D01*
X629423Y469606D01*
X629505Y469382D01*
X629586Y469199D01*
X629688Y469057D01*
X629790Y468934D01*
X629851Y468833D01*
X629912Y468792D01*
X629932Y468772D01*
X630095Y468650D01*
X630298Y468548D01*
X630481Y468487D01*
X630664Y468426D01*
X630827Y468405D01*
X630949Y468385D01*
X631071D01*
X631295Y468405D01*
X631499Y468426D01*
X631682Y468487D01*
X631845Y468527D01*
X631967Y468589D01*
X632048Y468650D01*
X632109Y468670D01*
X632129Y468690D01*
X632272Y468812D01*
X632394Y468934D01*
X632577Y469199D01*
X632638Y469301D01*
X632679Y469402D01*
X632719Y469463D01*
Y469484D01*
X632740Y469585D01*
X632780Y469748D01*
X632801Y469911D01*
X632821Y470094D01*
X632841Y470521D01*
X632862Y470949D01*
X632882Y471356D01*
Y471539D01*
Y471701D01*
Y471844D01*
Y471946D01*
Y472007D01*
Y472027D01*
Y474123D01*
D02*
G37*
G36*
X238425Y479293D02*
X233197Y477381D01*
X238425Y475407D01*
Y479293D01*
D02*
G37*
G36*
X235882Y465825D02*
X232301D01*
Y463627D01*
Y463322D01*
Y463037D01*
Y462793D01*
Y462569D01*
X232322Y462386D01*
Y462203D01*
Y462061D01*
Y461939D01*
X232342Y461756D01*
Y461633D01*
X232362Y461572D01*
Y461552D01*
X232423Y461308D01*
X232505Y461084D01*
X232586Y460901D01*
X232688Y460759D01*
X232790Y460637D01*
X232851Y460535D01*
X232912Y460494D01*
X232932Y460474D01*
X233095Y460352D01*
X233298Y460250D01*
X233481Y460189D01*
X233664Y460128D01*
X233827Y460108D01*
X233949Y460087D01*
X234071D01*
X234295Y460108D01*
X234499Y460128D01*
X234682Y460189D01*
X234845Y460230D01*
X234967Y460291D01*
X235048Y460352D01*
X235109Y460372D01*
X235129Y460392D01*
X235272Y460514D01*
X235394Y460637D01*
X235577Y460901D01*
X235638Y461003D01*
X235679Y461105D01*
X235719Y461166D01*
Y461186D01*
X235740Y461288D01*
X235781Y461450D01*
X235801Y461613D01*
X235821Y461796D01*
X235842Y462224D01*
X235862Y462651D01*
X235882Y463058D01*
Y463241D01*
Y463404D01*
Y463546D01*
Y463648D01*
Y463709D01*
Y463729D01*
Y465825D01*
D02*
G37*
G36*
X268620Y464142D02*
X259301D01*
Y462881D01*
Y462576D01*
Y462291D01*
X259322Y462026D01*
Y461782D01*
X259342Y461579D01*
Y461395D01*
X259362Y461212D01*
Y461070D01*
X259403Y460846D01*
X259424Y460684D01*
X259444Y460582D01*
Y460561D01*
X259525Y460276D01*
X259627Y460032D01*
X259729Y459809D01*
X259851Y459605D01*
X259952Y459463D01*
X260034Y459341D01*
X260095Y459280D01*
X260115Y459259D01*
X260319Y459076D01*
X260543Y458913D01*
X260766Y458771D01*
X260970Y458649D01*
X261173Y458568D01*
X261336Y458507D01*
X261438Y458466D01*
X261458Y458446D01*
X261478D01*
X261845Y458344D01*
X262231Y458262D01*
X262658Y458222D01*
X263065Y458181D01*
X263411Y458161D01*
X263574Y458140D01*
X263981D01*
X264550Y458161D01*
X265079Y458181D01*
X265507Y458242D01*
X265873Y458283D01*
X266178Y458344D01*
X266300Y458364D01*
X266382Y458405D01*
X266463Y458425D01*
X266524D01*
X266544Y458446D01*
X266565D01*
X266890Y458568D01*
X267175Y458669D01*
X267399Y458812D01*
X267582Y458913D01*
X267724Y459015D01*
X267826Y459096D01*
X267887Y459158D01*
X267908Y459178D01*
X268050Y459361D01*
X268172Y459544D01*
X268274Y459727D01*
X268355Y459910D01*
X268416Y460073D01*
X268457Y460195D01*
X268498Y460276D01*
Y460317D01*
X268538Y460541D01*
X268559Y460806D01*
X268599Y461090D01*
Y461375D01*
X268620Y461640D01*
Y461843D01*
Y461925D01*
Y461986D01*
Y462026D01*
Y462047D01*
Y464142D01*
D02*
G37*
G36*
X416890Y493335D02*
X416707D01*
X416422Y493314D01*
X416137Y493253D01*
X415893Y493192D01*
X415670Y493091D01*
X415486Y493009D01*
X415344Y492948D01*
X415263Y492887D01*
X415222Y492867D01*
X414998Y492663D01*
X414815Y492419D01*
X414693Y492175D01*
X414612Y491931D01*
X414571Y491727D01*
X414530Y491544D01*
Y491422D01*
Y491402D01*
Y491382D01*
X414551Y491076D01*
X414632Y490792D01*
X414713Y490547D01*
X414835Y490344D01*
X414937Y490181D01*
X415039Y490059D01*
X415120Y489978D01*
X415140Y489957D01*
X415385Y489774D01*
X415649Y489632D01*
X415914Y489530D01*
X416178Y489449D01*
X416402Y489408D01*
X416585Y489388D01*
X416748D01*
X417155Y489408D01*
X417501Y489469D01*
X417806Y489571D01*
X418050Y489673D01*
X418253Y489774D01*
X418375Y489876D01*
X418477Y489937D01*
X418498Y489957D01*
X418701Y490181D01*
X418843Y490405D01*
X418945Y490629D01*
X419006Y490853D01*
X419047Y491056D01*
X419087Y491199D01*
Y491300D01*
Y491341D01*
X419067Y491646D01*
X418986Y491931D01*
X418884Y492175D01*
X418782Y492379D01*
X418660Y492541D01*
X418579Y492663D01*
X418498Y492745D01*
X418477Y492765D01*
X418213Y492948D01*
X417928Y493091D01*
X417643Y493192D01*
X417358Y493253D01*
X417094Y493294D01*
X416890Y493335D01*
D02*
G37*
G36*
X410827Y493091D02*
X410685D01*
X410400Y493070D01*
X410156Y493030D01*
X409952Y492948D01*
X409769Y492867D01*
X409627Y492785D01*
X409525Y492704D01*
X409464Y492663D01*
X409444Y492643D01*
X409281Y492460D01*
X409179Y492256D01*
X409098Y492053D01*
X409037Y491850D01*
X408996Y491666D01*
X408976Y491524D01*
Y491443D01*
Y491402D01*
X408996Y491137D01*
X409057Y490893D01*
X409118Y490690D01*
X409200Y490507D01*
X409301Y490364D01*
X409362Y490263D01*
X409423Y490201D01*
X409444Y490181D01*
X409627Y490018D01*
X409830Y489917D01*
X410034Y489835D01*
X410237Y489774D01*
X410400Y489734D01*
X410542Y489713D01*
X410664D01*
X410949Y489734D01*
X411214Y489795D01*
X411417Y489856D01*
X411600Y489937D01*
X411763Y490039D01*
X411865Y490100D01*
X411926Y490161D01*
X411946Y490181D01*
X412089Y490364D01*
X412211Y490568D01*
X412292Y490771D01*
X412333Y490975D01*
X412374Y491158D01*
X412394Y491300D01*
Y491382D01*
Y491422D01*
X412374Y491687D01*
X412333Y491931D01*
X412252Y492134D01*
X412170Y492318D01*
X412089Y492460D01*
X412007Y492562D01*
X411967Y492623D01*
X411946Y492643D01*
X411763Y492785D01*
X411560Y492907D01*
X411356Y492989D01*
X411153Y493030D01*
X410970Y493070D01*
X410827Y493091D01*
D02*
G37*
G36*
X217620Y479033D02*
X208301D01*
Y477772D01*
Y477467D01*
Y477182D01*
X208322Y476917D01*
Y476673D01*
X208342Y476470D01*
Y476287D01*
X208362Y476103D01*
Y475961D01*
X208403Y475737D01*
X208424Y475574D01*
X208444Y475473D01*
Y475452D01*
X208525Y475168D01*
X208627Y474923D01*
X208729Y474700D01*
X208851Y474496D01*
X208952Y474354D01*
X209034Y474232D01*
X209095Y474171D01*
X209115Y474150D01*
X209319Y473967D01*
X209543Y473804D01*
X209766Y473662D01*
X209970Y473540D01*
X210173Y473459D01*
X210336Y473397D01*
X210438Y473357D01*
X210458Y473336D01*
X210478D01*
X210845Y473235D01*
X211231Y473153D01*
X211658Y473113D01*
X212065Y473072D01*
X212411Y473052D01*
X212574Y473031D01*
X212981D01*
X213550Y473052D01*
X214079Y473072D01*
X214507Y473133D01*
X214873Y473174D01*
X215178Y473235D01*
X215300Y473255D01*
X215382Y473296D01*
X215463Y473316D01*
X215524D01*
X215544Y473336D01*
X215565D01*
X215890Y473459D01*
X216175Y473560D01*
X216399Y473703D01*
X216582Y473804D01*
X216724Y473906D01*
X216826Y473988D01*
X216887Y474049D01*
X216908Y474069D01*
X217050Y474252D01*
X217172Y474435D01*
X217274Y474618D01*
X217355Y474801D01*
X217416Y474964D01*
X217457Y475086D01*
X217498Y475168D01*
Y475208D01*
X217538Y475432D01*
X217558Y475696D01*
X217599Y475981D01*
Y476266D01*
X217620Y476531D01*
Y476734D01*
Y476815D01*
Y476876D01*
Y476917D01*
Y476938D01*
Y479033D01*
D02*
G37*
G36*
X386865Y493355D02*
X386641D01*
X386173Y493335D01*
X385766Y493274D01*
X385420Y493192D01*
X385156Y493111D01*
X384952Y493030D01*
X384810Y492948D01*
X384708Y492887D01*
X384688Y492867D01*
X384484Y492663D01*
X384342Y492460D01*
X384220Y492256D01*
X384159Y492053D01*
X384118Y491890D01*
X384078Y491748D01*
Y491666D01*
Y491626D01*
X384118Y491341D01*
X384200Y491076D01*
X384301Y490832D01*
X384444Y490629D01*
X384586Y490466D01*
X384688Y490344D01*
X384769Y490263D01*
X384810Y490242D01*
X385115Y490039D01*
X385441Y489896D01*
X385787Y489774D01*
X386112Y489713D01*
X386417Y489673D01*
X386641Y489632D01*
X386865D01*
X387292Y489652D01*
X387658Y489713D01*
X387964Y489815D01*
X388228Y489896D01*
X388411Y489998D01*
X388554Y490100D01*
X388655Y490161D01*
X388676Y490181D01*
X388879Y490385D01*
X389021Y490608D01*
X389144Y490832D01*
X389205Y491036D01*
X389245Y491219D01*
X389266Y491361D01*
X389286Y491443D01*
Y491483D01*
X389266Y491768D01*
X389184Y492033D01*
X389083Y492256D01*
X388960Y492460D01*
X388859Y492623D01*
X388757Y492724D01*
X388676Y492806D01*
X388655Y492826D01*
X388391Y493009D01*
X388065Y493131D01*
X387740Y493233D01*
X387394Y493294D01*
X387109Y493335D01*
X386865Y493355D01*
D02*
G37*
G36*
X486504Y489968D02*
X486280D01*
X485853Y489948D01*
X485486Y489887D01*
X485181Y489806D01*
X484917Y489704D01*
X484734Y489602D01*
X484591Y489521D01*
X484490Y489460D01*
X484469Y489440D01*
X484266Y489236D01*
X484103Y489012D01*
X484001Y488788D01*
X483920Y488585D01*
X483879Y488402D01*
X483838Y488239D01*
Y488158D01*
Y488117D01*
X483859Y487832D01*
X483940Y487568D01*
X484042Y487344D01*
X484164Y487141D01*
X484286Y486978D01*
X484388Y486876D01*
X484469Y486795D01*
X484490Y486774D01*
X484754Y486591D01*
X485079Y486449D01*
X485425Y486367D01*
X485751Y486286D01*
X486056Y486245D01*
X486300Y486225D01*
X486524D01*
X486992Y486245D01*
X487399Y486306D01*
X487724Y486388D01*
X487989Y486469D01*
X488192Y486571D01*
X488335Y486652D01*
X488437Y486713D01*
X488457Y486734D01*
X488640Y486937D01*
X488782Y487141D01*
X488884Y487364D01*
X488945Y487547D01*
X488986Y487730D01*
X489026Y487873D01*
Y487954D01*
Y487995D01*
X488986Y488280D01*
X488904Y488544D01*
X488803Y488768D01*
X488660Y488972D01*
X488538Y489134D01*
X488416Y489277D01*
X488335Y489358D01*
X488314Y489379D01*
X488030Y489582D01*
X487704Y489724D01*
X487358Y489826D01*
X487033Y489887D01*
X486727Y489928D01*
X486504Y489968D01*
D02*
G37*
G36*
X214425Y492502D02*
X209197Y490589D01*
X214425Y488616D01*
Y492502D01*
D02*
G37*
G36*
X361673Y482918D02*
X360615D01*
X360187Y482898D01*
X359821D01*
X359455Y482877D01*
X359150Y482857D01*
X358845Y482836D01*
X358600Y482816D01*
X358356Y482775D01*
X358153Y482755D01*
X357990Y482735D01*
X357848Y482715D01*
X357726Y482694D01*
X357644Y482674D01*
X357563D01*
X357542Y482653D01*
X357522D01*
X357237Y482572D01*
X356993Y482470D01*
X356810Y482389D01*
X356647Y482287D01*
X356545Y482206D01*
X356464Y482145D01*
X356423Y482104D01*
X356403Y482084D01*
X356301Y481941D01*
X356220Y481779D01*
X356159Y481636D01*
X356118Y481494D01*
X356098Y481392D01*
X356078Y481290D01*
Y481229D01*
Y481209D01*
X356098Y481026D01*
X356118Y480863D01*
X356179Y480721D01*
X356240Y480598D01*
X356301Y480497D01*
X356342Y480415D01*
X356383Y480375D01*
X356403Y480354D01*
X356545Y480232D01*
X356729Y480110D01*
X356932Y480009D01*
X357136Y479907D01*
X357339Y479846D01*
X357502Y479785D01*
X357603Y479764D01*
X357624Y479744D01*
X357644D01*
X357827Y479703D01*
X358051Y479663D01*
X358316Y479622D01*
X358580Y479581D01*
X359129Y479541D01*
X359699Y479520D01*
X359964Y479500D01*
X360228D01*
X360452Y479479D01*
X361510D01*
X361937Y479500D01*
X362324D01*
X362669Y479520D01*
X362995Y479541D01*
X363280Y479561D01*
X363544Y479602D01*
X363768Y479622D01*
X363972Y479642D01*
X364134Y479683D01*
X364277Y479703D01*
X364399Y479724D01*
X364480Y479744D01*
X364562D01*
X364582Y479764D01*
X364602D01*
X364887Y479846D01*
X365111Y479948D01*
X365314Y480049D01*
X365457Y480131D01*
X365579Y480212D01*
X365660Y480293D01*
X365701Y480334D01*
X365721Y480354D01*
X365823Y480497D01*
X365904Y480639D01*
X365945Y480782D01*
X365986Y480924D01*
X366006Y481026D01*
X366026Y481128D01*
Y481189D01*
Y481209D01*
X366006Y481392D01*
X365986Y481555D01*
X365925Y481697D01*
X365864Y481819D01*
X365823Y481921D01*
X365762Y482002D01*
X365742Y482043D01*
X365721Y482063D01*
X365579Y482186D01*
X365396Y482308D01*
X365192Y482409D01*
X364989Y482511D01*
X364806Y482572D01*
X364643Y482633D01*
X364541Y482653D01*
X364501Y482674D01*
X364297Y482715D01*
X364073Y482755D01*
X363829Y482796D01*
X363565Y482816D01*
X362995Y482857D01*
X362425Y482877D01*
X362161Y482898D01*
X361896D01*
X361673Y482918D01*
D02*
G37*
G36*
X410620Y45142D02*
X401301D01*
Y43881D01*
Y43576D01*
Y43291D01*
X401322Y43026D01*
Y42782D01*
X401342Y42579D01*
Y42396D01*
X401362Y42212D01*
Y42070D01*
X401403Y41846D01*
X401423Y41684D01*
X401444Y41582D01*
Y41561D01*
X401525Y41276D01*
X401627Y41032D01*
X401729Y40809D01*
X401851Y40605D01*
X401953Y40463D01*
X402034Y40341D01*
X402095Y40280D01*
X402115Y40259D01*
X402319Y40076D01*
X402542Y39913D01*
X402766Y39771D01*
X402970Y39649D01*
X403173Y39567D01*
X403336Y39506D01*
X403438Y39466D01*
X403458Y39446D01*
X403478D01*
X403845Y39344D01*
X404231Y39262D01*
X404658Y39222D01*
X405065Y39181D01*
X405411Y39161D01*
X405574Y39140D01*
X405981D01*
X406550Y39161D01*
X407080Y39181D01*
X407507Y39242D01*
X407873Y39283D01*
X408178Y39344D01*
X408300Y39364D01*
X408382Y39405D01*
X408463Y39425D01*
X408524D01*
X408544Y39446D01*
X408565D01*
X408890Y39567D01*
X409175Y39669D01*
X409399Y39812D01*
X409582Y39913D01*
X409724Y40015D01*
X409826Y40097D01*
X409887Y40158D01*
X409907Y40178D01*
X410050Y40361D01*
X410172Y40544D01*
X410274Y40727D01*
X410355Y40910D01*
X410416Y41073D01*
X410457Y41195D01*
X410498Y41276D01*
Y41317D01*
X410538Y41541D01*
X410559Y41806D01*
X410599Y42090D01*
Y42375D01*
X410620Y42640D01*
Y42843D01*
Y42924D01*
Y42986D01*
Y43026D01*
Y43047D01*
Y45142D01*
D02*
G37*
G36*
X329882Y95152D02*
X326301D01*
Y92954D01*
Y92649D01*
Y92364D01*
Y92120D01*
Y91896D01*
X326322Y91713D01*
Y91530D01*
Y91388D01*
Y91266D01*
X326342Y91082D01*
Y90961D01*
X326362Y90899D01*
Y90879D01*
X326423Y90635D01*
X326505Y90411D01*
X326586Y90228D01*
X326688Y90086D01*
X326790Y89964D01*
X326851Y89862D01*
X326912Y89821D01*
X326932Y89801D01*
X327095Y89679D01*
X327298Y89577D01*
X327481Y89516D01*
X327664Y89455D01*
X327827Y89435D01*
X327949Y89414D01*
X328071D01*
X328295Y89435D01*
X328499Y89455D01*
X328682Y89516D01*
X328845Y89557D01*
X328967Y89618D01*
X329048Y89679D01*
X329109Y89699D01*
X329129Y89719D01*
X329272Y89841D01*
X329394Y89964D01*
X329577Y90228D01*
X329638Y90330D01*
X329679Y90431D01*
X329719Y90492D01*
Y90513D01*
X329740Y90615D01*
X329780Y90777D01*
X329801Y90940D01*
X329821Y91123D01*
X329841Y91551D01*
X329862Y91978D01*
X329882Y92385D01*
Y92568D01*
Y92731D01*
Y92873D01*
Y92975D01*
Y93036D01*
Y93056D01*
Y95152D01*
D02*
G37*
G36*
X559425Y55975D02*
X554197Y54062D01*
X559425Y52089D01*
Y55975D01*
D02*
G37*
G36*
X193620Y478033D02*
X184301D01*
Y476772D01*
Y476466D01*
Y476182D01*
X184322Y475917D01*
Y475673D01*
X184342Y475470D01*
Y475286D01*
X184362Y475103D01*
Y474961D01*
X184403Y474737D01*
X184424Y474574D01*
X184444Y474473D01*
Y474452D01*
X184525Y474168D01*
X184627Y473923D01*
X184729Y473700D01*
X184851Y473496D01*
X184952Y473354D01*
X185034Y473232D01*
X185095Y473171D01*
X185115Y473150D01*
X185319Y472967D01*
X185543Y472804D01*
X185766Y472662D01*
X185970Y472540D01*
X186173Y472458D01*
X186336Y472397D01*
X186438Y472357D01*
X186458Y472336D01*
X186478D01*
X186845Y472235D01*
X187231Y472153D01*
X187658Y472113D01*
X188065Y472072D01*
X188411Y472052D01*
X188574Y472031D01*
X188981D01*
X189550Y472052D01*
X190079Y472072D01*
X190507Y472133D01*
X190873Y472174D01*
X191178Y472235D01*
X191300Y472255D01*
X191382Y472296D01*
X191463Y472316D01*
X191524D01*
X191544Y472336D01*
X191565D01*
X191890Y472458D01*
X192175Y472560D01*
X192399Y472703D01*
X192582Y472804D01*
X192724Y472906D01*
X192826Y472988D01*
X192887Y473049D01*
X192908Y473069D01*
X193050Y473252D01*
X193172Y473435D01*
X193274Y473618D01*
X193355Y473801D01*
X193416Y473964D01*
X193457Y474086D01*
X193498Y474168D01*
Y474208D01*
X193538Y474432D01*
X193559Y474697D01*
X193599Y474981D01*
Y475266D01*
X193620Y475531D01*
Y475734D01*
Y475816D01*
Y475877D01*
Y475917D01*
Y475938D01*
Y478033D01*
D02*
G37*
G36*
X536425Y55975D02*
X531197Y54062D01*
X536425Y52089D01*
Y55975D01*
D02*
G37*
G36*
X190425Y491502D02*
X185197Y489589D01*
X190425Y487616D01*
Y491502D01*
D02*
G37*
G36*
X611812Y43930D02*
X606970Y40655D01*
X611812D01*
Y43930D01*
D02*
G37*
G36*
X214425Y420357D02*
X209197Y418445D01*
X214425Y416471D01*
Y420357D01*
D02*
G37*
G36*
X611425Y55975D02*
X606197Y54062D01*
X611425Y52089D01*
Y55975D01*
D02*
G37*
G36*
X585425Y54975D02*
X580197Y53062D01*
X585425Y51089D01*
Y54975D01*
D02*
G37*
G36*
X437620Y45142D02*
X428301D01*
Y43881D01*
Y43576D01*
Y43291D01*
X428322Y43026D01*
Y42782D01*
X428342Y42579D01*
Y42396D01*
X428362Y42212D01*
Y42070D01*
X428403Y41846D01*
X428424Y41684D01*
X428444Y41582D01*
Y41561D01*
X428525Y41276D01*
X428627Y41032D01*
X428729Y40809D01*
X428851Y40605D01*
X428952Y40463D01*
X429034Y40341D01*
X429095Y40280D01*
X429115Y40259D01*
X429319Y40076D01*
X429543Y39913D01*
X429766Y39771D01*
X429970Y39649D01*
X430173Y39567D01*
X430336Y39506D01*
X430438Y39466D01*
X430458Y39446D01*
X430478D01*
X430845Y39344D01*
X431231Y39262D01*
X431658Y39222D01*
X432065Y39181D01*
X432411Y39161D01*
X432574Y39140D01*
X432981D01*
X433550Y39161D01*
X434080Y39181D01*
X434507Y39242D01*
X434873Y39283D01*
X435178Y39344D01*
X435300Y39364D01*
X435382Y39405D01*
X435463Y39425D01*
X435524D01*
X435544Y39446D01*
X435565D01*
X435890Y39567D01*
X436175Y39669D01*
X436399Y39812D01*
X436582Y39913D01*
X436724Y40015D01*
X436826Y40097D01*
X436887Y40158D01*
X436908Y40178D01*
X437050Y40361D01*
X437172Y40544D01*
X437274Y40727D01*
X437355Y40910D01*
X437416Y41073D01*
X437457Y41195D01*
X437497Y41276D01*
Y41317D01*
X437538Y41541D01*
X437559Y41806D01*
X437599Y42090D01*
Y42375D01*
X437620Y42640D01*
Y42843D01*
Y42924D01*
Y42986D01*
Y43026D01*
Y43047D01*
Y45142D01*
D02*
G37*
G36*
X507425Y56975D02*
X502197Y55062D01*
X507425Y53089D01*
Y56975D01*
D02*
G37*
G36*
X506673Y44116D02*
X505615D01*
X505187Y44096D01*
X504821D01*
X504455Y44076D01*
X504150Y44055D01*
X503845Y44035D01*
X503600Y44015D01*
X503356Y43974D01*
X503153Y43954D01*
X502990Y43933D01*
X502848Y43913D01*
X502726Y43893D01*
X502644Y43872D01*
X502563D01*
X502542Y43852D01*
X502522D01*
X502237Y43770D01*
X501993Y43669D01*
X501810Y43587D01*
X501647Y43486D01*
X501546Y43404D01*
X501464Y43343D01*
X501423Y43303D01*
X501403Y43282D01*
X501301Y43140D01*
X501220Y42977D01*
X501159Y42835D01*
X501118Y42692D01*
X501098Y42590D01*
X501078Y42489D01*
Y42428D01*
Y42407D01*
X501098Y42224D01*
X501118Y42062D01*
X501179Y41919D01*
X501240Y41797D01*
X501301Y41695D01*
X501342Y41614D01*
X501383Y41573D01*
X501403Y41553D01*
X501546Y41431D01*
X501729Y41309D01*
X501932Y41207D01*
X502136Y41105D01*
X502339Y41044D01*
X502502Y40983D01*
X502603Y40963D01*
X502624Y40943D01*
X502644D01*
X502827Y40902D01*
X503051Y40861D01*
X503316Y40820D01*
X503580Y40780D01*
X504129Y40739D01*
X504699Y40719D01*
X504964Y40698D01*
X505228D01*
X505452Y40678D01*
X506510D01*
X506937Y40698D01*
X507324D01*
X507669Y40719D01*
X507995Y40739D01*
X508280Y40759D01*
X508544Y40800D01*
X508768Y40820D01*
X508972Y40841D01*
X509134Y40882D01*
X509277Y40902D01*
X509399Y40922D01*
X509480Y40943D01*
X509562D01*
X509582Y40963D01*
X509602D01*
X509887Y41044D01*
X510111Y41146D01*
X510314Y41248D01*
X510457Y41329D01*
X510579Y41410D01*
X510660Y41492D01*
X510701Y41533D01*
X510721Y41553D01*
X510823Y41695D01*
X510904Y41838D01*
X510945Y41980D01*
X510986Y42123D01*
X511006Y42224D01*
X511026Y42326D01*
Y42387D01*
Y42407D01*
X511006Y42590D01*
X510986Y42753D01*
X510925Y42896D01*
X510864Y43018D01*
X510823Y43120D01*
X510762Y43201D01*
X510742Y43242D01*
X510721Y43262D01*
X510579Y43384D01*
X510396Y43506D01*
X510192Y43608D01*
X509989Y43710D01*
X509806Y43770D01*
X509643Y43832D01*
X509541Y43852D01*
X509501Y43872D01*
X509297Y43913D01*
X509073Y43954D01*
X508829Y43994D01*
X508565Y44015D01*
X507995Y44055D01*
X507425Y44076D01*
X507161Y44096D01*
X506896D01*
X506673Y44116D01*
D02*
G37*
G36*
X653425Y31975D02*
X648197Y30062D01*
X653425Y28089D01*
Y31975D01*
D02*
G37*
%LPD*%
M02*
