M48
;Layer_Color=9474304
;FILE_FORMAT=4:4
METRIC,LZ
;TYPE=PLATED
T1F00S00C0.3000
T3F00S00C1.0000
T4F00S00C1.1000
T5F00S00C1.5000
T6F00S00C3.2000
;TYPE=NON_PLATED
T7F00S00C3.2000
%
T01
X003155Y000655
X0035525Y0007525
X0038275Y00081
X0038725Y0009925
X0043025Y0011575
X0043225Y001415
X0046725Y000945
X004775Y0009075
X0045325Y000645
X0042425Y0006475
X00614Y00077
X0063825Y00129
X0063875Y0018775
X006035Y0018025
X006675Y001665
X00478Y002535
X003915Y0025375
X0032875Y0018275
X0030225Y001805
X00259Y00183
X002605Y0022075
X0023625Y0021975
Y002005
X0018475
X0016125Y001955
X0016025Y00211
X0014875Y0022
X0017425Y002275
X0019725Y0022725
X00169Y00179
X00149Y00187
X00143Y00166
X00129Y00179
X00111Y00185
X00115Y00165
X0011225Y00211
X00107Y002485
X0010375Y002635
X000605Y0026375
X0006925Y00246
X0005025Y002475
X000575Y0022175
X0004675Y0021775
X0004375Y00207
X000615Y001595
X0008675Y001205
Y00101
X0015625Y001375
X0016325Y00131
X0019475Y0014575
X0020675Y00138
X0023125Y0013725
X00303Y0007975
X00289Y0006525
X0029975Y00232
X0021925Y0030025
X0014975Y002735
X0001075Y002675
X0009225Y0031975
X00114Y00357
X0010075Y003875
X00121Y00424
X00129Y00423
X0015625Y0040925
X0018025Y00408
X00181Y00441
X00166Y00446
X0022275Y004285
X00211Y0039775
X0020875Y0037525
X0027375Y00341
X003025Y004075
X0029025Y004885
X00243Y0047
X000335Y0044725
X00049Y005205
X00319Y00445
X00327Y00435
X00375Y00405
X00381
Y00398
X00374
X00378Y00493
X0033125Y0032
X00584Y00389
X00588Y00396
Y0040375
X00589Y00419
X00576Y00427
X0058Y00435
X00562Y00438
X0062425Y004585
T03
X0031585Y0012573
X0034125
X0036665
X0039205
X0041745
X0044285
X0046825
X0049365
X0051905
X0054445
X0056985
X0059525
X0062065
Y0020193
X0059525
X0056985
X0054445
X0051905
X0049365
X0046825
X0044285
X0041745
X0039205
X0036665
X0034125
X0031585
X0061075Y002625
Y003075
X0067575
Y002625
X0029045Y0020193
Y0012573
X002455Y000825
X002005
Y000175
X002455
T04
X003302Y000254
X003556
X00381
X004064
X004318
X004572
X00508
X005334
X005588
X005842
X006096
X00635
X003048
X002794
X001678Y00086
X001424
X00117
X000502Y0031105
X000248
Y0033645
X000502
X00046Y003803
Y004057
X000714
Y003803
X000206
Y004057
X000196Y004703
Y004957
X00045
X000704
Y004703
X00045
X00146Y00446
Y004206
Y003952
Y003698
X0018796Y00508
X0021336
X0023876
X0026416
X0028956
X0031496
X0034036
X0036576
X0039116
X0041656
X004572
X004826
X00508
X005334
X005588
X005842
X006096
X00635
X00662Y004714
Y00446
Y004206
T05
X00021Y00021
Y00125
T06
X006604Y000762
X001397Y000254
X006604Y003556
T07
X001524Y00508
M30
