G04 Layer_Color=8388736*
%FSLAX44Y44*%
%MOMM*%
G71*
G01*
G75*
%ADD38C,1.9000*%
%ADD39R,1.9000X1.9000*%
%ADD53R,1.5000X0.9000*%
%ADD54R,0.9000X1.5000*%
%ADD55R,0.8858X0.7588*%
%ADD56R,0.7588X0.8858*%
%ADD57R,1.6000X1.8000*%
%ADD58R,2.1000X2.1000*%
%ADD59R,1.4500X0.5000*%
%ADD60R,1.1000X0.8000*%
%ADD61R,2.8000X2.7000*%
%ADD62R,2.7000X2.8000*%
%ADD63R,1.2000X0.7500*%
%ADD64R,0.7500X1.2000*%
%ADD65R,3.7000X2.4000*%
%ADD66R,0.8000X2.4000*%
%ADD67R,0.6700X1.6200*%
%ADD68R,1.6200X0.6700*%
%ADD69R,2.9000X2.2000*%
%ADD70C,3.0480*%
%ADD71R,1.5000X1.1000*%
%ADD72R,1.1000X1.5000*%
%ADD73R,1.0000X1.0000*%
%ADD74R,1.8000X3.2000*%
%ADD75C,2.1000*%
%ADD76R,2.1000X2.1000*%
%ADD77R,1.8000X2.2000*%
%ADD78O,1.8000X2.2000*%
%ADD79O,2.2000X1.8000*%
%ADD80R,2.2000X1.8000*%
G04:AMPARAMS|DCode=81|XSize=2.1mm|YSize=1.3mm|CornerRadius=0.35mm|HoleSize=0mm|Usage=FLASHONLY|Rotation=0.000|XOffset=0mm|YOffset=0mm|HoleType=Round|Shape=RoundedRectangle|*
%AMROUNDEDRECTD81*
21,1,2.1000,0.6000,0,0,0.0*
21,1,1.4000,1.3000,0,0,0.0*
1,1,0.7000,0.7000,-0.3000*
1,1,0.7000,-0.7000,-0.3000*
1,1,0.7000,-0.7000,0.3000*
1,1,0.7000,0.7000,0.3000*
%
%ADD81ROUNDEDRECTD81*%
%ADD82C,3.4000*%
%ADD83C,7.6000*%
%ADD84C,4.2000*%
D38*
X24800Y336450D02*
D03*
X50200Y311050D02*
D03*
X24800D02*
D03*
X71400Y405700D02*
D03*
X46000D02*
D03*
X20600D02*
D03*
X71400Y380300D02*
D03*
X46000D02*
D03*
X70400Y495700D02*
D03*
X45000D02*
D03*
X19600D02*
D03*
X70400Y470300D02*
D03*
X45000D02*
D03*
D39*
X50200Y336450D02*
D03*
X20600Y380300D02*
D03*
X19600Y470300D02*
D03*
D53*
X172000Y393500D02*
D03*
Y374500D02*
D03*
X91000Y261500D02*
D03*
Y280500D02*
D03*
X219000Y275500D02*
D03*
Y256500D02*
D03*
X612000Y461500D02*
D03*
Y480500D02*
D03*
X584000Y479500D02*
D03*
Y460500D02*
D03*
X636000Y412500D02*
D03*
Y431500D02*
D03*
X672000Y188500D02*
D03*
Y207500D02*
D03*
X30000Y278500D02*
D03*
Y259500D02*
D03*
X672000Y242500D02*
D03*
Y223500D02*
D03*
X274000Y47500D02*
D03*
Y66500D02*
D03*
X249000Y146500D02*
D03*
Y165500D02*
D03*
X649000Y242500D02*
D03*
Y223500D02*
D03*
X330000Y65500D02*
D03*
Y84500D02*
D03*
Y65500D02*
D03*
Y46500D02*
D03*
D54*
X272000Y428250D02*
D03*
X291000D02*
D03*
X291000Y407250D02*
D03*
X272000D02*
D03*
X80500Y347000D02*
D03*
X99500D02*
D03*
X74500Y211500D02*
D03*
X93500D02*
D03*
Y189500D02*
D03*
X74500D02*
D03*
Y167500D02*
D03*
X93500D02*
D03*
X359500Y98000D02*
D03*
X378500D02*
D03*
X604500Y229000D02*
D03*
X623500D02*
D03*
X232500Y428000D02*
D03*
X251500D02*
D03*
X425500Y230000D02*
D03*
X406500D02*
D03*
X590000Y363750D02*
D03*
X609000D02*
D03*
X33500Y241000D02*
D03*
X14500D02*
D03*
X270500Y86000D02*
D03*
X289500D02*
D03*
X123500Y214500D02*
D03*
X142500D02*
D03*
D55*
X11000Y258808D02*
D03*
Y283192D02*
D03*
D56*
X606058Y244750D02*
D03*
X630442D02*
D03*
D57*
X33120Y220000D02*
D03*
Y156000D02*
D03*
D58*
X8620Y200000D02*
D03*
Y176000D02*
D03*
X245500Y82500D02*
D03*
D59*
X35370Y175000D02*
D03*
Y181500D02*
D03*
Y188000D02*
D03*
Y194500D02*
D03*
Y201000D02*
D03*
D60*
X57750Y184250D02*
D03*
Y169250D02*
D03*
Y198750D02*
D03*
Y213750D02*
D03*
D61*
X251000Y312500D02*
D03*
Y263500D02*
D03*
D62*
X407500Y287000D02*
D03*
X456500D02*
D03*
D63*
X230500Y145500D02*
D03*
Y164500D02*
D03*
X203500Y145500D02*
D03*
Y155000D02*
D03*
Y164500D02*
D03*
X194500Y409500D02*
D03*
Y428500D02*
D03*
X167500Y409500D02*
D03*
Y419000D02*
D03*
Y428500D02*
D03*
D64*
X648500Y147500D02*
D03*
X667500D02*
D03*
X648500Y174500D02*
D03*
X658000D02*
D03*
X667500D02*
D03*
X69500Y260500D02*
D03*
X50500D02*
D03*
X69500Y233500D02*
D03*
X60000D02*
D03*
X50500D02*
D03*
D65*
X160000Y175000D02*
D03*
D66*
X185400Y113000D02*
D03*
X172700D02*
D03*
X160000D02*
D03*
X147300D02*
D03*
X134600D02*
D03*
D67*
X182000Y258000D02*
D03*
X174000D02*
D03*
X166000D02*
D03*
X158000D02*
D03*
X150000D02*
D03*
X142000D02*
D03*
X134000D02*
D03*
X126000D02*
D03*
Y342000D02*
D03*
X134000D02*
D03*
X142000D02*
D03*
X150000D02*
D03*
X158000D02*
D03*
X166000D02*
D03*
X174000D02*
D03*
X182000D02*
D03*
D68*
X112000Y272000D02*
D03*
Y280000D02*
D03*
Y288000D02*
D03*
Y296000D02*
D03*
Y304000D02*
D03*
Y312000D02*
D03*
Y320000D02*
D03*
Y328000D02*
D03*
X196000D02*
D03*
Y320000D02*
D03*
Y312000D02*
D03*
Y304000D02*
D03*
Y296000D02*
D03*
Y288000D02*
D03*
Y280000D02*
D03*
Y272000D02*
D03*
D69*
X23000Y58000D02*
D03*
Y90000D02*
D03*
D70*
X96000Y519000D02*
D03*
X668000Y20000D02*
D03*
X669000Y513000D02*
D03*
D71*
X437000Y77500D02*
D03*
Y58500D02*
D03*
X198000Y200500D02*
D03*
Y181500D02*
D03*
X231000Y110500D02*
D03*
Y129500D02*
D03*
X649000Y206500D02*
D03*
Y187500D02*
D03*
X221000Y181500D02*
D03*
Y200500D02*
D03*
X213000Y428500D02*
D03*
Y409500D02*
D03*
X355000Y48500D02*
D03*
Y67500D02*
D03*
X303000Y48500D02*
D03*
Y67500D02*
D03*
X207000Y110500D02*
D03*
Y129500D02*
D03*
X113000Y110500D02*
D03*
Y129500D02*
D03*
X636000Y478500D02*
D03*
Y459500D02*
D03*
X19000Y428500D02*
D03*
Y447500D02*
D03*
X174000Y238500D02*
D03*
Y219500D02*
D03*
X219000Y311500D02*
D03*
Y292500D02*
D03*
X197000Y238500D02*
D03*
Y219500D02*
D03*
X220000Y238500D02*
D03*
Y219500D02*
D03*
D72*
X477500Y52000D02*
D03*
X458500D02*
D03*
X591000Y338750D02*
D03*
X610000D02*
D03*
X87500Y234000D02*
D03*
X106500D02*
D03*
X50500Y278000D02*
D03*
X69500D02*
D03*
X668500Y129000D02*
D03*
X649500D02*
D03*
X443500Y254000D02*
D03*
X462500D02*
D03*
X423500D02*
D03*
X404500D02*
D03*
X453500Y99000D02*
D03*
X434500D02*
D03*
X415500D02*
D03*
X396500D02*
D03*
X415500Y76000D02*
D03*
X396500D02*
D03*
X243500Y483000D02*
D03*
X262500D02*
D03*
X463500Y230000D02*
D03*
X444500D02*
D03*
X458500Y76000D02*
D03*
X477500D02*
D03*
X14500Y520000D02*
D03*
X33500D02*
D03*
X386500Y51000D02*
D03*
X405500D02*
D03*
X241500Y234000D02*
D03*
X260500D02*
D03*
X239500Y341000D02*
D03*
X258500D02*
D03*
X123750Y235500D02*
D03*
X142750D02*
D03*
D73*
X251000Y373500D02*
D03*
X235000D02*
D03*
X251000Y389500D02*
D03*
X235000D02*
D03*
X252000Y408000D02*
D03*
X236000D02*
D03*
X608750Y383500D02*
D03*
X592750D02*
D03*
D74*
X72000Y63500D02*
D03*
Y22500D02*
D03*
Y139500D02*
D03*
Y98500D02*
D03*
D75*
X675750Y307500D02*
D03*
X610750D02*
D03*
Y262500D02*
D03*
X245500Y17500D02*
D03*
X200500D02*
D03*
Y82500D02*
D03*
D76*
X675750Y262500D02*
D03*
D77*
X117000Y86000D02*
D03*
X416560Y508000D02*
D03*
X635000D02*
D03*
X508000Y25400D02*
D03*
X279400D02*
D03*
X620650Y201930D02*
D03*
D78*
X142400Y86000D02*
D03*
X167800D02*
D03*
X391160Y508000D02*
D03*
X365760D02*
D03*
X340360D02*
D03*
X314960D02*
D03*
X289560D02*
D03*
X264160D02*
D03*
X238760D02*
D03*
X213360D02*
D03*
X187960D02*
D03*
X609600D02*
D03*
X584200D02*
D03*
X558800D02*
D03*
X533400D02*
D03*
X508000D02*
D03*
X482600D02*
D03*
X457200D02*
D03*
X635000Y25400D02*
D03*
X609600D02*
D03*
X584200D02*
D03*
X558800D02*
D03*
X533400D02*
D03*
X304800D02*
D03*
X330200D02*
D03*
X355600D02*
D03*
X381000D02*
D03*
X406400D02*
D03*
X431800D02*
D03*
X457200D02*
D03*
X290450Y125730D02*
D03*
X315850D02*
D03*
X341250D02*
D03*
X366650D02*
D03*
X392050D02*
D03*
X417450D02*
D03*
X442850D02*
D03*
X468250D02*
D03*
X493650D02*
D03*
X519050D02*
D03*
X544450D02*
D03*
X569850D02*
D03*
X595250D02*
D03*
X620650D02*
D03*
X290450Y201930D02*
D03*
X315850D02*
D03*
X341250D02*
D03*
X366650D02*
D03*
X392050D02*
D03*
X417450D02*
D03*
X442850D02*
D03*
X468250D02*
D03*
X493650D02*
D03*
X519050D02*
D03*
X544450D02*
D03*
X569850D02*
D03*
X595250D02*
D03*
D79*
X146000Y369800D02*
D03*
Y395200D02*
D03*
Y420600D02*
D03*
X662000Y446000D02*
D03*
Y420600D02*
D03*
D80*
X146000Y446000D02*
D03*
X662000Y471400D02*
D03*
D81*
X8620Y155000D02*
D03*
Y221000D02*
D03*
D82*
X152400Y508000D02*
D03*
D83*
X660400Y355600D02*
D03*
Y76200D02*
D03*
X139700Y25400D02*
D03*
D84*
X21000Y125000D02*
D03*
Y21000D02*
D03*
M02*
