G04 Layer_Color=16711935*
%FSLAX44Y44*%
%MOMM*%
G71*
G01*
G75*
%ADD38C,1.9000*%
%ADD39R,1.9000X1.9000*%
%ADD58R,2.1000X2.1000*%
%ADD75C,2.1000*%
%ADD76R,2.1000X2.1000*%
%ADD77R,1.8000X2.2000*%
%ADD78O,1.8000X2.2000*%
%ADD79O,2.2000X1.8000*%
%ADD80R,2.2000X1.8000*%
G04:AMPARAMS|DCode=81|XSize=2.1mm|YSize=1.3mm|CornerRadius=0.35mm|HoleSize=0mm|Usage=FLASHONLY|Rotation=0.000|XOffset=0mm|YOffset=0mm|HoleType=Round|Shape=RoundedRectangle|*
%AMROUNDEDRECTD81*
21,1,2.1000,0.6000,0,0,0.0*
21,1,1.4000,1.3000,0,0,0.0*
1,1,0.7000,0.7000,-0.3000*
1,1,0.7000,-0.7000,-0.3000*
1,1,0.7000,-0.7000,0.3000*
1,1,0.7000,0.7000,0.3000*
%
%ADD81ROUNDEDRECTD81*%
%ADD82C,3.4000*%
%ADD83C,7.6000*%
%ADD84C,4.2000*%
D38*
X24800Y336450D02*
D03*
X50200Y311050D02*
D03*
X24800D02*
D03*
X71400Y405700D02*
D03*
X46000D02*
D03*
X20600D02*
D03*
X71400Y380300D02*
D03*
X46000D02*
D03*
X70400Y495700D02*
D03*
X45000D02*
D03*
X19600D02*
D03*
X70400Y470300D02*
D03*
X45000D02*
D03*
D39*
X50200Y336450D02*
D03*
X20600Y380300D02*
D03*
X19600Y470300D02*
D03*
D58*
X245500Y82500D02*
D03*
D75*
X675750Y307500D02*
D03*
X610750D02*
D03*
Y262500D02*
D03*
X245500Y17500D02*
D03*
X200500D02*
D03*
Y82500D02*
D03*
D76*
X675750Y262500D02*
D03*
D77*
X117000Y86000D02*
D03*
X416560Y508000D02*
D03*
X635000D02*
D03*
X508000Y25400D02*
D03*
X279400D02*
D03*
X620650Y201930D02*
D03*
D78*
X142400Y86000D02*
D03*
X167800D02*
D03*
X391160Y508000D02*
D03*
X365760D02*
D03*
X340360D02*
D03*
X314960D02*
D03*
X289560D02*
D03*
X264160D02*
D03*
X238760D02*
D03*
X213360D02*
D03*
X187960D02*
D03*
X609600D02*
D03*
X584200D02*
D03*
X558800D02*
D03*
X533400D02*
D03*
X508000D02*
D03*
X482600D02*
D03*
X457200D02*
D03*
X635000Y25400D02*
D03*
X609600D02*
D03*
X584200D02*
D03*
X558800D02*
D03*
X533400D02*
D03*
X304800D02*
D03*
X330200D02*
D03*
X355600D02*
D03*
X381000D02*
D03*
X406400D02*
D03*
X431800D02*
D03*
X457200D02*
D03*
X290450Y125730D02*
D03*
X315850D02*
D03*
X341250D02*
D03*
X366650D02*
D03*
X392050D02*
D03*
X417450D02*
D03*
X442850D02*
D03*
X468250D02*
D03*
X493650D02*
D03*
X519050D02*
D03*
X544450D02*
D03*
X569850D02*
D03*
X595250D02*
D03*
X620650D02*
D03*
X290450Y201930D02*
D03*
X315850D02*
D03*
X341250D02*
D03*
X366650D02*
D03*
X392050D02*
D03*
X417450D02*
D03*
X442850D02*
D03*
X468250D02*
D03*
X493650D02*
D03*
X519050D02*
D03*
X544450D02*
D03*
X569850D02*
D03*
X595250D02*
D03*
D79*
X146000Y369800D02*
D03*
Y395200D02*
D03*
Y420600D02*
D03*
X662000Y446000D02*
D03*
Y420600D02*
D03*
D80*
X146000Y446000D02*
D03*
X662000Y471400D02*
D03*
D81*
X8620Y155000D02*
D03*
Y221000D02*
D03*
D82*
X152400Y508000D02*
D03*
D83*
X660400Y355600D02*
D03*
Y76200D02*
D03*
X139700Y25400D02*
D03*
D84*
X21000Y125000D02*
D03*
Y21000D02*
D03*
M02*
